<?xml version="1.0" encoding="utf-8"?>
<!-- Generator: Adobe Illustrator 25.2.1, SVG Export Plug-In . SVG Version: 6.00 Build 0)  -->
<svg version="1.1" id="Layer_1" xmlns="http://www.w3.org/2000/svg" xmlns:xlink="http://www.w3.org/1999/xlink" x="0px" y="0px"
	 viewBox="0 0 200 200" style="enable-background:new 0 0 200 200;" xml:space="preserve">
<style type="text/css">
	.st0{fill:#231F20;}
</style>
<g>
	<path class="st0" d="M118.2,143.2c-0.2,0.1-0.4,0.2-0.5,0.3c-0.3,0.2-0.7,0.4-1,0.6c-2.1,1.1-4.3,2.1-6.5,3.3l-2.8,1.4l0-3.3
		c0-2.8,0-5.5,0-8.2c0-0.6,0.7-1.3,1-1.5c2.4-1.9,4.9-3.8,7.4-5.7l4-3c1.6-1.3,3.3-2.5,4.9-3.8c0.3-0.3,1.3-1.2,0.7-2.2
		c-0.4-0.6-1.3-1-2-1.1c-0.3-0.1-0.9,0.4-1.3,0.7l-0.2,0.1c-2.8,2.2-5.7,4.3-8.5,6.5l-4.1,3.1c-0.3,0.2-0.5,0.4-0.8,0.6l-1,0.7
		l-0.1-0.6c0-0.1,0-0.3-0.1-0.4c0-0.2-0.1-0.4-0.1-0.5l0-3c0-6,0-12.3,0-18.4c0-0.7,0.5-1.4,1-1.8c1.6-1.2,3.2-2.5,4.7-3.6
		c0.6-0.5,1.3-1,1.9-1.4c0.8-0.6,1.6-1.2,2.4-1.8c2.4-1.8,4.9-3.7,7.2-5.6c0.5-0.4,0.8-1.3,0.8-2.1c0-0.4-0.8-1.1-1.2-1.1
		c-0.6-0.1-1.5,0.2-2.1,0.6c-3.1,2.3-6.2,4.7-9.2,7l-3.3,2.6c-0.3,0.2-0.6,0.4-1,0.7l-1.2,0.9l0-34.2c0-0.4,0-0.7,0-1.1
		c-0.1-1.1-0.8-1.8-1.8-1.8c0,0,0,0,0,0c-1,0-1.7,0.7-1.8,1.8c0,0.4,0,0.7,0,1.1l0,0.3l0,31.2c0,0.4,0,0.7,0,1.2l-0.1,1.5l-8.8-6.7
		c-2.1-1.6-4.1-3.2-6.2-4.7c-0.5-0.4-1.1-0.5-1.6-0.5c-0.5,0.1-0.8,0.3-1.1,0.7c-0.6,0.8-0.5,1.8,0.5,2.6c0.2,0.2,0.4,0.3,0.7,0.5
		l3.9,3c3.8,2.9,7.7,5.9,11.6,8.8c0.9,0.7,1.2,1.4,1.2,2.5c0,4.7,0,9.4,0,14.1v6.1c0,0.3,0,0.6-0.1,1l-0.1,1.4l-2.8-2.2
		c-1.7-1.3-3.3-2.5-5-3.8c-0.8-0.6-1.5-1.2-2.3-1.8c-1.6-1.2-3.2-2.5-4.8-3.7c-0.6-0.5-1.3-0.6-1.9-0.4c-0.5,0.2-0.9,0.6-1.1,1.1
		c-0.4,1.1,0.1,1.7,1.1,2.4c5.3,4,10.6,8,15.8,12.1c0.6,0.4,1.1,0.9,1.1,1.5c0.1,2.7,0.1,5.4,0,8.3l0,3.2l-0.5-0.2
		c-0.6-0.3-1.2-0.5-1.7-0.8c-1.3-0.6-2.5-1.1-3.7-1.6c-0.9-0.4-1.3-1-1.4-2.1c-0.9-11.8-10.8-21.7-22.6-22.5
		c-1.1-0.1-1.7-0.5-2.1-1.6c-1.9-5.3-2.5-10.9-1.8-17.2c0.8-7.2,3-14.7,6.8-23.6c6-14,14.2-28.3,25.8-44.9c0.6-0.8,1.2-1.7,1.8-2.5
		l1.2-1.6l0.3,0.4c0.1,0.2,0.3,0.3,0.4,0.5c0.2,0.3,0.4,0.5,0.6,0.8c4.1,6,8.1,11.9,12.2,17.9c1.4,2,2.5,1.3,2.9,1.1
		c1.2-0.8,0.8-2,0.2-3l-0.3-0.5c-0.6-1-1.2-2-1.9-2.9l-1.7-2.4c-3.4-5-7-10.1-10.5-15.1c-0.8-1.2-1.5-1.7-2.1-1.7
		c-0.6,0-1.3,0.6-2.2,1.8c-7.7,10.3-14.7,21-20.7,31.8C75.5,71.4,71,81.7,68.3,91.9c-2.6,9.5-3,17.4-1.3,24.7c0.2,1,0.5,2,0.8,2.9
		c0.1,0.4,0.2,0.8,0.3,1.2l0.1,0.3l-0.3,0.1c-0.7,0.2-1.4,0.5-2.1,0.7c-1.6,0.5-3.2,1-4.7,1.7c-0.7,0.3-1.2,1-1.2,1.7
		c0,0.6,0.2,1.1,0.8,1.4c0.6,0.3,1.7,0.3,2.4,0c3.8-1.6,7.8-2.2,11.8-1.6c10.8,1.6,18.8,11.4,18.1,22.2
		c-0.7,11.3-9.4,19.8-20.6,20.2c-11.3,0.4-21.1-8.4-21.9-19.7c-0.4-5.7,1.2-10.8,4.8-15.2c0.8-0.9,1.1-1.7,0.6-2.6
		c-0.3-0.5-0.7-0.9-1.3-0.9c-0.7-0.1-1.4,0.3-2,1c-4.7,5.6-6.6,12.1-5.7,19.3c1.4,11.9,11.3,21,23.5,21.7c12,0.6,22.8-7.4,25.5-19.1
		l0.6-2.5l0.4,0.2c0.6,0.2,1.1,0.5,1.7,0.7c1.3,0.6,2.5,1.1,3.7,1.5c1.3,0.5,1.5,1.2,1.5,2.3c0,2.8,0,5.7,0,8.5c0,2.9,0,5.7,0,8.6
		c0,1.4,0.3,2.3,1.1,3h1.5c0.8-0.6,1.1-1.5,1.1-3c0-3.1,0-6.1,0-9.2c0-2.7,0-5.4,0-8.1c0-0.8,0.2-1.7,1.4-2.1
		c1.1-0.4,2.2-0.8,3.5-1.4c3-1.5,5.6-2.8,7.9-4.1c0.7-0.4,1.1-0.9,1.3-1.4c0.1-0.4,0-0.9-0.2-1.4
		C120.5,142.5,119.5,142.4,118.2,143.2z"/>
	<path class="st0" d="M127.4,56.4c-0.3-0.5-0.7-0.9-0.9-0.9c-0.1,0-0.1,0-0.2,0c-0.6,0-1.4,0.1-1.9,0.5c-0.8,0.6-0.5,1.5-0.1,2.2
		c0.5,0.9,1,1.8,1.4,2.7c1.3,2.5,2.7,5,4,7.5c5.9,11.6,9.3,20.9,11,30.1c1.8,9.3,0.8,17.5-2.9,24.9c-2.5,5.1-6.2,9.7-11.3,14
		c-0.6,0.5-0.9,1-0.9,1.5c0,0.4,0.1,0.9,0.5,1.3c0.3,0.4,0.7,0.6,1.2,0.6c0.5,0,1.1-0.2,1.6-0.7l0.1-0.1c1.6-1.5,3.3-3,4.8-4.6
		c7.5-8.1,11.4-17.6,11.6-28.3c-0.1-1.1-0.3-2.2-0.4-3.4c-0.3-2.4-0.6-4.9-1-7.3C140.9,81.6,134.2,68.4,127.4,56.4z"/>
	<path class="st0" d="M59.1,149.8c3.1,2,6.2,3.9,9.3,5.8c1.7,1.1,2.3,1,3.7-0.5c2.6-3.1,5.3-6.1,7.9-9.2l2.4-2.8
		c0.9-1,1.8-2.1,2.6-3.1c0.6-0.8,0.5-1.8-0.2-2.5c-0.8-0.7-1.7-0.6-2.5,0.2c-0.4,0.4-0.8,0.9-1.2,1.3l-0.4,0.5l-10.9,12.6l-3-1.9
		c-1.9-1.2-3.8-2.4-5.7-3.6c-0.6-0.4-1.2-0.6-1.7-0.6c-0.1,0-0.3,0-0.4,0c-0.4,0.1-0.7,0.4-1,0.8C57.2,148.2,58.2,149.2,59.1,149.8z
		"/>
</g>
</svg>
