<?xml version="1.0" encoding="utf-8"?>
<!-- Generator: Adobe Illustrator 25.2.1, SVG Export Plug-In . SVG Version: 6.00 Build 0)  -->
<svg version="1.1" id="Layer_1" xmlns="http://www.w3.org/2000/svg" xmlns:xlink="http://www.w3.org/1999/xlink" x="0px" y="0px"
	 viewBox="0 0 200 200" style="enable-background:new 0 0 200 200;" xml:space="preserve">
<style type="text/css">
	.st0{fill:#231F20;}
</style>
<g>
	<g>
		<path class="st0" d="M162.1,81.5c-0.3-3.5-0.5-6-0.6-7.4c-0.1-2.2-0.1-11.8,0.1-13.4c0.1-1,0.2-2.7,0.3-3.7c0.1-1.1,0.1-2,0.2-2.3
			c0-0.3,0.1-0.9,0.2-1.3c0.1-0.5,0.1-1.1,0.2-1.5c0.2-1-0.2-1.8-1.3-2.5c-1.7-1.1-4.7,0.1-7,2.6c-1.2,1.4-2.5,3.3-3.2,4.9
			c-0.5,1.1-1.3,3.6-1.5,5c-0.2,1.1-1.6,6.3-2.1,7.6c-0.6,1.9-2.2,5-2.7,5.5c-0.2,0.3-0.3,0.3-1.2,0.3c-0.9,0-1.1-0.1-2-0.6
			c-2.2-1.3-3.7-2.6-5.2-4.5c0,0-0.6-0.8-1-1c0-0.3-0.2-0.6-0.5-0.7c-0.1-0.1-0.3-0.3-0.5-0.7c-0.7-0.9-3.6-4.7-4.1-5.2
			c-0.2-0.2-0.4-0.4-0.5-0.5l-0.8-1.1c-0.5-0.6-5.2-6.4-5.4-6.5c-0.1-0.1-0.5-0.6-1.1-1.3c-0.5-0.7-1.2-1.5-1.4-1.8
			c-0.6-0.7-3.1-3.6-4.4-5c-3.1-3.6-3.9-4.4-6.3-6.8c-1.5-1.4-3.3-3.3-4-4c-0.8-0.8-2-2-2.9-2.8l-1.7-1.5c-1.4-1.3-4-1.8-5.9-1.2
			c-1.1,0.3-2.2,1.2-2.8,2.1c-0.9,1.5-0.9,3.9,0,5.8c0.3,0.6,1.6,2.9,2.2,3.3c0.2,0.7,2,2.9,2,2.9c0.1,0.1,0.4,0.4,0.6,0.7
			c0.9,1.2,2.6,3.2,3.6,4.3c0.6,0.6,1.5,1.6,2,2.3c0.6,0.7,1.9,2.1,3,3.2c1.1,1.1,2.2,2.3,2.5,2.6c0.3,0.3,0.8,0.9,1.3,1.3
			c-1,0-1.5,0-2.2,0.4c-0.2,0.1-0.3,0.2-0.5,0.2c-0.5-0.7-1.7-2.1-2-2.4c-0.3-0.3-0.9-1.1-1.5-1.7c-0.6-0.7-1.2-1.4-1.4-1.6
			c-0.7-0.7-1.3-1.4-2.5-2.9c-0.2-0.3-1.2-1.5-1.3-1.6c-0.2-0.2-3.1-3.5-4.2-4.9c-6.3-7.5-9.6-10.3-12.4-10.6
			c-2.8-0.3-5.2,1.7-5.5,4.5c-0.2,1.6,0.8,4.3,2.2,6.2c0.3,0.4,0.5,0.7,0.5,0.8c0,0.1,0.1,0.4,0.6,1c0.3,0.3,1.4,1.6,2.4,2.9
			c1.1,1.3,2.7,3.3,3.6,4.5c2.5,3.1,2.8,3.4,5.8,7.2l2.3,2.9l-0.2,0c-0.5,0.1-1.1,0.3-1.4,0.5c-0.1-0.2-0.3-0.4-0.4-0.5
			c-0.4-0.4-3-3.5-3.7-4.5c-0.4-0.5-1.1-1.4-1.6-2c-0.5-0.5-1.7-2-2.6-3.2c-2.7-3.4-5.8-6.7-7.2-7.8c-1.2-1-2.5-1.4-4-1.4
			c-1.2,0-1.6,0.1-2.3,0.7c-0.4,0.4-1,1-1.3,1.5c-0.4,0.8-0.5,1.3-0.4,2.6c0.1,1.3,0.2,1.9,0.9,3.3c0.4,0.9,1,2,1.3,2.4
			c1.1,1.6,2.6,3.5,2.9,3.8c0.1,0.2,0.5,0.6,0.7,0.9c0.8,1.1,3.1,4.2,3.8,5c0.4,0.4,0.9,1.1,1.3,1.5c0.2,0.2,0.6,0.8,0.8,0.9
			c0.1,0.1,0.3,0.4,0.7,0.8c0.8,1.1,2.5,3,3.3,4c0.2,0.2,0.3,0.4,0.3,0.5c-0.2,0.3-0.8,0.9-1.5,1.8c-0.5,0.6-1,1.2-1.2,1.4
			c-0.3-0.2-1.3-1.3-2.8-2.9c-1.2-1.3-2.7-2.8-3.1-3.1c-1.1-0.8-2.2-1.1-3.3-1c-1.2,0.2-1.9,0.7-2.7,1.8c-0.6,0.8-0.6,1.2-0.6,2.5
			c0,1.3,0.1,1.8,0.6,2.8c0.8,1.9,3.2,5.2,5.1,7.2c0.5,0.5,0.5,0.5-0.8,2.1c-1.6,2.1-1.7,2.2-4.5,5.9c-1.5,1.9-2.8,3.8-3,4.1
			c-0.2,0.3-0.6,0.9-1,1.3c-0.3,0.4-1.6,2.2-2.8,4c-2.5,3.5-4.1,6-4.7,7c-0.2,0.3-0.5,0.9-0.7,1.2c-0.6,1-1.2,2-1.5,2.6
			c-0.2,0.3-0.4,0.6-0.5,0.7c-0.5,0.5-2.3,5.1-2.7,6.1c-0.4,1.4-0.5,1.7-0.7,3.3c-0.1,0.7-0.3,1.7-0.3,2.3c-0.2,1.3-0.5,4.8-0.9,9.7
			c-0.1,2-0.2,3.3-0.4,4c-0.1,0.3-0.1,0.8-0.2,1.1c0,0.2-0.1,0.5-0.1,0.6c-0.1,0.2-0.3,1-0.6,1.9c-0.7,2-2.1,5.5-3.3,8
			c-2.8,5.7-2.9,5.9-2.8,6.7c0.1,0.7,0.7,0.9,1.1,0.9c0.8,0.1,1.1-0.2,1.5-1c0.5-1,1.3-2.4,1.9-3.4c3.4-6.1,3.4-6.5,3.4-6.8
			c0,0,0-0.1,0-0.1c0.4-0.4,1.4-3.6,1.7-4.8c0.7-2.6,0.8-3.4,1.3-11.6c0.3-5.5,0.8-8.3,1.7-11.2c0.8-2.5,1.7-4.3,5-10
			c0.1-0.2,0.7-1.1,1.2-1.8c0.5-0.8,1-1.5,1.1-1.7c0.1-0.1,0.8-1.2,1.7-2.4c0.9-1.2,1.8-2.5,2-2.9c0.2-0.4,0.4-0.6,0.5-0.7
			c0.2-0.1,0.6-0.7,0.9-1.1c0.3-0.5,1.5-2.1,2.6-3.5c1.1-1.4,2.5-3.3,3.2-4.3c0.7-0.9,1.8-2.4,2.4-3.2c0.7-0.9,2-2.5,2.9-3.7
			c0.9-1.2,1.7-2.3,1.9-2.4c0.3-0.3,1.6-1.9,1.7-2.2c0-0.1,0.3-0.4,0.6-0.7c0.7-0.8,0.8-0.8,1.9-2.2c0.4-0.5,0.7-0.9,0.8-1
			c0.1-0.1,1-1.4,1.4-1.9l2.4-3.2c1.1-1.5,2.4-2.5,3.6-2.8c0.7-0.2,0.8-0.2,1.6,0.2c0.6,0.3,1,0.7,1.2,1.2c0.4,1,0.1,2.4-0.7,4
			c-0.3,0.7-0.7,1.4-0.8,1.5c-0.2,0.2-15.8,23.4-15.4,24.9c0.1,0.2,0.2,0.8,0.8,0.9c0.7,0.1,1.2-0.5,3.1-3.4c1-1.5,2.3-3.5,2.9-4.4
			c0.3-0.4,1.1-1.6,1.2-1.8c0.2-0.3,2.9-4.4,6.9-10.5c1.1-1.7,3-4.5,4.1-6.2c2.7-4.2,4.8-7,6.8-8.9c2.5-2.5,3.7-2.7,5.2-2.2
			c0.9,0.3,1,0.5,0.9,1.4c-0.2,1.8-2.2,5.4-7.7,13.7c-3.1,4.7-4.9,7.7-9.7,15.9l-1.4,2.3c-0.1,0.2-1,1.6-1.9,3.2
			c-0.2,0.3-1.8,3-1.9,3.5c-0.1,0.4,0.1,0.9,0.5,1.2c0.1,0.1,0.4,0.4,0.8,0.3c0.5-0.1,0.9-0.6,1.8-2.2c0.8-1.4,3.6-5.9,4.2-7
			c0.1-0.2,1.3-2.1,2.6-4.4c3.7-6.1,11-17.8,11.9-18.9c6.1-8.1,9-10.4,11.4-9.3c0.9,0.4,1.3,1,1.3,2.2c0,0.9-0.5,2.8-1,3.7
			c-0.1,0.2-0.2,0.5-0.2,0.7c-0.1,0.8-3.9,7.6-5.7,10.1c-0.4,0.5-0.8,1.2-0.9,1.5c-0.1,0.2-1.1,1.8-2.4,3.8
			c-0.4,0.6-0.6,0.9-0.6,1.1c0,0.1-0.2,0.3-0.4,0.5c-0.3,0.3-1.2,1.7-2,3.1l-2.4,4c-1.3,2.2-2.2,3.5-2.8,4.6c-0.3,0.5-1.1,1.8-1.9,3
			c-3.4,5.4-3.8,6.6-3.4,7.3c0.1,0.2,0.4,0.5,0.9,0.5c0.5,0,1.2-0.4,2.8-3.1c0.3-0.6,0.8-1.3,0.9-1.5c0.2-0.3,0.6-0.9,1-1.5
			c2.4-3.8,2.9-4.6,2.9-4.7c0.1-0.1,0.5-0.8,1.1-1.7c0.6-0.9,1.3-2,1.6-2.5c0.3-0.6,0.6-1,0.6-1c0,0,1.5-2.1,1.7-2.8l0,0
			c0-0.1,0.3-0.5,0.7-1.1c0.7-1,2.8-4.3,3.4-5.3c0.1-0.2,0.5-0.8,0.9-1.4c0.4-0.6,1.3-2,2-3.2c1.8-3.1,3.7-4.8,5.6-5
			c0.7-0.1,1.4,0.2,2,1c0.9,1,1,1.9,0.5,3.8c-0.6,2.1-3.5,7.9-6.6,13.5c-0.6,1.1-1.6,2.8-2,3.7c-1,1.9-1.9,3.5-2.5,4.7
			c-0.3,0.5-0.9,1.6-1.4,2.5c-0.5,1-1,1.9-1.2,2.1c-0.3,0.4-0.4,0.6-0.4,0.8c-0.1,0.2-0.6,1.1-1.3,2.4c-0.8,1.3-1.7,3-2.1,3.8
			c-0.4,0.8-0.7,1.3-0.7,1.3c-0.3,0.2-4.2,7.7-4.6,8.9l0,0c0,0-0.1,0.1-0.2,0.2c-0.3,0.4-1.7,3.4-2.4,5c-0.5,1.3-0.6,1.4-0.9,2.1
			c-0.1,0.2-0.7,1.8,0.1,2.3c0.2,0.1,0.5,0.2,0.8,0.1c0.5-0.2,0.9-0.7,1.3-1.7c0.3-0.7,0.5-1.1,0.5-1.2c0.3-0.2,1.4-1.9,1.5-1.9
			c1.5-2.2,2.9-3.6,7.5-7.9c3.4-3.2,7-5.9,9.1-6.9c1.2-0.6,1.9-0.9,2.1-0.9c0.3,0,1-0.3,1.2-0.4c0.8-0.4,2.7-0.6,3.5-0.3
			c1.1,0.4,0.9,1,0.9,1.2c-0.2,0.9-0.9,1.8-3,4c-4,4.2-9.7,12.3-14,20.2c-4.4,7.9-8,12.2-12.9,15.5c-1.9,1.3-3.5,2-7.2,3.4
			c-8.5,3.2-11.7,4.7-15.1,7.3c-1.7,1.3-4.2,4.1-4.9,5.6c-0.1,0.2-0.4,0.7-0.6,0.9c-0.3,0.5-0.4,1.2-0.2,1.7
			c0.1,0.4,0.4,0.6,0.8,0.7c0.1,0,0.2,0,0.2,0c0.7,0,1.6-0.7,1.8-1.4c0-0.1,0.2-0.4,0.4-0.6c0.2-0.3,0.6-0.7,0.9-1.1
			c0.2-0.3,1.1-1.3,2.1-2.2c2.5-2.5,5.3-4.2,10.1-6.1c1.1-0.4,2.2-0.9,2.5-1c0.3-0.1,0.5-0.2,0.6-0.2c0.2,0,0.5-0.1,0.8-0.2
			c0.1-0.1,0.8-0.3,1.6-0.6c2-0.7,7.7-3.5,8.5-4.5c1-0.3,4.3-3.7,4.4-3.7c2.9-3,4.8-5.8,8.1-11.7c1-1.8,2.1-3.7,2.3-4.1
			c0.3-0.5,0.4-0.7,0.5-0.9c0.1-0.2,0.6-0.9,1.3-2c0.3-0.5,0.8-1.2,1-1.5c1,0.8,3,1.5,6.6,2.4c2.8,0.7,4.7,1.4,6.6,2.6
			c1.4,0.8,1.6,0.8,1.7,0.8c0.5,0,0.8-0.6,0.9-0.9c0.2-0.5,0.1-0.9-0.1-1.1c-2.6-2.2-5.2-3.3-10.5-4.5c-1.2-0.3-3.1-1-3.8-1.4
			c0.3-0.5,1-1.5,1.9-2.9c2.3-3.2,4.4-5.8,6.5-7.8c0.8-0.7,1.6-1.8,2-2.3c0.6-0.9,0.8-1.3,0.7-2.2c0-2.1-0.5-2.9-2.1-3.6
			c-1.9-0.7-2.4-0.7-5.3,0.3c-5.6,1.8-8.8,4-15.1,10.2c-0.5,0.5-0.9,0.9-1.3,1.3c1-1.9,2.3-4.3,2.9-5.3c0.7-1.2,1.5-2.8,2-3.5
			c0.6-1.2,1.6-2.9,2.2-3.9c0.1-0.2,0.4-0.8,0.7-1.3c0.3-0.6,0.5-0.9,0.5-0.9c0.1-0.1,0.2-0.2,1.1-1.9c1.2-2.3,2.1-3.9,2.6-4.7
			c0.2-0.4,1.2-2.1,2.1-3.8c0.9-1.7,1.8-3.3,2-3.6c3.2-5.7,5.7-10.6,6-12.2c0.5-2.4-0.1-4.9-1.6-6.3c-1.4-1.4-3.3-1.7-5.2-0.9
			c0.2-0.5,0.5-1.1,0.9-1.8l1.4-3l0-1.9c0-0.5,0-0.9,0-1.2c1.2,1.5,2.4,3,3.1,3.9c1.1,1.4,2.3,2.9,2.7,3.3c0.4,0.5,1.1,1.4,1.6,2
			c0.5,0.7,1.7,1.9,2.6,2.8c2.2,2.1,4.2,3.3,5.8,3.4c-0.2,0.4-0.6,0.9-1,1.5c-1.7,2.4-3.1,5.4-4.2,8.4c-0.7,2.2-0.9,2.5-0.3,3
			c0.3,0.3,0.7,0.4,1,0.3c0.6-0.1,1-0.8,1.4-2c1.4-3.5,2.3-5.1,6.3-10.9c0.9-1.3,2-3.1,2.5-4c0.9-1.8,2.3-5.7,3.2-9.1
			c0.9-3.3,1-3.9,1.6-5.7c0.6-1.9,2-4.5,3.1-5.8c1.4-1.6,3.4-2.4,3.9-2c0.1,0.2-0.2,1.8-0.4,2.6c-0.1,0.5-0.2,1.5-0.6,4.9
			c-0.4,3.6-0.6,10.7-0.3,16.1c0.1,2.8,0.5,7.3,0.6,8c0.3,1.4,0.5,11.3,0.2,13.9c-0.1,1.3-0.6,5-0.8,5.9c-0.3,1.7-0.7,3.5-1.1,5
			c-0.3,1-0.5,1.9-0.6,2.1c0,0.2-0.4,1.4-0.8,2.8c-0.3,0.9-0.8,2.7-0.8,3.1c0,0.2,0,0.5,0.2,0.7c0.3,0.2,0.6,0.2,0.9,0.2
			c0.9-0.1,1-0.3,1.9-3c0.6-1.9,0.8-2.5,0.9-2.8c0,0,0.1-0.2,0.2-0.4c0.1-0.2,0.3-0.6,0.2-0.9c0.1-0.2,0.3-0.5,0.3-0.7
			c0-0.2,0.1-0.4,0.1-0.6c0.5-1.4,0.9-3.4,1.2-5.1c0.1-0.4,0.2-1.1,0.3-1.5c0.1-0.4,0.2-1.3,0.3-1.9c0.1-0.6,0.2-1.3,0.2-1.5
			c0.2-0.9,0.3-3.7,0.3-6.8C162.6,88.8,162.5,86.8,162.1,81.5z M120.3,58.6c-1.3,0.3-3.8,1.8-4.6,2.8c-0.2-0.2-0.5-0.5-0.8-0.9
			l-0.3-0.3c-0.5-0.6-2.2-2.4-3.8-4.1c-1.6-1.7-3.2-3.5-3.7-4c-1-1.2-1.3-1.5-2.9-3.2c-0.7-0.8-1.9-2.1-2.6-3
			c-0.5-0.6-1.4-1.7-1.5-1.8c-0.2-0.2-1.5-2.1-2.6-3.7c-1.9-2.8-2.6-4.8-2.3-6c0.1-0.6,0.5-1,1.2-1.3c0.4-0.2,1-0.4,1.3-0.4
			c0.8,0,2.5,0.8,4,2.1c1.5,1.4,9.3,9.2,10.8,10.9c0.8,0.9,1.6,1.8,1.9,2c0.3,0.3,0.7,0.8,1.1,1.3c0.4,0.5,1,1.2,1.4,1.6
			c0.4,0.4,0.8,0.8,0.8,0.9c0.2,0.3,1.1,1.3,1.5,1.8c0.7,0.8,1.7,1.9,2.2,2.6c0.4,0.5,1.4,1.7,2.5,3
			C122.6,58.5,121.4,58.4,120.3,58.6z M80.7,36.8c0.3-0.2,0.6-0.3,0.9-0.3c0.4,0,0.9,0.2,1.7,0.5c0.9,0.4,1.9,1.1,2.9,2.1
			c0.3,0.3,0.7,0.7,1,0.9c0.5,0.4,0.9,1,2,2.2c0.4,0.4,1.3,1.5,2.1,2.4c2.2,2.5,3,3.5,4.5,5.2c0.8,0.9,1.9,2.2,2.5,2.9
			c0.6,0.7,2.1,2.4,3.3,3.8c1.2,1.4,2.6,3,3.1,3.6l0.6,0.7l-0.1,0.1c-1,0.8-3,3.2-4.5,5.5c-0.2,0.2-0.4,0.6-0.7,1
			c-0.2-0.8-0.7-1.6-1.6-2.5c-0.6-0.7-1.4-1.6-1.7-1.9c-0.3-0.4-2.6-3.3-5.2-6.5c-9.6-12-10.1-12.7-11-14.5c-0.5-1.1-1-2.9-1-3.4
			C79.5,38,80.1,37.1,80.7,36.8z M83,66.5c-0.3-0.4-0.9-1.1-1.3-1.5c-0.4-0.4-1.4-1.7-2.2-2.8c-0.8-1.1-1.7-2.3-2-2.6
			c-0.1-0.2-0.2-0.3-0.3-0.4c0-0.1-0.1-0.4-0.5-0.8c-0.8-0.9-1.5-1.8-1.7-2.1c-0.1-0.3-0.4-0.6-0.5-0.7c-0.1-0.1-0.3-0.3-0.4-0.6
			c-0.1-0.3-0.7-1.3-1.2-2.3c-0.9-1.6-0.9-1.7-0.9-2.9c0-1.2,0-1.3,0.3-1.7c0.3-0.4,0.6-0.6,2.2,0c0.9,0.3,1.2,0.5,2.8,2.1
			c2.3,2.3,2.7,2.9,2.8,3.1c0,0.2,0.1,0.4,0.7,0.8c0.1,0.1,0.2,0.2,0.2,0.2c0,0.2,0.2,0.5,0.9,1.3c0.4,0.4,1.3,1.4,1.9,2.2
			c0.1,0.1,1.1,1.4,1.3,1.5c0.1,0.1,0.2,0.2,0.3,0.4c0.2,0.3,0.8,0.9,1.2,1.5c0.5,0.6,1.1,1.3,1.3,1.6c0.3,0.3,1,1.2,1.7,2
			c0.5,0.5,0.7,0.8,0.8,0.9c-0.4,0.4-0.9,1-1.1,1.4c-0.5,0.7-1.1,1.4-1.1,1.5c-0.1,0.1-0.6,0.8-1.2,1.5l-0.7,0.9L86,70.4
			c-0.4-0.5-0.7-0.8-0.8-1c-0.1-0.2-0.3-0.5-0.8-1.2L83,66.5z M80.9,77.7l-0.9,1.2c-0.7,0.8-1.4,1.8-1.7,2.1
			c-0.4,0.5-0.6,0.8-0.8,0.9c-0.7-0.8-2.5-3.2-3.3-4.5c-0.9-1.4-1.5-3.1-1.5-3.9c0-0.6,0.3-1.2,0.8-1.5c0.2-0.1,0.4-0.2,0.6-0.2
			c0.3,0,0.6,0.1,1.1,0.5c0.3,0.2,1.8,1.5,3.4,3.1L80.9,77.7z"/>
		<path class="st0" d="M158,118.4c-0.4-0.1-0.6,0.1-0.9,0.3c-0.8,0.6-0.6,2.1,0.4,3.7c0.8,1.3,1.2,1.3,1.4,1.3c0.5,0,0.9-0.7,1-0.8
			c0.4-0.7,0.2-1-0.4-2.3C158.6,118.9,158.4,118.5,158,118.4z"/>
		<path class="st0" d="M140.4,136c-1.5-1.5-2-1.9-2.9-1.6c-0.4,0.2-0.5,0.6-0.5,1c0,0.8,1.7,2.5,2.6,3.2c0.5,0.3,1,0.5,1.4,0.5
			c0.2,0,0.3,0,0.4-0.1c0.3-0.1,0.5-0.3,0.6-0.7C142.2,137.9,141.9,137.4,140.4,136z"/>
		<path class="st0" d="M43.7,157.9c-0.3-0.1-0.6,0-0.8,0.2l0,0c-0.3,0.2-0.7,0.9-0.8,1.3c-0.4,0.9-0.5,1.7-0.3,2.3
			c0.1,0.3,0.4,0.5,0.7,0.5c0,0,0.1,0,0.1,0c0.4,0,0.9-0.3,1.3-0.9c0.4-0.6,1.1-2,0.6-2.7C44.3,158.1,44,157.9,43.7,157.9z
			 M43.2,158.4L43.2,158.4L43.2,158.4L43.2,158.4z"/>
		<path class="st0" d="M72.1,170.8c-0.3-0.1-0.7,0-1.2,0.7v0c-0.7,1.1-1.5,2.5-1.1,3.3c0.2,0.3,0.5,0.5,0.8,0.5c1,0,2-2.2,2.1-3.1
			C72.7,171.2,72.4,170.9,72.1,170.8z"/>
	</g>
	<g>
		<path class="st0" d="M144.7,34l-1.5-0.3h0c-3.5-0.8-6.3-3.6-7.2-7.2l-0.3-1.5c-0.1-0.5-0.5-0.8-1-0.8c-0.5,0-0.9,0.3-1,0.7
			l-0.5,1.9c-0.9,3.1-3.3,5.6-6.5,6.5l-1.9,0.5c-0.4,0.1-0.7,0.5-0.7,1c0,0.5,0.3,0.8,0.8,1l1.5,0.3c3.5,0.8,6.3,3.6,7.2,7.2
			l0.3,1.5c0.1,0.5,0.5,0.8,1,0.8c0,0,0,0,0,0c0.5,0,0.8-0.3,1-0.7l0.5-1.9c0.9-3.1,3.3-5.6,6.5-6.5l1.9-0.5c0.4-0.1,0.7-0.5,0.7-1
			S145.2,34.1,144.7,34z"/>
		<path class="st0" d="M124.6,160.8l-1-0.2h0c-2.3-0.5-4.1-2.4-4.7-4.7l-0.2-1c-0.1-0.4-0.4-0.6-0.8-0.6c-0.4,0-0.7,0.2-0.8,0.6
			l-0.4,1.2c-0.6,2-2.2,3.6-4.2,4.2l-1.2,0.4c-0.4,0.1-0.6,0.4-0.6,0.8c0,0.4,0.3,0.7,0.6,0.8l1,0.2c2.3,0.5,4.1,2.4,4.7,4.7l0.2,1
			c0.1,0.4,0.4,0.6,0.8,0.6c0,0,0,0,0,0c0.4,0,0.7-0.2,0.8-0.6l0.4-1.2c0.6-2,2.2-3.6,4.2-4.2l1.2-0.4c0.4-0.1,0.6-0.4,0.6-0.8
			S125,160.9,124.6,160.8z"/>
		<path class="st0" d="M51.7,83l-1-0.2c-2.5-0.6-4.4-2.5-5-5l-0.2-1c-0.1-0.4-0.4-0.7-0.8-0.7c-0.4,0-0.7,0.2-0.9,0.6L43.3,78
			c-0.6,2.2-2.3,3.9-4.5,4.5L37.4,83c-0.4,0.1-0.6,0.5-0.6,0.9c0,0.4,0.3,0.7,0.7,0.8l1,0.2c2.5,0.6,4.4,2.5,5,5l0.2,1
			c0.1,0.4,0.4,0.7,0.8,0.7c0,0,0,0,0,0c0.4,0,0.7-0.2,0.8-0.6l0.4-1.3c0.6-2.2,2.3-3.9,4.5-4.5l1.3-0.4c0.4-0.1,0.6-0.5,0.6-0.9
			C52.3,83.4,52,83.1,51.7,83z"/>
	</g>
</g>
</svg>
