<?xml version="1.0" encoding="utf-8"?>
<!-- Generator: Adobe Illustrator 25.2.1, SVG Export Plug-In . SVG Version: 6.00 Build 0)  -->
<svg version="1.1" id="Layer_1" xmlns="http://www.w3.org/2000/svg" xmlns:xlink="http://www.w3.org/1999/xlink" x="0px" y="0px"
	 viewBox="0 0 50 50" style="enable-background:new 0 0 50 50;" xml:space="preserve">
<style type="text/css">
	.st0{fill:#000000;}
</style>
<path class="st0" d="M40,50H10C4.5,50,0,45.5,0,40V10C0,4.5,4.5,0,10,0h30c5.5,0,10,4.5,10,10v30C50,45.5,45.5,50,40,50z"/>
<g>
	<path style="fill:#FFFFFF;" d="M20.5,9.8c-0.5,0-1.1,2.3-1.5,3.5c-1.7,5-2.8,10.1-3.6,15.3c-0.6,3.6-1.1,7.2-1.6,10.8c-0.1,0.6-0.3,1.3-1,1.3
		c-0.7,0-1-0.6-1.1-1.1c-0.4-1.9-0.9-3.8-1.1-5.7c-0.4-4-1-14.3-1-15.5c0-0.6,0.3-0.9,0.9-1c0.6-0.1,0.9,0.3,1,0.8
		c0.1,0.7,0.2,1.4,0.3,2.1c0.4,4.9,1.2,15.3,1.4,15.6c0.3-1.8,0.6-3.6,1-5.4c1.1-6.1,2.1-12.2,3.9-18.1c0.3-1.1,0.8-2.2,1.3-3.3
		c0.3-0.6,0.8-1.2,1.6-1.2c0.8,0,1.3,0.6,1.5,1.3c0.5,1.6,1,3.3,1.2,5c0.5,3.9,0.8,7.9,1.1,11.8c0,0.4,0.1,0.7,0.3,1.1
		c0.2-0.7,0.4-1.5,0.7-2.2c2-6.7,4.4-13.2,8.1-19.1c0.6-0.9,1.3-1.7,2.1-2.5c1.3-1.2,2.8-0.9,3.6,0.7c0.9,1.9,0.9,3.9,0.8,5.9
		c-0.4,5.3-0.9,10.7-1.2,16c-0.4,5.7-0.6,11.4-0.8,17.1c0,1.2,0,2.5,0.8,3.5c0.4,0.5-0.1,1.1-0.7,1c-1.7-0.4-2-3.3-2-4.5
		c-0.1-6.4-0.1-12.7,0.4-19.1c0.4-5.5,0.8-10.9,1.1-16.4c0-0.8,0-1.7-0.3-2.3c-0.2-0.6-0.5-0.8-0.9-0.3c-0.6,0.6-1.2,1.1-1.7,1.8
		c-2.7,3.7-4.5,7.8-5.9,12C28,22,27,25.5,26,28.9c-0.2,0.5-0.3,1.1-0.5,1.6c-0.4,0.8-1.2,0.8-1.6,0.1c-0.4-0.8-0.6-1.6-0.7-2.5
		c-0.4-3.6-0.7-7.3-1.1-10.9c-0.2-2.1-0.5-4.1-0.8-6.2C21.2,10.6,20.9,9.8,20.5,9.8z"/>
</g>
</svg>
