<svg xmlns="http://www.w3.org/2000/svg" viewBox="0 0 250 250"><defs><style>.a{fill:#231f20;}</style></defs><path class="a" d="M80.3,86.59a2.5,2.5,0,0,1-2.5-2.5V38.64a2.5,2.5,0,0,1,5,0V84.09A2.5,2.5,0,0,1,80.3,86.59Z"/><path class="a" d="M80.3,63.86a2.49,2.49,0,0,1-1.77-.73L64.89,49.49A2.5,2.5,0,1,1,68.43,46L80.3,57.83,92.16,46a2.5,2.5,0,1,1,3.54,3.53L82.06,63.13A2.48,2.48,0,0,1,80.3,63.86Z"/><path class="a" d="M68.16,93.41a2.45,2.45,0,0,1-1.25-.34L27.54,70.35A2.5,2.5,0,0,1,30,66L69.41,88.74a2.5,2.5,0,0,1-1.25,4.67Z"/><path class="a" d="M29.85,87a2.5,2.5,0,0,1-.65-4.92l16.22-4.34L41.07,61.56a2.5,2.5,0,0,1,4.83-1.29l5,18.63A2.49,2.49,0,0,1,49.12,82L30.5,87A2.48,2.48,0,0,1,29.85,87Z"/><path class="a" d="M90.89,93.41a2.5,2.5,0,0,1-1.25-4.67L129,66a2.5,2.5,0,1,1,2.5,4.33L92.14,93.07A2.5,2.5,0,0,1,90.89,93.41Z"/><path class="a" d="M129.2,87a2.43,2.43,0,0,1-.65-.09l-18.63-5a2.49,2.49,0,0,1-1.77-3.06l5-18.63A2.5,2.5,0,0,1,118,61.56l-4.35,16.22,16.21,4.34A2.5,2.5,0,0,1,129.2,87Z"/><path class="a" d="M80.3,159.32a2.5,2.5,0,0,1-2.5-2.5V111.36a2.5,2.5,0,0,1,5,0v45.46A2.5,2.5,0,0,1,80.3,159.32Z"/><path class="a" d="M93.93,148a2.49,2.49,0,0,1-1.77-.73L80.3,135.35,68.43,147.22a2.5,2.5,0,0,1-3.54-3.53l13.64-13.64a2.49,2.49,0,0,1,3.53,0L95.7,143.69A2.5,2.5,0,0,1,93.93,148Z"/><path class="a" d="M28.8,127.5a2.5,2.5,0,0,1-1.26-4.67l39.37-22.72a2.5,2.5,0,1,1,2.5,4.33L30,127.17A2.53,2.53,0,0,1,28.8,127.5Z"/><path class="a" d="M43.49,134.76a2.41,2.41,0,0,1-.65-.08,2.5,2.5,0,0,1-1.77-3.06l4.35-16.22L29.2,111.06a2.5,2.5,0,1,1,1.3-4.83l18.62,5a2.5,2.5,0,0,1,1.77,3.06l-5,18.63A2.49,2.49,0,0,1,43.49,134.76Z"/><path class="a" d="M130.25,127.5a2.6,2.6,0,0,1-1.25-.33L89.64,104.44a2.5,2.5,0,1,1,2.5-4.33l39.36,22.72a2.5,2.5,0,0,1-1.25,4.67Z"/><path class="a" d="M115.56,134.76a2.49,2.49,0,0,1-2.41-1.85l-5-18.63a2.5,2.5,0,0,1,1.77-3.06l18.63-5a2.5,2.5,0,1,1,1.29,4.83l-16.21,4.34L118,131.62a2.51,2.51,0,0,1-1.77,3.06A2.46,2.46,0,0,1,115.56,134.76Z"/><rect class="a" x="203.02" y="49.77" width="18.18" height="5"/><rect class="a" x="203.02" y="77.05" width="18.18" height="5"/><rect class="a" x="203.02" y="104.32" width="18.18" height="5"/><rect class="a" x="203.02" y="131.59" width="18.18" height="5"/><path class="a" d="M175.75,227.5a29.76,29.76,0,0,1-16.14-54.77V38.64a16.14,16.14,0,1,1,32.28,0V172.73a29.76,29.76,0,0,1-16.14,54.77Zm0-200a11.16,11.16,0,0,0-11.14,11.14V175.57l-1.24.73a24.77,24.77,0,1,0,24.76,0l-1.24-.73V38.64A11.16,11.16,0,0,0,175.75,27.5Z"/></svg>