<svg xmlns="http://www.w3.org/2000/svg" viewBox="0 0 250 250"><defs><style>.a{fill:#231f20;}</style></defs><path class="a" d="M84.2,131A26.23,26.23,0,0,1,58,104.76c0-26.1,23.6-45.7,24.6-46.5a2.43,2.43,0,0,1,3.2,0c1,.8,24.6,20.4,24.6,46.5A26.29,26.29,0,0,1,84.2,131Zm0-67.5C79,68.26,63,84.76,63,104.76a21.2,21.2,0,0,0,42.4,0C105.4,84.76,89.4,68.26,84.2,63.46Z"/><path class="a" d="M89.8,117.56a2.51,2.51,0,0,1-2.2-1.2,2.47,2.47,0,0,1,.9-3.4,10.88,10.88,0,0,0,5.4-9.4,2.5,2.5,0,0,1,5,0,15.83,15.83,0,0,1-7.9,13.7A2.13,2.13,0,0,1,89.8,117.56Z"/><path class="a" d="M125,217.86a43.28,43.28,0,0,1-43.2-43.2,42.7,42.7,0,0,1,7.2-23.8H25a2.5,2.5,0,0,1,0-5H94a2.53,2.53,0,0,1,2.3,1.5,2.46,2.46,0,0,1-.4,2.7,38.2,38.2,0,1,0,58.2,0,2.63,2.63,0,0,1-.4-2.7,2.53,2.53,0,0,1,2.3-1.5h69a2.5,2.5,0,0,1,0,5H161a42.7,42.7,0,0,1,7.2,23.8A43.21,43.21,0,0,1,125,217.86Z"/><path class="a" d="M125,198.26a23.6,23.6,0,0,1-8.3-45.7c5-30.9,20.7-86,69.8-120a2.62,2.62,0,0,1,3.4.5,2.59,2.59,0,0,1-.2,3.4c-40.4,38-50.9,89.2-53.5,117.4a23.62,23.62,0,0,1-11.2,44.4Zm37.7-137.5c-27.6,31.8-37.6,70.8-41.2,94.2a2.33,2.33,0,0,1-1.8,2,18.63,18.63,0,1,0,12.9.8,2.42,2.42,0,0,1-1.5-2.5C132.9,133,139.6,95.26,162.7,60.76Z"/><path class="a" d="M191.4,87a2.57,2.57,0,0,1-1.8-.7,2.42,2.42,0,0,1,0-3.5l2.1-2.1a2.47,2.47,0,0,1,3.5,3.5l-2.1,2.1A2.41,2.41,0,0,1,191.4,87Z"/><path class="a" d="M202.7,75.56a2.57,2.57,0,0,1-1.8-.7,2.42,2.42,0,0,1,0-3.5l2.1-2.1a2.47,2.47,0,0,1,3.5,3.5l-2.1,2.1A2.06,2.06,0,0,1,202.7,75.56Z"/><path class="a" d="M204.8,87a2.57,2.57,0,0,1-1.8-.7l-2-2.2a2.47,2.47,0,0,1,3.5-3.5l2.1,2.1a2.42,2.42,0,0,1,0,3.5A2.5,2.5,0,0,1,204.8,87Z"/><path class="a" d="M193.5,75.56a2.57,2.57,0,0,1-1.8-.7l-2.1-2.1a2.47,2.47,0,0,1,3.5-3.5l2.1,2.1a2.42,2.42,0,0,1,0,3.5A2.06,2.06,0,0,1,193.5,75.56Z"/><path class="a" d="M171.9,122.66a2.57,2.57,0,0,1-1.8-.7l-.7-.7a2.47,2.47,0,0,1,3.5-3.5l.7.7a2.42,2.42,0,0,1,0,3.5A2.19,2.19,0,0,1,171.9,122.66Z"/><path class="a" d="M181.3,132.06a2.57,2.57,0,0,1-1.8-.7l-.7-.7a2.42,2.42,0,0,1,0-3.5,2.5,2.5,0,0,1,3.5,0l.7.7a2.42,2.42,0,0,1,0,3.5A2.61,2.61,0,0,1,181.3,132.06Z"/><path class="a" d="M171.3,132.06a2.57,2.57,0,0,1-1.8-.7,2.42,2.42,0,0,1,0-3.5l.7-.7a2.42,2.42,0,0,1,3.5,0,2.5,2.5,0,0,1,0,3.5l-.7.7A2.84,2.84,0,0,1,171.3,132.06Z"/><path class="a" d="M180.6,122.66a2.57,2.57,0,0,1-1.8-.7,2.42,2.42,0,0,1,0-3.5l.7-.7a2.47,2.47,0,0,1,3.5,3.5l-.7.7A2.06,2.06,0,0,1,180.6,122.66Z"/><path class="a" d="M112.5,58a2.57,2.57,0,0,1-1.8-.7,2.42,2.42,0,0,1,0-3.5l2.1-2.1a2.47,2.47,0,0,1,3.5,3.5l-2.1,2.1A2.19,2.19,0,0,1,112.5,58Z"/><path class="a" d="M123.8,46.66A2.57,2.57,0,0,1,122,46a2.42,2.42,0,0,1,0-3.5l2.1-2.1a2.42,2.42,0,0,1,3.5,0,2.5,2.5,0,0,1,0,3.5L125.5,46A2.61,2.61,0,0,1,123.8,46.66Z"/><path class="a" d="M125.9,58a2.57,2.57,0,0,1-1.8-.7l-2.1-2.1a2.47,2.47,0,0,1,3.5-3.5l2.1,2.1a2.42,2.42,0,0,1,0,3.5A2.19,2.19,0,0,1,125.9,58Z"/><path class="a" d="M114.6,46.66a2.57,2.57,0,0,1-1.8-.7l-2.1-2.1a2.47,2.47,0,0,1,3.5-3.5l2.1,2.1a2.42,2.42,0,0,1,0,3.5A2.61,2.61,0,0,1,114.6,46.66Z"/><path class="a" d="M35.1,78a2.57,2.57,0,0,1-1.8-.7l-.7-.7a2.47,2.47,0,0,1,3.5-3.5l.7.7a2.42,2.42,0,0,1,0,3.5A2.84,2.84,0,0,1,35.1,78Z"/><path class="a" d="M44.4,87.26a2.57,2.57,0,0,1-1.8-.7L42,86a2.47,2.47,0,0,1,3.5-3.5l.7.7a2.42,2.42,0,0,1,0,3.5A2.79,2.79,0,0,1,44.4,87.26Z"/><path class="a" d="M34.4,87.26a2.57,2.57,0,0,1-1.8-.7,2.42,2.42,0,0,1,0-3.5l.7-.7a2.47,2.47,0,0,1,3.5,3.5l-.7.7A2.19,2.19,0,0,1,34.4,87.26Z"/><path class="a" d="M43.8,78a2.57,2.57,0,0,1-1.8-.7,2.42,2.42,0,0,1,0-3.5l.7-.7a2.47,2.47,0,0,1,3.5,3.5l-.7.7A2.61,2.61,0,0,1,43.8,78Z"/><path class="a" d="M32.9,167.86H30.3a2.5,2.5,0,0,1,0-5h2.6a2.5,2.5,0,1,1,0,5Z"/><path class="a" d="M51.3,167.86H48.7a2.5,2.5,0,1,1,0-5h2.6a2.5,2.5,0,1,1,0,5Z"/><path class="a" d="M69.7,167.86H67.1a2.5,2.5,0,0,1,0-5h2.6a2.5,2.5,0,0,1,0,5Z"/><path class="a" d="M43.4,181.06H40.8a2.5,2.5,0,0,1,0-5h2.6a2.5,2.5,0,1,1,0,5Z"/><path class="a" d="M61.8,181.06H59.2a2.5,2.5,0,1,1,0-5h2.6a2.5,2.5,0,1,1,0,5Z"/><path class="a" d="M80.3,181.06H77.7a2.5,2.5,0,1,1,0-5h2.6a2.48,2.48,0,0,1,2.5,2.5A2.54,2.54,0,0,1,80.3,181.06Z"/><path class="a" d="M32.9,194.16H30.3a2.5,2.5,0,0,1,0-5h2.6a2.5,2.5,0,1,1,0,5Z"/><path class="a" d="M51.3,194.16H48.7a2.5,2.5,0,0,1,0-5h2.6a2.5,2.5,0,0,1,0,5Z"/><path class="a" d="M69.7,194.16H67.1a2.5,2.5,0,0,1,0-5h2.6a2.5,2.5,0,1,1,0,5Z"/><path class="a" d="M43.4,207.36H40.8a2.5,2.5,0,0,1,0-5h2.6a2.5,2.5,0,1,1,0,5Z"/><path class="a" d="M61.8,207.36H59.2a2.5,2.5,0,1,1,0-5h2.6a2.5,2.5,0,1,1,0,5Z"/><path class="a" d="M80.3,207.36H77.7a2.5,2.5,0,1,1,0-5h2.6a2.48,2.48,0,0,1,2.5,2.5A2.54,2.54,0,0,1,80.3,207.36Z"/><path class="a" d="M180.3,167.86h-2.6a2.5,2.5,0,0,1,0-5h2.6a2.48,2.48,0,0,1,2.5,2.5A2.54,2.54,0,0,1,180.3,167.86Z"/><path class="a" d="M198.7,167.86h-2.6a2.5,2.5,0,0,1,0-5h2.6a2.5,2.5,0,0,1,0,5Z"/><path class="a" d="M217.1,167.86h-2.6a2.5,2.5,0,0,1,0-5h2.6a2.5,2.5,0,1,1,0,5Z"/><path class="a" d="M190.8,181.06h-2.6a2.5,2.5,0,0,1,0-5h2.6a2.5,2.5,0,0,1,0,5Z"/><path class="a" d="M209.2,181.06h-2.6a2.5,2.5,0,1,1,0-5h2.6a2.5,2.5,0,0,1,0,5Z"/><path class="a" d="M172.4,181.06h-2.6a2.5,2.5,0,0,1,0-5h2.6a2.48,2.48,0,0,1,2.5,2.5A2.54,2.54,0,0,1,172.4,181.06Z"/><path class="a" d="M180.3,194.16h-2.6a2.5,2.5,0,0,1,0-5h2.6a2.48,2.48,0,0,1,2.5,2.5A2.54,2.54,0,0,1,180.3,194.16Z"/><path class="a" d="M198.7,194.16h-2.6a2.5,2.5,0,0,1,0-5h2.6a2.5,2.5,0,0,1,0,5Z"/><path class="a" d="M217.1,194.16h-2.6a2.5,2.5,0,0,1,0-5h2.6a2.5,2.5,0,0,1,0,5Z"/><path class="a" d="M190.8,207.36h-2.6a2.5,2.5,0,0,1,0-5h2.6a2.5,2.5,0,0,1,0,5Z"/><path class="a" d="M209.2,207.36h-2.6a2.5,2.5,0,0,1,0-5h2.6a2.5,2.5,0,0,1,0,5Z"/><path class="a" d="M172.4,207.36h-2.6a2.5,2.5,0,0,1,0-5h2.6a2.48,2.48,0,0,1,2.5,2.5A2.54,2.54,0,0,1,172.4,207.36Z"/></svg>