<svg xmlns="http://www.w3.org/2000/svg" viewBox="0 0 250 250"><defs><style>.a{fill:#231f20;}</style></defs><path class="a" d="M155.1,165.5c-6.12,0-11.1,4-11.1,8.9s5,8.9,11.1,8.9,11.1-4,11.1-8.9S161.22,165.5,155.1,165.5Zm0,13.4c-3.57,0-6.7-2.1-6.7-4.5s3.07-4.5,6.7-4.5a7.79,7.79,0,0,1,5.49,1.91,3.63,3.63,0,0,1,1.21,2.59C161.8,176.84,158.73,178.9,155.1,178.9Z"/><path class="a" d="M146.75,47a34.52,34.52,0,0,0-48.7,0,34.64,34.64,0,0,0,0,48.8,34.52,34.52,0,0,0,48.7,0A34.64,34.64,0,0,0,146.75,47ZM143,92a29.14,29.14,0,0,1-41.21-41.2A29.31,29.31,0,0,1,122.4,42.2,28.9,28.9,0,0,1,143,50.75h0A29.37,29.37,0,0,1,143,92Z"/><path class="a" d="M214.5,137.6a2.68,2.68,0,0,0-2.7-2.7H136c-2.49,0-4.13,0-5.7,24.83v.13l-.07.1c-3,4.79-6.29,9.71-8,12.22l-1,1.41.06-1.71c.11-3.35.45-7.5.7-10.32l.09-.77-.34-.67c-11.87-25.22-13.43-25.22-15.25-25.22H38.2a2.68,2.68,0,0,0-2.7,2.7,2.74,2.74,0,0,0,2.7,2.7h67.27l.15.23c2,3.08,7.14,13.2,10.93,21.15l.06.13V162c-1.68,17.33-.34,18.82.46,19.71l1,.94h1.19c1.51,0,3.22,0,15.87-20.36l.35-.6.08-.7c.48-7.28,1.29-16.44,2.11-20.25l.09-.39h74.1A2.74,2.74,0,0,0,214.5,137.6Z"/><path class="a" d="M51.1,166.3c-6.12,0-11.1,4-11.1,8.9s5,8.9,11.1,8.9a12,12,0,0,0,8.58-3.22,8,8,0,0,0,2.52-5.68C62.2,170.29,57.22,166.3,51.1,166.3Zm0,13.4c-3.57,0-6.7-2.1-6.7-4.5s3.07-4.6,6.7-4.6,6.7,2.22,6.7,4.6S54.73,179.7,51.1,179.7Z"/><path class="a" d="M69.9,194.3c-6.12,0-11.1,4-11.1,9s5,8.9,11.1,8.9a12,12,0,0,0,8.6-3.2,8,8,0,0,0,2.5-5.7C81,198.34,76,194.3,69.9,194.3Zm0,13.5c-3.57,0-6.7-2.1-6.7-4.5s3.07-4.6,6.7-4.6,6.7,2.22,6.7,4.6S73.53,207.8,69.9,207.8Z"/><path class="a" d="M103.77,149.3H38.2a2.4,2.4,0,1,0,0,4.8h67.55Z"/><path class="a" d="M87.8,166.3c-6.12,0-11.1,4-11.1,8.9s5,8.9,11.1,8.9a12,12,0,0,0,8.58-3.22,8,8,0,0,0,2.52-5.68C98.9,170.29,93.92,166.3,87.8,166.3Zm0,13.4c-3.57,0-6.7-2.1-6.7-4.5s3.07-4.6,6.7-4.6,6.7,2.22,6.7,4.6S91.43,179.7,87.8,179.7Z"/><path class="a" d="M115.9,195.3c-6.12,0-11.1,4-11.1,8.9s5,8.9,11.1,8.9,11.1-4,11.1-8.9S122,195.3,115.9,195.3Zm0,13.4c-3.57,0-6.7-2.1-6.7-4.5s3.07-4.5,6.7-4.5a7.79,7.79,0,0,1,5.49,1.91,3.63,3.63,0,0,1,1.21,2.59C122.6,206.64,119.53,208.7,115.9,208.7Z"/><path class="a" d="M170.4,194.3c-6.12,0-11.1,4-11.1,9s5,8.9,11.1,8.9A12,12,0,0,0,179,209a8,8,0,0,0,2.5-5.7C181.5,198.34,176.52,194.3,170.4,194.3Zm.1,13.5c-3.57,0-6.7-2.1-6.7-4.5s3.07-4.6,6.7-4.6,6.7,2.22,6.7,4.6S174.13,207.8,170.5,207.8Z"/><path class="a" d="M119.11,72.9,108.25,83.75a2.78,2.78,0,0,0,0,3.81,2.82,2.82,0,0,0,3.81,0L122.9,76.69l10.85,10.86a2.65,2.65,0,0,0,3.7-3.8L126.59,72.9l10.86-10.85a2.71,2.71,0,0,0,.1-3.8,2.78,2.78,0,0,0-3.81,0L122.9,69.11,112.05,58.25a2.89,2.89,0,0,0-3.8,0,2.78,2.78,0,0,0,0,3.8Z"/><path class="a" d="M190.9,165.5c-6.12,0-11.1,4-11.1,8.9s5,8.9,11.1,8.9,11.1-4,11.1-8.9S197,165.5,190.9,165.5Zm0,13.4c-3.57,0-6.7-2.1-6.7-4.5s3.07-4.5,6.7-4.5a7.79,7.79,0,0,1,5.49,1.91,3.63,3.63,0,0,1,1.21,2.59C197.6,176.84,194.53,178.9,190.9,178.9Z"/><path class="a" d="M211.8,148.9H143.2v4.7h68.6a2.41,2.41,0,0,0,2.4-2.4A2.32,2.32,0,0,0,211.8,148.9Z"/></svg>