<svg xmlns="http://www.w3.org/2000/svg" viewBox="0 0 250 250"><defs><style>.a{fill:#231f20;}</style></defs><path class="a" d="M90.2,227.5c-37.33,0-67.7-30-67.7-66.8a66.35,66.35,0,0,1,8-31.6L88,23.8a2.49,2.49,0,0,1,4.38,0l57.5,105.3a65.91,65.91,0,0,1,8,31.6C157.9,197.53,127.53,227.5,90.2,227.5Zm0-197.28L34.89,131.5a61.29,61.29,0,0,0-7.39,29.2c0,34.08,28.13,61.8,62.7,61.8s62.7-27.72,62.7-61.8a61.07,61.07,0,0,0-7.4-29.22Z"/><path class="a" d="M64.6,119.8a2.5,2.5,0,0,1-2.19-3.7l14.5-26.5A2.5,2.5,0,1,1,81.29,92l-14.5,26.5A2.49,2.49,0,0,1,64.6,119.8Z"/><path class="a" d="M59.7,193.5a2.47,2.47,0,0,1-1.73-.7A44.21,44.21,0,0,1,44.2,160.7a42.63,42.63,0,0,1,2.66-15.08,2.5,2.5,0,0,1,4.68,1.76A37.61,37.61,0,0,0,49.2,160.7a39.28,39.28,0,0,0,12.23,28.5,2.5,2.5,0,0,1-1.73,4.3Z"/><path class="a" d="M168.5,201.5a59.72,59.72,0,0,1-23.6-4.91,2.5,2.5,0,1,1,2-4.58,54.6,54.6,0,0,0,21.6,4.49c29.78,0,54-24,54-53.4a52.26,52.26,0,0,0-6.39-25.19L168.5,30.23,131.6,98a2.51,2.51,0,0,1-4.4-2.4l39.1-71.8a2.51,2.51,0,0,1,2.2-1.3h0a2.5,2.5,0,0,1,2.2,1.31l49.8,91.7a57.24,57.24,0,0,1,7,27.59C227.5,175.3,201,201.5,168.5,201.5Z"/><path class="a" d="M152.9,101.6a2.56,2.56,0,0,1-1.19-.3,2.5,2.5,0,0,1-1-3.39l11.6-21.4a2.5,2.5,0,1,1,4.4,2.38l-11.6,21.4A2.49,2.49,0,0,1,152.9,101.6Z"/></svg>