<svg xmlns="http://www.w3.org/2000/svg" viewBox="0 0 250 250"><defs><style>.a{fill:#231f20;}</style></defs><path class="a" d="M74.63,127.81l.2.4a1.68,1.68,0,0,0,1.5.92,1.73,1.73,0,0,0,.32,0A1.68,1.68,0,0,0,78,127.58c.69-9.23,9.13-15.54,15.92-20.61,1.25-.94,2.44-1.83,3.51-2.69,7.1-5.68,13.29-11.15,17.13-20.64a1.68,1.68,0,0,0-3.11-1.25c-3.54,8.75-9.14,13.71-16.11,19.28-1,.82-2.19,1.69-3.43,2.61-5.65,4.23-13,9.73-16,17.44A50.78,50.78,0,0,1,73,106.42c0-28.62,22.15-51,50.44-51s50.43,22.41,50.43,51c0,5.39-.16,6.55-1.44,13.15a1.68,1.68,0,0,0,3.29.64c1.31-6.79,1.5-8.13,1.5-13.79,0-30.5-23.62-54.38-53.78-54.38S69.64,75.92,69.64,106.42c0,5.84,1.8,13.6,4.94,21.28Z"/><path class="a" d="M183.89,135.72c-1.12-3-4.69-5.66-8-5.05-2.1-5.89-5.74-12.51-9.93-16.7l-1.92-1.89a93,93,0,0,0-11.76-10.38c-2.36-1.65-4.76-3.1-7.08-4.49s-4.62-2.77-6.9-4.37c-7.16-4.85-11.5-9.41-11.64-12.22a15.3,15.3,0,0,0-.24-3.63,1.68,1.68,0,0,0-3.29.64,11.75,11.75,0,0,1,.19,2.72,1,1,0,0,0,0,.24v0c-.27,4.13-2.42,8.5-4.51,12.38-2.54,4.53-8.82,9.2-15.47,14.15-10.69,8-22.82,17-26.75,29.84a1.67,1.67,0,0,0,3.2,1c3.61-11.81,15.27-20.48,25.55-28.14,7.25-5.39,13.5-10,16.41-15.22a52.69,52.69,0,0,0,3.85-8.5q3.2,4.3,10.82,9.48c2.36,1.65,4.76,3.09,7.08,4.48s4.62,2.78,6.89,4.37a89.67,89.67,0,0,1,11.32,10c.65.65,1.3,1.29,1.92,1.89,6.21,6.21,10.55,17.54,10.82,22.6a1.67,1.67,0,0,0,1.67,1.59h.09a1.68,1.68,0,0,0,1.58-1.76,24,24,0,0,0-.86-4.85,4.91,4.91,0,0,1,3.81,3c.5,1.36-1.75,7.66-2.49,9.74-.29.79-.53,1.47-.68,2-1.36,4.39-3.59,6.58-4.7,7.18a7.86,7.86,0,0,1-2.88.8c.57-3.4,1-7,1.36-10.46.24-2.09.47-4.13.73-6.05a1.68,1.68,0,0,0-3.32-.45c-.26,1.95-.5,4-.73,6.12-.76,6.7-1.54,13.64-3.42,18.9-3.71,10.24-12,16.86-20.78,23.87-1.25,1-2.52,2-3.74,3l-1.29,1a50.6,50.6,0,0,1-7.87,5.41c-4.24,2.12-7.54,2.12-11.76,0a50.61,50.61,0,0,1-9.16-6.4l-3.33-2.66c-9-7.11-17.44-13.82-21.21-24.23-1.75-4.92-2.17-9.64-2.61-14.65-.18-2.07-.37-4.2-.65-6.43a1.67,1.67,0,1,0-3.32.42c.27,2.17.46,4.27.64,6.3s.37,4.22.65,6.31a7.88,7.88,0,0,1-3.07-.82c-1.11-.6-3.34-2.79-4.7-7.2-.15-.47-.39-1.15-.68-1.94-.74-2.08-3-8.38-2.49-9.74.61-1.64,2.84-3.34,4.37-2.91a1.68,1.68,0,0,0,.9-3.23c-3.4-.95-7.24,1.83-8.41,5-.87,2.3.61,6.82,2.48,12,.27.76.49,1.39.63,1.82,1.56,5.08,4.29,8,6.31,9.14a11.09,11.09,0,0,0,4.66,1.22,4.89,4.89,0,0,0,.54,0,40.35,40.35,0,0,0,1.6,5.88,42.39,42.39,0,0,0,10.37,15.5c.33,3.49,2.17,26.68-4.33,41.36a1.67,1.67,0,0,0,.85,2.21,1.8,1.8,0,0,0,.68.14,1.67,1.67,0,0,0,1.53-1c5.69-12.84,5.38-31.12,4.89-39.31,2.68,2.37,5.5,4.61,8.29,6.82l3.29,2.62a54.19,54.19,0,0,0,9.76,6.8,15,15,0,0,0,14.79,0,53.52,53.52,0,0,0,8.43-5.76l1.3-1c1.25-1,2.51-2,3.75-3,2.47-2,4.9-3.92,7.21-5.92-.1,7.75.22,27.74,5.65,38.85a1.67,1.67,0,0,0,2.24.77,1.67,1.67,0,0,0,.77-2.24c-6.32-12.93-5.25-40.12-5.24-40.39a.34.34,0,0,0,0-.1c4.79-4.6,8.82-9.71,11.22-16.32a48.05,48.05,0,0,0,1.59-5.86l.44,0a11,11,0,0,0,4.65-1.22c2-1.09,4.76-4.06,6.31-9.12.15-.45.37-1.08.64-1.84C183.28,142.54,184.76,138,183.89,135.72Z"/><path class="a" d="M133.35,77a1.68,1.68,0,1,0-3.33.39c.58,4.85,5.2,7.81,9.17,9.85,6.81,3.47,27.54,14,28.09,21.25a1.68,1.68,0,0,0,1.67,1.55h.13a1.67,1.67,0,0,0,1.54-1.79c-.61-8-15.46-16.62-29.91-24C137.49,82.62,133.74,80.3,133.35,77Z"/><path class="a" d="M122.25,162.16a1.68,1.68,0,0,0-2.37,2.37,8,8,0,0,0,11.32,0,1.68,1.68,0,0,0-2.37-2.37A4.65,4.65,0,0,1,122.25,162.16Z"/><path class="a" d="M96.49,55.29a1.67,1.67,0,0,0,1.67-1.67,25.22,25.22,0,1,1,50.43,0,1.68,1.68,0,0,0,3.35,0,28.57,28.57,0,1,0-57.13,0A1.68,1.68,0,0,0,96.49,55.29Z"/><path class="a" d="M155.4,139.26a1.68,1.68,0,0,0,1.15-3.15c-1.37-.5-2.44-1-3.38-1.39a17.86,17.86,0,0,0-5.64-1.75,11.12,11.12,0,0,0-9.64,3.71,1.69,1.69,0,0,0,.17,2.37,1.71,1.71,0,0,0,1.1.41,1.66,1.66,0,0,0,1.26-.58,7.81,7.81,0,0,1,1.8-1.49,5.07,5.07,0,0,0-.5,2.16,5,5,0,1,0,9.62-2l.48.21C152.8,138.22,153.92,138.72,155.4,139.26Z"/><path class="a" d="M135.42,127.67a1.69,1.69,0,0,0,2.28.67,27.41,27.41,0,0,1,7.26-2.67,14.22,14.22,0,0,1,7.47.41,27.47,27.47,0,0,1,4.06,2l1.18.72c1,.63,2.1,1.28,3.22,1.88a1.69,1.69,0,0,0,.78.19,1.67,1.67,0,0,0,.79-3.15c-1-.55-2-1.15-3-1.78l-1.24-.75a30.55,30.55,0,0,0-4.58-2.28,17.48,17.48,0,0,0-9.29-.56,31.42,31.42,0,0,0-8.21,3A1.69,1.69,0,0,0,135.42,127.67Z"/><path class="a" d="M111,138.88a1.68,1.68,0,0,0,1.27.58,1.71,1.71,0,0,0,1.1-.41,1.69,1.69,0,0,0,.16-2.37,11.06,11.06,0,0,0-9.62-3.71,18,18,0,0,0-5.66,1.75c-.94.42-2,.89-3.37,1.39A1.68,1.68,0,0,0,96,139.26c1.48-.54,2.59-1,3.58-1.48l.48-.21a5,5,0,1,0,9.12-.18A7.76,7.76,0,0,1,111,138.88Z"/><path class="a" d="M115.52,128.93a34.48,34.48,0,0,0-7.54-4,20.29,20.29,0,0,0-9-1.27A33.88,33.88,0,0,0,94,124.68c-.77.24-1.54.46-2.31.67s-1.61.46-2.41.71a1.67,1.67,0,1,0,1,3.19c.77-.24,1.54-.45,2.31-.67s1.61-.45,2.34-.68a30,30,0,0,1,4.37-.94,16.71,16.71,0,0,1,7.5,1.09,31.49,31.49,0,0,1,6.81,3.64,1.67,1.67,0,1,0,1.89-2.76Z"/><path class="a" d="M112.22,176a1.67,1.67,0,0,0,1.54,1.8c.06,0,5.36.4,12.22.4s11.58-.48,11.78-.5a1.68,1.68,0,0,0-.35-3.34s-4.72.49-11.43.49-11.91-.39-12-.39A1.68,1.68,0,0,0,112.22,176Z"/><circle class="a" cx="106.42" cy="166.39" r="1.97"/><circle class="a" cx="141.52" cy="108.09" r="1.97"/><path class="a" d="M125.88,103.07a2,2,0,0,0,3.94,0v0l.19,0a2.95,2.95,0,1,0-2.95-2.95,2.74,2.74,0,0,0,.22,1.08A2,2,0,0,0,125.88,103.07Z"/><circle class="a" cx="131" cy="192.16" r="1.97"/><circle class="a" cx="90.39" cy="153.42" r="1.97"/><path class="a" d="M157.74,161.67a3.34,3.34,0,1,0-3.34-3.34A3.34,3.34,0,0,0,157.74,161.67Z"/><path class="a" d="M98.16,160.89A4.33,4.33,0,1,0,92.38,165a2,2,0,0,0-.12.66,2,2,0,0,0,3.93,0,1.94,1.94,0,0,0-.26-1A4.32,4.32,0,0,0,98.16,160.89Z"/></svg>