<?xml version="1.0" encoding="utf-8"?>
<!-- Generator: Adobe Illustrator 25.2.1, SVG Export Plug-In . SVG Version: 6.00 Build 0)  -->
<svg version="1.1" id="Layer_1" xmlns="http://www.w3.org/2000/svg" xmlns:xlink="http://www.w3.org/1999/xlink" x="0px" y="0px"
	 viewBox="0 0 200 200" style="enable-background:new 0 0 200 200;" xml:space="preserve">
<style type="text/css">
	.st0{fill:#231F20;}
</style>
<g>
	<path class="st0" d="M176.8,153.5c-4.8-4.8-9.7-9.7-14.4-14.4l-0.6-0.6c-0.2-0.2-0.5-0.4-0.8-0.5c-0.1-0.1-0.2-0.1-0.4-0.2
		l-0.3-0.2l0.2-0.3c4.4-7.7,6.1-16.6,4.8-25c-2.8-17.6-18.3-30.9-36.1-31c-1.1,0-1.8-0.4-2.3-1.4c-9-17.6-20.5-33.8-34.3-48.1
		c-1.2-1.3-2.5-1.9-3.7-1.9c-1.2,0-2.3,0.7-3.4,1.9c-3.6,4-7.1,8.2-10.6,12.2c-1.4,1.7-2.9,3.4-4.3,5.1l-1.2,1.4l-0.2-0.5
		c-2.6-5.6-3.9-11.1-3.8-17c0-1.1-0.2-2-0.7-2.5c-0.3-0.3-0.7-0.5-1.3-0.5c0,0,0,0,0,0c-0.9,0-1.9,0.3-1.9,2.9
		c-0.1,4.2-0.5,9.7-2.7,14.8C55.6,55,50.3,59.2,43,60.1c-1.3,0.2-2,0.6-2.5,1.4v1.2c0.5,0.9,1.3,1.3,2.5,1.4
		c4.5,0.5,8.4,2.5,11.6,5.9c0.9,0.9,0.7,1.7,0.3,2.5c-6.1,10.9-10.1,20.9-12.4,30.7c-0.6,2.5-0.9,5.1-1.3,7.6
		c-0.2,1.2-0.3,2.4-0.5,3.6c0,0.3-0.1,0.5-0.2,0.8l-0.1,0.3l0,7c0.1,0.8,0.3,1.6,0.4,2.5c0.3,1.8,0.6,3.7,1,5.5
		c4.4,20.1,21,35.4,41.4,38.1c0.5,0.1,1,0.2,1.5,0.2l0.7,0.1l7.1,0c0,0,0.1,0,0.2-0.1c0.2-0.1,0.5-0.1,0.8-0.2
		c10.8-1.1,20.4-5.4,28.4-12.8c1.1-1,2-1.3,3.3-1.1c4.2,0.6,8.3,0.3,12-0.8c2.4-0.7,4.9-1.6,7.2-2.5c1-0.4,2-0.8,3-1.1l0-0.2
		l0.1-0.8l0.5,0.7c0.1,0.1,0.2,0.3,0.3,0.4c0.2,0.3,0.4,0.5,0.6,0.8c2.3,2.3,4.7,4.7,7,7c2.6,2.6,5.2,5.2,7.8,7.8
		c2.4,2.4,5.2,3.3,8.4,2.7c3.4-0.7,5.7-2.8,6.8-6.1C180.1,159.1,179.4,156,176.8,153.5z M50.9,62.5l-0.6-0.3l0.6-0.3
		c6-3.3,10-8,12.2-14.5l0.3-1l0.4,1c2.6,6.9,6.5,11.5,12.2,14.4l0.6,0.3L76,62.4c-6,3.3-10,8-12.2,14.5l-0.3,1l-0.4-1
		C60.4,70,56.6,65.4,50.9,62.5z M118.2,154.2c-2.6,2.3-5.3,4.2-8.5,5.8c-6.5,3.4-13.5,5.1-20.5,5.1c-4.5,0-9.1-0.7-13.5-2.1
		c-11.3-3.7-20.6-11.7-26.1-22.6c-5-9.9-6.3-20.5-4-32.4c2-10.2,5.8-20.5,11.7-31.4c0.1-0.1,0.2-0.3,0.3-0.4l0.6-0.8l0.3,0.6
		c2,4.6,3,9.5,3.1,14.8c0,0.2,0,0.5,0,0.7c0,0.3,0,0.5,0,0.8c0,1.3,0.8,2.1,1.9,2.1c1.1,0.1,2-0.8,2-2.1c0.1-0.9,0.1-1.7,0.2-2.6
		c0.1-1.8,0.2-3.6,0.5-5.4c1.1-7.4,3.8-12.6,8.4-16.4c2.8-2.3,6.1-3.6,9.8-3.9c1.4-0.1,2.2-0.8,2.2-1.9c0-1.1-0.8-1.8-2.2-2
		c-5-0.5-9-2.6-12.3-6.4l-0.2-0.2l17.1-20.1l0.3,0.3c13.9,14.3,25,29.8,34,47.3l0.2,0.5l-0.5,0.1c-16.9,2.9-29.7,16.7-31,33.6
		c-1.4,17.4,9.6,33.5,26.1,38.4l0.6,0.2L118.2,154.2z M128.8,151.2C128.8,151.2,128.8,151.2,128.8,151.2c-18.2,0-33.1-14.8-33.1-33
		c0-8.8,3.4-17.1,9.7-23.4c6.2-6.2,14.5-9.7,23.3-9.7c0,0,0,0,0,0c18.3,0,33.1,14.9,33.1,33.1c0,8.8-3.4,17.1-9.7,23.3
		C145.9,147.7,137.6,151.2,128.8,151.2z M175.4,161.6c-0.5,1.6-1.8,2.8-3.4,3.2c-0.4,0.1-0.9,0.2-1.3,0.2c-1.3,0-2.5-0.5-3.5-1.4
		c-0.8-0.7-1.6-1.5-2.3-2.3c-0.3-0.3-0.7-0.7-1-1L151.5,148l6.6-6.5l-1.6-2.4l2.2,1.9c0.2,0.1,0.3,0.3,0.5,0.4l4.5,4.5
		c3.3,3.4,6.7,6.7,10.1,10C175.5,157.7,176,159.5,175.4,161.6z"/>
	<path class="st0" d="M82.5,153.5c-0.4-0.1-0.8-0.2-1.2-0.3c-8.2-1.8-14.7-6.3-19.2-13.4c-3.1-4.9-5.1-10.6-5.9-16.7
		c-0.1-1.1-0.6-2.3-2.2-2.3c-1.4,0.1-1.9,1.3-2.1,2.3c0.3,1,0.6,2.1,0.8,3.1c0.6,2.3,1.2,4.7,2,7c3.9,10.8,10.3,18,19.6,21.8
		c2.3,1,4.9,1.6,7.3,2.2l0.2,0c0.5,0.1,1,0,1.4-0.2c0.4-0.3,0.7-0.7,0.8-1.3C84.2,154.7,83.7,153.9,82.5,153.5z"/>
	<path class="st0" d="M116.2,111.9c-1.2-0.2-2.5-0.1-3.7-0.1c-0.4,0-0.7,0-1.1,0c-1,0-1.6,0.2-2,0.5c-0.4,0.4-0.5,1-0.5,2
		c0,1.7,0,3.3,0,5c0,3.8,0,7.7,0,11.6c0,1.3,0.4,2.1,1.3,2.7h1.1c1-0.5,1.5-1.3,1.4-2.6c0-1.4,0-2.8,0-4.2c0-0.6,0-1.2,0-1.9v-0.4
		l1.2,0c0.6,0,1.1,0,1.6,0c3.3-0.1,6-2.8,6.1-6.2C121.8,115.1,119.4,112.2,116.2,111.9z M117.6,119.3c-0.8,1.5-2.1,1.5-3.3,1.4
		c-0.4,0-0.8,0-1.2,0l-0.4,0v-5.4l0.4,0.1c0.4,0,0.7,0,1.2,0c1,0,2.1-0.1,3,0.9C118,117.3,118.1,118.3,117.6,119.3z"/>
	<path class="st0" d="M148.7,105.3c0-0.4,0-0.8-0.1-1.3c-0.2-0.8-0.9-1.3-1.7-1.3c-0.9,0-1.6,0.5-1.8,1.3c-0.1,0.4-0.1,0.9-0.1,1.3
		c0,1.9,0,3.9,0,5.8l0,3.6c0,0.3,0,0.5,0,0.8l0,0.7h-9.7l0-4.4c0-2.3,0-4.6,0-6.9c0-0.8-0.3-1.4-0.7-1.8c-0.3-0.2-0.7-0.4-1.1-0.4
		c-0.2,0-0.3,0-0.5,0.1c-1.3,0.3-1.5,1.6-1.5,2.3c0,4.4,0,8.7,0,13.1c0,2.9,0,5.8,0,8.7c0,1.3,0.8,2.2,1.9,2.2
		c1.1,0,1.9-0.8,1.9-2.1c0-0.7,0-1.4,0-2l0-4.8h9.7l0,2.4c0,1.5,0,3,0,4.5c0,1.2,0.8,2.1,1.9,2.1c0,0,0,0,0,0c1.1,0,1.8-0.8,1.9-2.1
		c0-0.1,0-0.2,0-0.4l0-4.4C148.7,116.6,148.7,110.9,148.7,105.3z"/>
</g>
</svg>
