<?xml version="1.0" encoding="utf-8"?>
<!-- Generator: Adobe Illustrator 25.2.1, SVG Export Plug-In . SVG Version: 6.00 Build 0)  -->
<svg version="1.1" id="Layer_1" xmlns="http://www.w3.org/2000/svg" xmlns:xlink="http://www.w3.org/1999/xlink" x="0px" y="0px"
	 viewBox="0 0 200 200" style="enable-background:new 0 0 200 200;" xml:space="preserve">
<path d="M162.5,70c-2.9,0-5.8,0-8.6,0l-2.8,0c-0.3,0-0.5,0-0.9,0l-2.1-0.1l1.1-0.9c0.2-0.2,0.4-0.3,0.6-0.5c0.3-0.2,0.5-0.4,0.7-0.6
	c5.6-5.4,7.4-13.6,4.5-20.8c-2.9-7.3-9.8-12-17.6-12.1l-0.8,0c-6,0-12.3-0.1-18.4,0c-7.7,0.1-13.5,3.7-17.3,10.5
	c-0.1,0.1-0.2,0.3-0.3,0.5l-0.7,1.1l-0.8-1.5c-0.2-0.4-0.4-0.8-0.7-1.2c-3.8-6.1-9.2-9.3-16.1-9.4C77,34.9,71.6,35,66.3,35l-3.6,0
	c-7.7,0-14.6,4.7-17.5,12c-2.9,7.2-1.2,15.3,4.3,20.8c0.2,0.2,0.5,0.4,0.8,0.7l1.6,1.5l-6.5,0c-2.7,0-5.4,0-8,0
	c-1.8,0-2.3,0.5-2.3,2.3c0,6.8,0,13.6,0,20.5c0,1.8,0.5,2.3,2.3,2.4c0.8,0,1.6,0,2.5,0l1.8,0l0,14.3c0,17.6,0,35.3,0,52.9
	c0,1.3,0.3,2.1,1,2.7h114.8c0.7-0.6,1-1.3,1-2.7c0-17.7,0-35.4,0-53.1l0-14.2h0.5c0.4,0,0.8,0,1.1,0c0.9,0,1.7,0,2.5,0
	c1.1,0.1,1.9-0.3,2.4-1.2V71C164.5,70.3,163.7,69.9,162.5,70z M132.6,38.8c5.6-1.6,12.4,0.4,16.3,4.7c4.5,5.1,5.4,12.6,2,18.3
	C147,68.6,141.1,70,136,70c-1.3,0-2.5-0.1-3.6-0.2l-1.2-0.1l0.9-0.8c4.3-3.8,6.7-9.1,6.7-14.7c0-5.6-2.4-11-6.4-14.5l-0.7-0.6
	L132.6,38.8z M126.4,41.3c0.6-0.4,1.3-0.7,2.3-0.1c5.3,3.6,7.9,10.7,6.3,16.9c-1.7,6.5-7.4,11.3-13.8,11.7c-1.1,0.1-2.2,0.1-3.3,0.1
	c-0.9,0-1.8,0-2.8,0c-1,0-1.9,0-2.9,0h-0.8l4.7-10.7c1.6-3.6,3.2-7.3,4.8-10.9C122,45.4,123.9,43,126.4,41.3z M111.4,73.5l1.1-0.1
	c0.3,0,0.5-0.1,0.7-0.1l4.2,0c2.9,0,5.8,0,8.7,0c0,0,0,0,0,0c0.9,0,1.4,0.3,1.8,1.1c4,8,8,16,12,23.9l4.6,9.2
	c0.1,0.2,0.2,0.4,0.2,0.6l0.4,1.1h-0.8c-0.7,0-1.3,0-1.9,0c-1.5,0-2.9,0-4.3,0c-1.3-0.1-2.2,0.4-3,1.5c-0.8,1.2-1.6,2.3-2.5,3.4
	c-0.4,0.5-0.8,1-1.2,1.6l-0.5,0.7L111.4,73.5z M116,91.7h-5.5V82l0.8-0.1l0.3,0.3L116,91.7z M73.7,41.3c2.5,1.8,4.2,3.9,5.3,6.4
	c2.4,5.4,4.8,10.9,7.1,16.3l1.9,4.3c0.1,0.2,0.1,0.3,0.2,0.6l0.3,1.1l-0.7,0c-1.1,0-2.2,0-3.4,0c-4.2,0-8.5,0.1-12.5-2.4
	c-4.5-2.8-7.2-7.7-7.3-13c-0.1-5.3,2.3-10.2,6.6-13.2C72.1,40.7,72.8,40.7,73.7,41.3z M88.7,73.3l-19.6,43.1l-0.5-0.7
	c-0.4-0.5-0.8-1.1-1.2-1.6c-0.9-1.2-1.8-2.3-2.6-3.5c-0.7-1-1.5-1.4-2.8-1.4c-1.5,0.1-2.9,0-4.4,0c-0.7,0-1.3,0-2,0h-0.8l0.6-1.2
	c0.1-0.3,0.3-0.6,0.4-0.8l3.8-7.6c4.1-8.3,8.3-16.6,12.4-24.9c0.5-1.1,1.2-1.5,2.4-1.5c0,0,0,0,0.1,0c3.2,0,6.5,0,9.8,0L88.7,73.3z
	 M48.1,48.6c2.2-6,8-10.1,14.3-10.2c1.1,0,2.2,0,3.4,0.1c0.6,0,1.2,0.1,1.9,0.1l1.3,0l-0.9,0.9c-4.7,4.3-6.9,9.2-6.8,14.9
	c0.1,5.7,2.4,10.5,7.1,14.7l1,0.9l-3.1,0c-0.5,0-1,0-1.5,0c-0.6,0-1.2,0-1.7,0c-4.2,0-7.8-1.5-10.8-4.2
	C47.4,61.4,45.8,54.7,48.1,48.6z M39.5,91.8c-0.1,0-0.3,0-0.4,0l-0.7-0.1V73.4h30.5l-3.6,7.2c-1.7,3.3-3.3,6.7-5,10
	c-0.3,0.6-1.1,1.2-1.7,1.2c-3.6,0-7.3,0-10.9,0c-1.7,0-3.4,0-5,0L39.5,91.8z M89.5,161.6H45V95.2h12.9l-0.5,1.1
	c-0.1,0.3-0.2,0.5-0.4,0.7c-0.6,1.2-1.2,2.4-1.8,3.6c-1.4,2.9-2.9,5.8-4.4,8.7c-0.5,1-0.6,1.9-0.2,2.5c0.4,0.6,1.2,0.9,2.3,0.8
	c2.5-0.2,5-0.1,7.4,0l0.5,0c0.7,0,1.5,0.4,1.9,1c1.1,1.4,2.2,2.9,3.3,4.3c0.6,0.8,1.2,1.6,1.8,2.4c0.6,0.7,1.2,1.1,1.8,1
	c0.6-0.1,1.1-0.6,1.5-1.4c4-8.7,7.3-16,10.6-23.4c0.5-1.1,1.2-1.5,2.3-1.5c1.1,0.1,2.2,0,3.4,0c0.5,0,1,0,1.5,0h0.5V161.6z
	 M89.5,91.8H84l4.5-9.9l1.1,0.1V91.8z M92,65.8l-0.7,1.5l-5.7-13c-0.7-1.7-1.5-3.3-2.2-5c-1.5-3.6-3.2-7.3-6.6-9.9l-1-0.8l1.3-0.2
	c9.6-1.2,16,1.9,19.7,9.5c1.3,2.7,1.3,4.8,0,7.2c-1.1,2.2-2.1,4.5-3.1,6.7c-0.4,1-0.8,2-1.3,3C92.2,65.2,92.1,65.5,92,65.8z
	 M107,161.7H93V73.4h14V161.7z M106.1,70C106.1,70,106.1,70,106.1,70c-2.4,0-4.8,0-7.1,0c-1,0-2.1,0-3.1,0c-0.3,0-0.5,0-0.8,0
	l-1.3-0.1l2.7-6.2c2.6-5.8,5-11.3,7.5-16.9c0.6-1.3,1.5-2.3,2.1-3.1c3-3.4,6.8-5.2,11.4-5.4c1.2,0,2.4,0,3.6,0c0.5,0,1.1,0,1.6,0
	h0.2l0.9,1.1l-0.6,0.3c-0.1,0.1-0.2,0.1-0.3,0.1c-0.2,0.1-0.3,0.1-0.4,0.2c-2,1.8-3.7,4.2-4.9,7.1c-1.4,3.2-2.8,6.4-4.2,9.5
	c-1.7,3.9-3.4,7.8-5.1,11.8C107.9,69.6,107.2,70,106.1,70z M155,161.6h-44.5V95.1h0.5c0.5,0,1,0,1.5,0c1.4,0,2.7,0,4.1,0.1
	c0.7,0,1.3,0.8,1.5,1.3c2.9,6.3,5.7,12.5,8.6,18.8l2.1,4.7c0.4,0.8,0.9,1.3,1.5,1.4c0.6,0.1,1.2-0.3,1.7-1c1.7-2.2,3.3-4.4,5-6.6
	c0.6-0.8,1.2-1.1,2.2-1.1c2.5,0,5,0,7.4,0l0.8,0c1,0,1.7-0.3,2-0.8c0.3-0.5,0.2-1.3-0.2-2.1c-1.3-2.6-2.6-5.3-4-7.9l-2.2-4.4
	c-0.1-0.3-0.3-0.6-0.4-0.9l-0.6-1.2H155V161.6z M161.6,91.7l-0.9,0.1c-0.3,0-0.5,0-0.8,0l-2.1,0c-1.9,0-3.8,0-5.8,0
	c-3.4,0-6.8,0-10.3,0c-0.5,0-1.5-0.2-1.8-0.8c-2.3-4.5-4.5-8.9-6.8-13.6l-2-4h30.5V91.7z"/>
</svg>
