<?xml version="1.0" encoding="utf-8"?>
<!-- Generator: Adobe Illustrator 25.2.1, SVG Export Plug-In . SVG Version: 6.00 Build 0)  -->
<svg version="1.1" id="Layer_1" xmlns="http://www.w3.org/2000/svg" xmlns:xlink="http://www.w3.org/1999/xlink" x="0px" y="0px"
	 viewBox="0 0 1000 1000" style="enable-background:new 0 0 1000 1000;" xml:space="preserve">
<g>
	<g>
		<path d="M786,542.6c-10.8,8.5-19.9,15.8-29.6,23.4c11.4,14.6,13.6,29.5,3.8,44.5c-10.5,16.2-24.2,28.5-44.8,29.3
			c-13.1,0.5-21.7-9.7-17.5-22.2c3-8.8,8.4-17.2,14.3-24.5c5.6-6.9,13.2-12.1,20-18c-0.4-1.4-0.9-2.7-1.3-4.1
			c-22.8-6.2-45.7-12.5-69.2-18.9c-5.4,16.8-10,33.6-16,50c-8.7,23.8-17.9,47.4-27.8,70.7c-3.7,8.6-8.8,16.9-20.9,17.1
			c-9.4,0.1-15.6-3.6-20.3-11.1c-10.3-16.4-14.5-34.9-16.9-53.7c-11.5-89.1-6.4-177.3,16.4-264.3c1.4-5.4,3.6-10.7,5.9-15.8
			c2.7-6,7.8-8.2,14-6.3c5.9,1.8,8.7,6.5,7.6,12.5c-2.9,16.3-6.1,32.6-9.5,48.9c-14.5,70.7-17.8,142.1-12.4,213.9
			c1.2,15.9,4.8,31.7,7.8,47.5c0.6,3.2,3.5,8.3,5.3,8.3c3.2,0,7.7-2.6,9.3-5.4c9-15.9,18.4-31.7,25.6-48.5
			c8.8-20.4,15.6-41.7,22.8-62.8c0.8-2.4-0.1-6.6-1.8-8.5c-11.3-12.1-14-25.6-6.2-40.2c11.6-21.6,30.2-36.3,51.4-47.5
			c9.6-5.1,20.2-9,30.8-11.2c21.8-4.5,38.4,12.4,35,34.4c-2.3,15-9.3,27.8-19.9,38.4c-2.3,2.3-6.8,2.5-10.2,3.6
			c-0.6-3.5-2.2-7.2-1.7-10.6c1.5-10,4.1-19.8,5.7-29.8c1-6.5-2.5-9.3-8.6-6.9c-22.2,8.9-41.2,22-54.9,42c-4.1,6-2.6,10.1,3.6,12.7
			c8.8,3.6,18,6.7,26.8,10.2c13.6,5.5,27,11.4,40.6,16.6c2.8,1.1,7.2,1,9.5-0.5c10-6.4,19.6-13.3,29-20.5c2.2-1.7,3.9-5.3,4-8.1
			c1.6-38.6,2.9-77.2,4.4-115.8c0.2-3.9,1.2-7.8,2.4-11.6c2.5-8,8.1-11.6,15.9-10.7c7.6,0.9,13.7,7.2,13.2,16
			c-1,20-2.7,39.9-4.2,59.9c-1.9,24.7-3.8,49.5-5.7,74.2c-0.1,1.3,0.3,2.5,0.7,6.3c11.7-13.8,22.6-25.5,32-38.3
			c14.7-19.9,28.3-40.7,42.6-60.9c1.6-2.3,6.2-5.1,7.6-4.3c2.6,1.4,5.5,5.3,5.3,8.1c-0.3,5.4-1.7,11.2-4.2,16.1
			c-17.7,35.4-42.4,65.8-69.3,94.5c-2.3,2.5-4.6,4.9-6.9,7.4c-0.7,0.8-1.4,1.7-3.2,3.9c11,1.2,20.8,2.1,30.6,3.4
			c8.4,1.1,16.8,2.3,25,4.1c4,0.9,7.9,2.9,11.3,5.3c1.5,1.1,1.4,4.4,2,6.7c-2.1-0.3-4.3-0.5-6.4-1c-5.1-1.2-10.2-3.5-15.4-3.8
			c-14.9-0.9-29.8-0.9-44.7-1.5c-5.1-0.2-6.3,2.5-6,6.8c1,12.7,1.6,25.3,3,37.9c0.4,3.9,2.4,8.1,4.9,11.3c3.4,4.6,4.6,9.7-0.1,12.4
			c-3.5,2.1-10.7,2.5-13.4,0.3c-4.4-3.7-7.9-9.9-9.1-15.6c-3.5-16.5-6.1-33.2-8.2-50C788,574,787.4,559.4,786,542.6z M714.3,619.4
			c11.8-0.2,26.4-11.3,31.3-22.4c2.9-6.7,1.4-11.8-4.8-16.6C729.6,591.6,718.8,602.7,714.3,619.4z"/>
		<path d="M217.6,336.5c-5.6,0-11.7,24.9-16.2,38C183,428,171.6,483.2,162.8,539c-6.1,38.4-11.3,77-16.8,115.5
			c-1,6.9-2.8,13.5-11,13.7c-7.5,0.2-10.9-6.2-12.2-12.2c-4.5-20.3-9.8-40.7-12.1-61.3c-4.8-42.8-11-153.7-10.7-166.1
			c0.2-6.4,3.6-10.2,9.7-10.8c5.9-0.6,9.8,2.9,10.8,8.5c1.3,7.5,2.2,15,2.8,22.6c4.2,52.6,13.4,164.3,15.6,167.7
			c3.4-19.2,6.8-38.4,10.3-57.6c11.8-65.5,22.9-131.1,42.4-194.9c3.7-12.1,8.7-23.8,14.2-35.2c3.3-6.8,8.2-13.2,17.3-12.8
			c9,0.4,14.2,6.7,16.3,14c5.1,17.5,10.6,35.2,12.8,53.2c5.1,42.3,8.3,84.8,12.3,127.1c0.4,3.8,0.8,7.6,3,11.5c2.4-8,4.7-16,7.1-24
			c21.6-71.5,47-141.4,86.5-205.3c6-9.7,13.8-18.7,22.1-26.6c13.7-13.1,30.6-9.5,38.8,7.6c9.8,20.3,10,42.3,8.6,63.9
			c-3.8,57.4-9.7,114.7-13.3,172.1c-3.8,61.1-6.2,122.2-8.7,183.4c-0.5,13.1,0.4,26.4,9,37.9c4.1,5.5-0.7,12-7.4,10.4
			c-18.4-4.4-21.3-36-21.6-48.9c-1.4-68.3-1.2-136.6,4-204.8c4.5-58.8,8.4-117.6,12.1-176.4c0.5-8.3,0-17.7-2.8-25.1
			c-2.4-6.2-5.1-8.3-10-3.7c-6.6,6.1-13.3,12.3-18.5,19.5c-28.5,39.5-48.4,83.4-63.7,129.3c-12.2,36.6-22.2,74-33.2,111
			c-1.7,5.7-3.2,11.5-5.7,16.8c-3.9,8.3-13.1,8.9-16.9,0.6c-3.8-8.3-6.6-17.5-7.7-26.6c-4.5-38.9-8-78-12.4-116.9
			c-2.5-22.1-5.6-44.2-8.7-66.2C224.6,345.6,221.3,336.5,217.6,336.5z"/>
		<path d="M490.2,534.2c8.1-12.6,15.8-25.4,24.6-37.4c2.5-3.4,8.7-7,12.1-6.1c3.6,1,8.1,7.1,8.2,11c0.2,16.6-1.1,33.2-1.8,49.8
			c-0.5,12.4-1.1,24.8-1.1,37.2c0,5.2,0.2,10.3,6.7,13.2c4.9,2.2,2.8,6.7-0.8,9.4c-5.6,4.1-16.7,0.4-19.5-7.4
			c-3.7-10.2-4-19.3-4.7-30.1c-1.2-17.3-0.3-34.8-2-52.8c-6.8,12.7-13.6,25.5-20.5,38.2c-5.3,9.6-10.6,19.3-16.3,28.6
			c-4.7,7.6-11.2,12.8-21,11.5c-8.8-1.2-12.5-8-15.5-15.1c-7.2-16.8-5.6-34.4-3.8-51.7c1.1-10.3,3.6-20.5,6.7-30.5
			c2.7-8.8,10.4-12.7,17.6-10.7c6.7,1.9,9.7,8.8,7.8,18.2c-4.3,21.3-15.4,66.4-5.1,67.3C470.2,577.7,481.4,547.9,490.2,534.2z"/>
	</g>
	<g>
		<path d="M460.1,720.1c1.1,1.3,1.7,3,1.7,5c0,2.5-0.9,4.5-2.8,5.9s-4.6,2.1-8.3,2.1h-13.4v-30h12.5c3.3,0,5.8,0.7,7.6,2
			c1.8,1.3,2.7,3.2,2.7,5.7c0,1.7-0.5,3.2-1.4,4.3c-0.9,1.2-2.1,2-3.7,2.5C457.3,717.9,459,718.8,460.1,720.1z M439.5,704.9v12h10.2
			c2.6,0,4.7-0.5,6.1-1.5c1.4-1,2.1-2.5,2.1-4.5c0-1.9-0.7-3.4-2.1-4.4c-1.4-1-3.4-1.5-6.1-1.5H439.5z M457.3,729.6
			c1.5-1,2.2-2.6,2.2-4.7c0-2.1-0.8-3.7-2.2-4.7s-3.7-1.5-6.6-1.5h-11.2v12.4h11.2C453.6,731.1,455.8,730.6,457.3,729.6z"/>
		<path d="M490.3,731v2h-20.7v-30h20.1v2h-17.9v11.8h16v1.9h-16V731H490.3z"/>
		<path d="M519.1,733l-7.2-10c-1.1,0.1-2,0.2-2.9,0.2h-8.6v9.8h-2.2v-30H509c3.8,0,6.7,0.9,8.9,2.7c2.1,1.8,3.2,4.3,3.2,7.4
			c0,2.4-0.6,4.4-1.8,6c-1.2,1.6-3,2.8-5.2,3.4l7.5,10.5H519.1z M509,721.3c3.2,0,5.6-0.7,7.3-2.1c1.7-1.4,2.5-3.4,2.5-6
			c0-2.6-0.8-4.6-2.5-6c-1.7-1.4-4.1-2.1-7.3-2.1h-8.6v16.3H509z"/>
		<path d="M549.9,733l-7.2-10c-1.1,0.1-2,0.2-2.9,0.2h-8.6v9.8h-2.2v-30h10.8c3.8,0,6.7,0.9,8.9,2.7c2.1,1.8,3.2,4.3,3.2,7.4
			c0,2.4-0.6,4.4-1.8,6c-1.2,1.6-3,2.8-5.2,3.4l7.5,10.5H549.9z M539.9,721.3c3.2,0,5.6-0.7,7.3-2.1c1.7-1.4,2.5-3.4,2.5-6
			c0-2.6-0.8-4.6-2.5-6c-1.7-1.4-4.1-2.1-7.3-2.1h-8.6v16.3H539.9z"/>
		<path d="M568.8,722.7V733h-2.2v-10.3L554.5,703h2.4l10.8,17.7l10.8-17.7h2.3L568.8,722.7z"/>
		<path d="M617.5,717.7h5.3v12c-1.5,1.2-3.3,2.2-5.4,2.8c-2.1,0.7-4.2,1-6.3,1c-3.1,0-5.8-0.7-8.3-2c-2.5-1.3-4.4-3.2-5.8-5.5
			c-1.4-2.3-2.1-5-2.1-7.9s0.7-5.6,2.1-7.9c1.4-2.3,3.3-4.2,5.8-5.5c2.5-1.3,5.3-2,8.3-2c2.5,0,4.8,0.4,6.9,1.2
			c2.1,0.8,3.8,2,5.2,3.6l-3.5,3.4c-2.3-2.3-5-3.4-8.3-3.4c-2.1,0-4,0.4-5.6,1.3c-1.6,0.9-2.9,2.1-3.9,3.7c-0.9,1.6-1.4,3.4-1.4,5.5
			c0,2,0.5,3.8,1.4,5.4c0.9,1.6,2.2,2.9,3.9,3.8c1.6,0.9,3.5,1.4,5.6,1.4c2.3,0,4.4-0.5,6.2-1.5V717.7z"/>
		<path d="M635.8,731.5c-2.5-1.3-4.4-3.2-5.8-5.5c-1.4-2.4-2.1-5-2.1-7.9c0-2.9,0.7-5.6,2.1-7.9c1.4-2.4,3.3-4.2,5.8-5.5
			c2.5-1.3,5.2-2,8.3-2s5.8,0.7,8.3,2c2.5,1.3,4.4,3.2,5.8,5.5c1.4,2.3,2.1,5,2.1,7.9s-0.7,5.6-2.1,7.9c-1.4,2.3-3.3,4.2-5.8,5.5
			c-2.5,1.3-5.2,2-8.3,2S638.3,732.8,635.8,731.5z M649.5,727.2c1.6-0.9,2.9-2.2,3.8-3.8c0.9-1.6,1.4-3.4,1.4-5.4s-0.5-3.8-1.4-5.4
			c-0.9-1.6-2.2-2.9-3.8-3.8c-1.6-0.9-3.4-1.4-5.4-1.4s-3.8,0.5-5.4,1.4c-1.6,0.9-2.9,2.2-3.8,3.8c-0.9,1.6-1.4,3.4-1.4,5.4
			s0.5,3.8,1.4,5.4c0.9,1.6,2.2,2.9,3.8,3.8c1.6,0.9,3.4,1.4,5.4,1.4S647.9,728.1,649.5,727.2z"/>
		<path d="M671.9,731.5c-2.5-1.3-4.4-3.2-5.8-5.5c-1.4-2.4-2.1-5-2.1-7.9c0-2.9,0.7-5.6,2.1-7.9c1.4-2.4,3.3-4.2,5.8-5.5
			c2.5-1.3,5.2-2,8.3-2s5.8,0.7,8.3,2c2.5,1.3,4.4,3.2,5.8,5.5c1.4,2.3,2.1,5,2.1,7.9s-0.7,5.6-2.1,7.9c-1.4,2.3-3.3,4.2-5.8,5.5
			c-2.5,1.3-5.2,2-8.3,2S674.3,732.8,671.9,731.5z M685.6,727.2c1.6-0.9,2.9-2.2,3.8-3.8c0.9-1.6,1.4-3.4,1.4-5.4s-0.5-3.8-1.4-5.4
			c-0.9-1.6-2.2-2.9-3.8-3.8c-1.6-0.9-3.4-1.4-5.4-1.4s-3.8,0.5-5.4,1.4c-1.6,0.9-2.9,2.2-3.8,3.8c-0.9,1.6-1.4,3.4-1.4,5.4
			s0.5,3.8,1.4,5.4c0.9,1.6,2.2,2.9,3.8,3.8c1.6,0.9,3.4,1.4,5.4,1.4S684,728.1,685.6,727.2z"/>
		<path d="M702.2,703h13.1c3.2,0,6,0.6,8.5,1.9c2.5,1.2,4.4,3,5.8,5.3c1.4,2.3,2.1,4.9,2.1,7.9c0,3-0.7,5.6-2.1,7.9
			c-1.4,2.3-3.3,4-5.8,5.3c-2.5,1.2-5.3,1.9-8.5,1.9h-13.1V703z M715.1,728.3c2.2,0,4.1-0.4,5.8-1.3c1.7-0.8,3-2,3.9-3.6
			c0.9-1.6,1.4-3.4,1.4-5.4s-0.4-3.9-1.4-5.4c-0.9-1.6-2.2-2.8-3.9-3.6c-1.7-0.8-3.6-1.3-5.8-1.3h-7.3v20.6H715.1z"/>
		<path d="M752.1,732.5c-2.2-0.7-3.9-1.5-5.1-2.6l1.9-4.3c1.2,1,2.7,1.8,4.5,2.4c1.8,0.6,3.6,0.9,5.4,0.9c2.2,0,3.9-0.4,5-1.1
			c1.1-0.7,1.7-1.7,1.7-2.8c0-0.9-0.3-1.6-0.9-2.1c-0.6-0.6-1.4-1-2.3-1.3s-2.2-0.7-3.9-1.1c-2.3-0.5-4.1-1.1-5.6-1.6
			s-2.6-1.4-3.6-2.6c-1-1.2-1.5-2.7-1.5-4.7c0-1.7,0.4-3.2,1.4-4.5c0.9-1.4,2.3-2.4,4.1-3.2c1.8-0.8,4-1.2,6.7-1.2
			c1.8,0,3.6,0.2,5.4,0.7c1.8,0.5,3.3,1.1,4.6,2l-1.8,4.3c-1.3-0.8-2.7-1.4-4.1-1.8c-1.4-0.4-2.8-0.6-4.2-0.6
			c-2.2,0-3.8,0.4-4.9,1.1c-1.1,0.7-1.6,1.7-1.6,3c0,0.9,0.3,1.6,0.9,2.1c0.6,0.5,1.4,1,2.3,1.3c0.9,0.3,2.2,0.7,3.9,1.1
			c2.2,0.5,4.1,1.1,5.5,1.6c1.4,0.6,2.6,1.4,3.7,2.6c1,1.1,1.5,2.7,1.5,4.6c0,1.7-0.4,3.2-1.4,4.5c-0.9,1.3-2.3,2.4-4.1,3.2
			s-4.1,1.2-6.7,1.2C756.4,733.4,754.2,733.1,752.1,732.5z"/>
		<path d="M776.4,703h5.6v25.3h15.7v4.7h-21.3V703z"/>
		<path d="M824.6,728.3v4.7h-22.5v-30H824v4.7h-16.3v7.8h14.5v4.6h-14.5v8.3H824.6z"/>
		<path d="M853.3,728.3v4.7h-22.5v-30h21.9v4.7h-16.3v7.8h14.5v4.6h-14.5v8.3H853.3z"/>
		<path d="M878.7,704.3c1.9,0.9,3.4,2.1,4.4,3.7c1,1.6,1.5,3.5,1.5,5.7c0,2.2-0.5,4.1-1.5,5.7c-1,1.6-2.5,2.9-4.4,3.7
			c-1.9,0.9-4.2,1.3-6.8,1.3h-6.8v8.7h-5.6v-30h12.3C874.5,703,876.7,703.4,878.7,704.3z M877.1,718.1c1.3-1,1.9-2.5,1.9-4.4
			c0-1.9-0.6-3.4-1.9-4.4c-1.3-1-3.1-1.5-5.5-1.5h-6.5v11.9h6.5C874,719.6,875.9,719.1,877.1,718.1z"/>
	</g>
</g>
</svg>
