<?xml version="1.0" encoding="utf-8"?>
<!-- Generator: Adobe Illustrator 25.2.1, SVG Export Plug-In . SVG Version: 6.00 Build 0)  -->
<svg version="1.1" id="Layer_1" xmlns="http://www.w3.org/2000/svg" xmlns:xlink="http://www.w3.org/1999/xlink" x="0px" y="0px"
	 viewBox="0 0 200 200" style="enable-background:new 0 0 200 200;" xml:space="preserve">
<style type="text/css">
	.st0{fill:#231F20;}
</style>
<g>
	<path class="st0" d="M158.8,125.7c-0.6-1.6-1.9-3-3.6-3.7c-1.7-0.7-3.5-0.8-5.2-0.1c-1.7,0.7-3,2-3.8,3.8c-1,2.3-2,4.7-3,7.1
		c-0.5,1.1-1,2.3-1.4,3.4c-0.1,0.3-0.2,0.5-0.4,0.8l-0.5,1l-0.5-0.3c-2.6-1.6-5.1-2.1-7.8-1.5l-0.8,0.2l0.8-2.4
		c0.6-1.8,1.1-3.5,1.7-5.2c0.2-0.5,0.8-0.8,1.1-0.9c7.8-2.3,12.3-7.9,13-16.1c0.4-4.1,0.2-7.2-0.5-10.1c-0.8-3.4-2.4-5.2-5-5.8
		l-0.6-0.1l0.3-0.6c0.4-0.8,0.9-1.7,1.3-2.5c0.9-1.8,1.9-3.6,2.7-5.4c4.3-9.8,5.7-20.2,4.1-31.1c-0.1-1-0.4-2.4-0.8-3.6
		c-0.1-0.2-0.2-0.4-0.3-0.5l-0.1-0.1l0-0.2c0-0.3-0.1-0.6-0.2-0.9c-2.3-3.3-5.1-6.5-8.8-9.8c-6.8-6.2-14.4-10.7-22.5-13.5
		c-10.4-3.5-22-4-32.8-1.3c-8.7,2.2-17.3,6.7-24.8,13c-4.5,3.8-8.3,7.9-11.1,12c-0.3,0.4-0.4,0.8-0.3,1.2l0,0.1l0,0.1
		C49,52.6,49,52.8,48.9,53c-3.1,14.2-0.7,27.9,7,41l0.2,0.3c0.1,0.2,0.2,0.4,0.3,0.6c0.1,0.1,0.1,0.2,0.1,0.3l0.1,0.6l-0.5,0.1
		c-2.8,0.7-4.4,2.7-5.1,6.3c-1,5.2-0.8,10.1,0.7,14.6c1.9,5.6,5.8,9.3,11.6,11c0.8,0.2,1.4,0.6,1.6,1.5c0.4,1.5,0.9,2.9,1.4,4.4
		c0.2,0.6,0.4,1.2,0.6,1.8l0.3,0.8l-0.8-0.2c-2.8-0.5-5.4,0-7.9,1.6l-0.5,0.3l-4.9-11.4c-0.2-0.5-0.4-1-0.7-1.5
		c-1.7-3.2-5.4-4.5-8.7-3.1c-1.6,0.7-2.9,2-3.6,3.6c-0.7,1.6-0.7,3.4,0,5c3.6,8.1,6.9,15.4,10.3,22.3c0.8,1.7,2.1,3.4,3.9,5.3
		c3.6,3.7,7.2,7.3,10.8,10.9c1.9,1.9,3.9,3.9,5.8,5.8c0.6,0.6,1.2,0.9,2.1,0.9c0,0,0,0,0,0c5.1,0,10.3,0,15.4,0l6.2,0
		c0.9,0,1.4-0.2,1.8-0.5c0.3-0.3,0.4-0.8,0.4-1.6c-0.1-2.7-0.2-5.4-0.4-8c-0.1-1.1-0.1-2.2-0.2-3.3l-0.1-1.3h6.1l-0.1,4
		c-0.1,2.7-0.2,5.5-0.2,8.2c0,1,0.1,1.6,0.4,2c0.3,0.3,0.9,0.5,2,0.5l5.6,0c1.7,0,3.3,0,5,0c3.6,0,7.2,0,10.8,0
		c0.9,0,1.6-0.3,2.2-0.9c6.2-6.3,11.5-11.5,16.5-16.5c2-2,3.7-4.4,5-7.4c2.7-6,5.9-12.9,9-19.7C159.3,129.3,159.4,127.4,158.8,125.7
		z M142.8,99.2c0.9,0.4,1.5,1.5,1.9,3.3c1.1,5.3,0.8,10.2-1.1,14.6c-1.4,3.4-4.4,6.2-7.5,7l-0.7,0.2l0.1-0.7
		c0.1-0.6,0.2-1.1,0.3-1.7c0.2-1.2,0.4-2.4,0.5-3.6c0.5-5.9,0.9-11.1,1.2-15.9c0.1-1.1,0.5-1.8,1.4-2.3
		C140.7,99,141.9,98.8,142.8,99.2z M146.9,54.5c4,9-1.1,33.4-8.4,40.2l-0.8,0.7l-0.1-1c-0.1-0.8-0.1-1.7-0.2-2.5
		c-0.1-1.8-0.3-3.7-0.5-5.5c-1-8.4-3.4-14.7-7.5-19.6c-1.2-1.4-2.6-2.7-3.9-3.9l-0.4-0.3c-0.3-0.3-0.7-0.5-1.2-0.4
		c-0.4,0-0.8,0.2-1.1,0.6c-0.3,0.3-0.5,0.8-0.4,1.2c0,0.4,0.3,0.8,0.7,1.1c5.8,4.6,9,11.1,10.5,20.8c0.1,0.6,0.2,1.3,0.2,1.9l0,1.5
		l-0.9-1.3c-10.5-14.9-21.4-25.4-34.4-32.9L97,54.2h49.8L146.9,54.5z M55,49.8c1.8-2.2,3.8-4.3,6-6.3c6.3-5.8,13.7-10.2,21.3-12.7
		c10.2-3.4,21.4-3.7,31.6-0.8c4.4,1.2,8.6,3,12.7,5.3c3.4,1.9,6.6,4.2,9.5,6.7c2.6,2.2,5.1,4.7,7.3,7.2c0.3,0.3,0.6,0.7,0.9,1.1
		l0.7,0.8H54L55,49.8z M62.9,124.1c-3.8-1.5-6.4-4.1-7.8-8c-1.5-4.2-1.7-8.7-0.7-13.8c0.2-1.1,0.6-2.8,2.2-3.2
		c1.7-0.4,3.1,0.5,4.4,1.4l0.1,0.1c0.4,0.3,0.5,1,0.5,1.2c0.1,7.1,0.7,14.2,2,21c0,0.2,0,0.3,0.1,0.6l0.1,1.1L62.9,124.1z
		 M61.7,95.5l-0.4,0.7l-0.4-0.6c-8.7-12.6-11.7-26-9-40.9l0.1-0.4H82l-1.4,1.2c-0.2,0.2-0.4,0.3-0.5,0.4c-4.1,2.9-7.7,6.2-10.7,9.9
		c-0.6,0.7-0.9,1.3-0.8,1.9c0,0.4,0.2,0.7,0.6,1c0.6,0.5,1.4,0.8,2.6-0.7c4.4-5.2,9.7-9.5,15.8-12.7c0.8-0.4,1.7-0.7,3-0.1
		c1.1,0.5,2.2,1,3.3,1.6c0.5,0.2,1,0.5,1.6,0.7l0.8,0.4L95.6,58C82.2,66.9,71.1,79.2,61.7,95.5z M93.7,170.5l0,1.9l-0.8,0.1
		c-0.3,0-0.5,0-0.7,0l-2.5,0c-1.8,0-3.6,0-5.4,0c-3.3,0-6.5,0-9.8,0c-0.7,0-1.4-0.3-1.8-0.7l-3-2.9c-4.4-4.3-8.9-8.7-13.1-13.3
		c-1.5-1.6-2.9-3.7-4.2-6.3c-2.4-4.9-4.6-10-6.8-14.8c-0.7-1.5-1.4-3-2.1-4.5c-0.5-1.1-0.5-2.2-0.2-3.1c0.3-0.8,1-1.5,1.9-1.9
		c1.9-0.8,3.8,0.1,4.7,2.2c1.6,3.8,3.3,7.6,4.9,11.4c1.5,3.5,3.6,6.7,6.4,9.4l1.8,1.8c2.7,2.7,5.5,5.6,8.4,8.3
		c0.4,0.4,1.2,0.7,1.7,0.6c0.5-0.1,0.9-0.4,1.1-0.9c0.2-0.6,0-1.3-0.4-1.8c-0.8-0.9-1.7-1.7-2.5-2.6c-0.6-0.6-1.1-1.1-1.7-1.7
		c-2.7-2.7-5.3-5.4-8-8.2c-0.4-0.4-0.7-0.8-1-1.3c-0.1-0.2-0.3-0.4-0.5-0.6l-0.3-0.4l0.3-0.3c2.5-2.3,6.1-2.2,9,0.1
		c2.1,1.7,4.8,3.8,7.7,5.7c1.9,1.2,3.9,2.3,6.1,3.1c4.7,1.8,7.8,5.3,9.7,10.7C93.8,163.8,93.7,167.2,93.7,170.5z M104.5,156.4
		c-0.3,0.6-1.1,1.1-1.7,1.1c-1,0-2.1,0.1-3.2,0.1c-1.2,0-2.3,0-3.5-0.1c-0.6,0-1.3-0.5-1.6-1.1c-2.1-4.3-5.4-7.4-10.1-9.5
		c-2-0.9-3.9-2-5.8-3.1c-1-0.6-1.9-1.1-2.9-1.6c-2.9-1.6-4.1-4.4-5.3-7.2l-0.2-0.4c-2.6-6.1-4.2-12.7-4.7-19.5
		c-0.4-4.3-0.5-8.7-0.7-13c-0.1-1.4-0.1-2.8-0.2-4.2c0-0.7,0.1-1.4,0.4-1.9c8.5-14.6,18.4-25.7,30.2-34c0.3-0.2,0.6-0.5,0.9-0.7
		c1-0.8,2.1-1.6,3.2-1.6c1.2,0,2.3,0.9,3.3,1.7c0.3,0.2,0.6,0.5,0.9,0.7c11.8,8.3,21.7,19.4,30.2,34c0.3,0.4,0.4,1,0.4,1.6
		c0,1,0,2,0,3l0,2.6c-0.3,7.5-0.7,15.5-3,23.3c-1,3.3-2.3,6.5-3.6,9.7c-0.3,0.7-0.6,1.4-0.8,2c-0.4,1-1.3,1.9-2,2.4
		c-3.1,2.5-6.6,4.6-10.4,6.1C110,148.8,106.6,152,104.5,156.4L104.5,156.4z M155.6,129.8c-1.7,3.7-3.3,7.4-5,11.1l-2.1,4.6
		c-0.1,0.3-0.3,0.6-0.4,0.9c-1.9,4.6-4.6,8.6-8.3,12.1c-2.9,2.7-5.8,5.6-8.6,8.5c-1.5,1.5-3,3.1-4.6,4.6c-0.2,0.2-1,0.9-1.8,0.9
		c-3.3,0-6.7,0-10,0c-1.8,0-3.6,0-5.4,0l-3,0c-0.2,0-0.3,0-0.4-0.1l-0.5-0.1l0-0.4c-0.5-5.5-0.3-12.5,4.8-18.2
		c1.3-1.4,2.8-2.6,4.3-3.1c5.1-2.1,10-5.1,15.4-9.6c2.7-2.3,5.8-2.5,8.5-0.7c0.1,0.1,0.2,0.1,0.3,0.3l0.7,0.6l-0.3,0.4
		c-0.4,0.4-0.8,0.9-1.1,1.3c-0.8,1-1.6,1.9-2.4,2.7c-2.2,2.3-4.5,4.6-6.8,6.8l-3.1,3.1c-0.2,0.2-0.4,0.4-0.5,0.6
		c-0.5,0.7-0.4,1.5,0.1,2c0.3,0.3,0.8,0.5,1.2,0.5h0c0.2,0,0.5,0,0.7-0.3c1.5-1.6,3.2-3.1,4.8-4.6c4.2-3.9,8.5-8,11.2-13.3
		c1.5-3,2.8-6.1,4.1-9.1c0.6-1.4,1.2-2.9,1.8-4.3c0.9-2,2.6-2.9,4.4-2.3c1,0.3,1.8,1,2.2,1.9C156.1,127.6,156.1,128.7,155.6,129.8z"
		/>
	<path class="st0" d="M109.9,133.9l-0.6-0.1c-1.3-0.3-2.6-0.6-3.8-1.3c-2.1-1.2-4.1-1.7-6.1-1.7c-2,0-4,0.6-6,1.7
		c-1.1,0.6-2.4,1.1-4.1,1.4c-0.9,0.2-1.6,0.6-1.9,1.3c-0.3,0.6-0.2,1.2,0.2,1.8c0.5,0.8,1.2,1.6,2.1,2.2c2.6,1.9,5.6,2.8,9.9,3
		c3.1,0.1,7-1.2,9.4-3c0.9-0.7,1.6-1.5,2.1-2.4c0.3-0.5,0.3-1.1,0.1-1.6C111.2,134.5,110.6,134.1,109.9,133.9z M106,137.2
		c-2.2,1.1-4.4,1.7-6.6,1.7c-2.1,0-4.1-0.5-6.2-1.4l-0.2-0.1l-0.3-1.1l1.8-0.7c1.4-0.5,2.9-1.1,4.3-1.6c0.3-0.1,0.9-0.2,1.3,0
		c1.6,0.6,3.8,1.4,5.9,2.4l0.9,0.4L106,137.2z"/>
	<path class="st0" d="M126.2,111.5c0.1-0.9-0.3-1.5-1.2-1.9c-0.4-0.2-0.8-0.4-1.1-0.6c-0.1-0.1-0.3-0.2-0.4-0.3l-0.4-0.2l0.5-1.4
		l0.4,0.1c0.1,0,0.3,0.1,0.4,0.1c0.3,0.1,0.7,0.1,1,0.2c0.4,0.1,0.8,0.3,1.2,0.4c0.7,0.3,1.4,0.5,2.1,0.6c0.4,0.1,0.8,0,1.2-0.3
		c0.3-0.2,0.6-0.6,0.6-1.1c0-0.3,0.2-1.3-1.5-1.8c-1.1-0.4-2.1-0.9-2.9-1.4c-1.1-0.8-1.5-0.8-2.7-0.1c-1.2,0.7-2.6,1.4-4.2,1.9
		c-2.5,0.8-5.2,0.7-8.5-0.2c-1.1-0.3-2,0.1-2.2,1.1c-0.3,0.9,0.3,1.7,1.4,2c2.6,0.8,5.4,1,8.3,0.6c0.2,0,0.4,0,0.6,0
		c0.7,0,1.3,0.2,1.9,1c0.9,1.2,2,2.5,3.9,2.6C125.4,112.8,126.1,112.3,126.2,111.5z"/>
	<path class="st0" d="M90.6,106.6c-0.3-1-1.1-1.3-2.5-1c-5,1.2-9.1,0.6-12.7-1.9c-0.8-0.5-1.4-0.5-2.3,0.2c-0.9,0.6-1.9,1.2-2.9,1.5
		c-1.2,0.4-1.7,1.1-1.5,2c0.1,0.4,0.3,0.8,0.7,1c0.4,0.3,0.9,0.3,1.4,0.2c0.6-0.1,1.2-0.4,1.9-0.6c0.4-0.2,0.8-0.3,1.2-0.4
		c0.3-0.1,0.7-0.2,1-0.2c0.1,0,0.3,0,0.4-0.1l0.5-0.1l0.3,1.2l-0.3,0.3c-0.1,0.1-0.2,0.2-0.4,0.3c-0.3,0.2-0.6,0.5-1,0.6
		c-0.7,0.3-1.8,0.9-1.4,2.1c0.1,0.5,0.5,0.8,1,1c0.4,0.2,0.9,0.1,1.3-0.1c1.4-0.7,2.6-1.8,3.5-2.7c0.6-0.6,1.1-0.9,2.1-0.8
		c2.9,0.4,5.7,0.3,8.3-0.5c0.7-0.2,1.3-0.6,1.5-1C90.7,107.3,90.7,107,90.6,106.6z"/>
	<path class="st0" d="M73.7,95.6c0.4,0.2,1,0.1,1.6-0.1c1.3-0.6,2.7-0.9,4.1-0.9c1.2,0,2.4,0.2,3.7,0.6c2.4,0.8,4.9,1.6,7.3,2.4
		c1.1,0.4,2,0,2.3-0.9c0.3-1-0.1-1.7-1.2-2.1L91,94.5c-2.6-0.9-5.3-1.8-8-2.6c-0.7-0.2-1.5-0.3-2.5-0.5c-0.4-0.1-0.9-0.1-1.4-0.2
		c-0.4,0.1-0.8,0.2-1.3,0.3c-1.2,0.3-2.5,0.7-3.8,1.1c-0.6,0.2-0.9,0.5-1.1,0.9c-0.2,0.4-0.2,0.8,0,1.2
		C73.1,95.2,73.3,95.4,73.7,95.6z"/>
	<path class="st0" d="M107.1,97.6c0.4,0.2,1,0.2,1.6,0c1.1-0.3,2.1-0.7,3.2-1c1.4-0.5,2.8-0.9,4.2-1.4c0.8-0.2,1.6-0.4,2.4-0.6
		c0.4-0.1,0.8-0.2,1.3-0.3l0.1,0l1.2,0.4c0.9,0.3,1.9,0.5,2.8,0.8c1.1,0.3,1.9,0,2.3-0.8c0.4-0.9,0-1.7-0.9-2.1
		c-1.9-0.9-3.6-1.4-5.1-1.4c-0.5,0-1.1,0.1-1.6,0.2c-2.9,0.7-5.8,1.6-8.7,2.5c-0.8,0.2-1.5,0.5-2.3,0.7c-0.6,0.2-1,0.5-1.2,0.9
		c-0.2,0.4-0.2,0.8-0.1,1.2C106.5,97.1,106.8,97.4,107.1,97.6z"/>
	<path class="st0" d="M92.8,123.3c2,1.2,4.2,1.9,6.8,1.9c2.4,0,4.8-0.7,6.8-2c1-0.6,1.3-1.5,0.8-2.4c-0.5-0.8-1.4-1-2.4-0.4
		c-3.4,2-6.9,2-10.4,0c-1.1-0.6-2-0.5-2.5,0.4C91.2,122,92.1,122.9,92.8,123.3z"/>
</g>
</svg>
