<svg xmlns="http://www.w3.org/2000/svg" viewBox="0 0 178.4 73.59"><defs><style>.a{fill:#ea501f;}.b{fill:#fff;}</style></defs><path class="a" d="M54,37.17A1.31,1.31,0,1,1,55.44,35c.36.25.77.51,1.2.76a16.31,16.31,0,0,0,8.1,2.74,5.59,5.59,0,0,0,4.85-2.37h0c.07-.11.14-.19.14-.26a6.94,6.94,0,0,0,.7-1.53,4.7,4.7,0,0,0-.18-3.14,6.43,6.43,0,0,0-2.74-2.88h0a14.63,14.63,0,0,0-3.46-1.46c-3.54-1-6.13-2.4-7.55-4.26C55,20.51,54.86,18,56.5,15c1.09-2,3.32-3.24,6.16-3.46a16.1,16.1,0,0,1,8.39,1.93,1.3,1.3,0,1,1-1.17,2.33,13.53,13.53,0,0,0-7-1.64c-1.93.15-3.43.91-4.05,2.12-1.09,2-1.09,3.57-.18,4.77,1,1.39,3.17,2.48,6.12,3.32a15.78,15.78,0,0,1,4.09,1.75h0a9.09,9.09,0,0,1,3.76,4.09,7.09,7.09,0,0,1,.29,4.88,8.91,8.91,0,0,1-1,2.19,2.47,2.47,0,0,0-.22.37h0a8.06,8.06,0,0,1-7,3.5,18.76,18.76,0,0,1-9.45-3.1C54.89,37.76,54.45,37.5,54,37.17Z"/><path class="a" d="M77.28,12.78a1.32,1.32,0,0,1,2.63,0V39.87a1.32,1.32,0,0,1-2.63,0Z"/><path class="a" d="M80,29.66a1.32,1.32,0,1,1-2-1.68,13.59,13.59,0,0,1,6.49-4.59A8.34,8.34,0,0,1,89,23.24a6.38,6.38,0,0,1,3.54,2.45,7.45,7.45,0,0,1,1.31,4.45v9.7a1.31,1.31,0,0,1-2.62,0v-9.7a5,5,0,0,0-.81-3,3.81,3.81,0,0,0-2.07-1.42,5.6,5.6,0,0,0-3.1.11A11.35,11.35,0,0,0,80,29.66Z"/><path class="a" d="M106.68,23a9,9,0,0,1,6.41,2.66h0a9.08,9.08,0,1,1-12.83,12.84h0a9.08,9.08,0,0,1,0-12.84h0A9.11,9.11,0,0,1,106.68,23Zm4.59,4.48a6.53,6.53,0,0,0-9.19,0h0a6.51,6.51,0,0,0,0,9.19h0a6.5,6.5,0,0,0,9.19-9.19Z"/><path class="a" d="M119.48,24.3a1.31,1.31,0,1,1,2.62,0v1.64a2,2,0,0,1,.29-.29h0a9.08,9.08,0,0,1,12.84,0h0a9.08,9.08,0,1,1-12.84,12.84h0a2.78,2.78,0,0,0-.29-.3V50.12a1.31,1.31,0,0,1-2.62,0V24.3Zm13.89,3.17a6.53,6.53,0,0,0-9.19,0h0a6.51,6.51,0,0,0,0,9.19h0a6.5,6.5,0,0,0,9.19-9.19Z"/><path class="a" d="M150.22,23a8,8,0,0,1,5.76,2.4,8.86,8.86,0,0,1,2.19,3.8c1.13,3.68-1,3.53-1.68,3.53H144.42a12,12,0,0,0,.58,2.41,5.6,5.6,0,0,0,2,2.55,6.27,6.27,0,0,0,3.43.88,13.35,13.35,0,0,0,5.07-1.2,1.3,1.3,0,1,1,1,2.4,16.86,16.86,0,0,1-6.05,1.39,8.48,8.48,0,0,1-4.85-1.28,7.1,7.1,0,0,1-3.06-3.75c-1.24-3.69-1.28-7.33,1.86-10.73a7.78,7.78,0,0,1,5.76-2.4Zm3.94,4.26a5.55,5.55,0,0,0-7.88,0,6.65,6.65,0,0,0-1.71,2.81h11.34A7.78,7.78,0,0,0,154.16,27.25Z"/><path class="a" d="M170.13,23a8,8,0,0,1,5.76,2.4,8.86,8.86,0,0,1,2.19,3.8c1.13,3.68-1,3.53-1.68,3.53H164.33a12,12,0,0,0,.58,2.41A5.55,5.55,0,0,0,167,37.68a6.21,6.21,0,0,0,3.42.88,13.35,13.35,0,0,0,5.07-1.2,1.3,1.3,0,1,1,1,2.4,16.81,16.81,0,0,1-6.05,1.39,8.48,8.48,0,0,1-4.85-1.28,7.1,7.1,0,0,1-3.06-3.75c-1.24-3.69-1.28-7.33,1.86-10.73a7.8,7.8,0,0,1,5.76-2.4Zm3.94,4.26a5.55,5.55,0,0,0-7.88,0,6.65,6.65,0,0,0-1.71,2.81h11.34A7.78,7.78,0,0,0,174.07,27.25Z"/><path class="a" d="M2.18,14H12.29a21.88,21.88,0,0,1,2.64-8.87C16.74,1.93,19.32,0,22.23,0s5.48,2,7.31,5.08A21.83,21.83,0,0,1,32.17,14h10.1a2.12,2.12,0,0,1,2.17,2.18l-2,28.3C42.16,48,39.93,50,36.7,50H7.77c-3.6,0-5.51-2.51-5.72-5.57L0,16.14A2.15,2.15,0,0,1,2.18,14Zm12.64,0h14.8a19.16,19.16,0,0,0-2.29-7.61C26,4,24.16,2.52,22.23,2.52S18.47,4,17.1,6.35A19.27,19.27,0,0,0,14.82,14Z"/><path class="b" d="M14.88,40.08A1,1,0,0,1,16,38.38c.3.2.6.41.94.61a12.79,12.79,0,0,0,6.35,2.15,4.37,4.37,0,0,0,3.82-1.87h0c.05-.09.1-.15.12-.19a5,5,0,0,0,.53-1.21,3.56,3.56,0,0,0-.13-2.47,5.17,5.17,0,0,0-2.15-2.27h0A10.57,10.57,0,0,0,22.81,32C20,31.22,18,30.12,16.9,28.65c-1.21-1.63-1.3-3.59,0-6A5.76,5.76,0,0,1,21.73,20a12.69,12.69,0,0,1,6.58,1.5,1,1,0,0,1,.45,1.38,1,1,0,0,1-1.39.45A10.55,10.55,0,0,0,21.88,22a3.77,3.77,0,0,0-3.18,1.65c-.86,1.57-.85,2.81-.15,3.75.81,1.09,2.49,1.93,4.82,2.59a13.24,13.24,0,0,1,3.23,1.36h0a7.09,7.09,0,0,1,3,3.21,5.67,5.67,0,0,1,.25,3.85A7.06,7.06,0,0,1,29,40.13c-.08.12-.13.21-.17.28h0a6.39,6.39,0,0,1-5.51,2.77,14.7,14.7,0,0,1-7.43-2.45C15.6,40.55,15.25,40.33,14.88,40.08Z"/><path class="a" d="M44.38,73.47H43.26V64.94h1.12Z"/><path class="a" d="M56.6,73.47H55.47l-4.3-6.57v6.57H50V64.94h1.13l4.31,6.6v-6.6H56.6Z"/><path class="a" d="M62.19,73.47V64.94H64.6a3.94,3.94,0,0,1,2,.49,3.37,3.37,0,0,1,1.32,1.4,4.53,4.53,0,0,1,.47,2.09v.54a4.6,4.6,0,0,1-.46,2.12A3.25,3.25,0,0,1,66.57,73a4.1,4.1,0,0,1-2,.5Zm1.13-7.61v6.69H64.5a2.58,2.58,0,0,0,2-.81,3.34,3.34,0,0,0,.72-2.3v-.5a3.43,3.43,0,0,0-.68-2.26,2.44,2.44,0,0,0-1.94-.82Z"/><path class="a" d="M80.23,69.48a5.13,5.13,0,0,1-.43,2.19,3.25,3.25,0,0,1-1.19,1.43,3.29,3.29,0,0,1-1.81.49,3.2,3.2,0,0,1-3-1.91,5,5,0,0,1-.45-2.12v-.62a5.28,5.28,0,0,1,.43-2.17A3.35,3.35,0,0,1,75,65.32a3.49,3.49,0,0,1,3.6,0,3.2,3.2,0,0,1,1.2,1.43,5.19,5.19,0,0,1,.43,2.19Zm-1.12-.55a3.87,3.87,0,0,0-.61-2.33,2,2,0,0,0-1.71-.81,2,2,0,0,0-1.68.81,3.86,3.86,0,0,0-.63,2.26v.62a3.84,3.84,0,0,0,.62,2.31,2.17,2.17,0,0,0,3.39,0,3.8,3.8,0,0,0,.62-2.28Z"/><path class="a" d="M92.07,73.47H90.94l-4.3-6.57v6.57H85.51V64.94h1.13L91,71.54v-6.6h1.12Z"/><path class="a" d="M102.49,69.53h-3.7v3h4.3v.92H97.67V64.94H103v.92H98.79v2.75h3.7Z"/><path class="a" d="M110.6,69.67a5.32,5.32,0,0,1-2.1-1,2,2,0,0,1-.66-1.5,2.06,2.06,0,0,1,.8-1.67,3.22,3.22,0,0,1,2.1-.66,3.54,3.54,0,0,1,1.56.34,2.59,2.59,0,0,1,1.07.94,2.44,2.44,0,0,1,.38,1.31h-1.13a1.57,1.57,0,0,0-.49-1.22,2,2,0,0,0-1.39-.45,2.07,2.07,0,0,0-1.3.37,1.23,1.23,0,0,0-.47,1,1.09,1.09,0,0,0,.45.88,4.27,4.27,0,0,0,1.5.66,7.23,7.23,0,0,1,1.67.66,2.58,2.58,0,0,1,.89.84,2.18,2.18,0,0,1,.29,1.13A2,2,0,0,1,113,73a3.48,3.48,0,0,1-2.16.62,4,4,0,0,1-1.65-.34,2.79,2.79,0,0,1-1.17-.92,2.21,2.21,0,0,1-.41-1.33h1.13a1.46,1.46,0,0,0,.57,1.22,2.4,2.4,0,0,0,1.53.45,2.22,2.22,0,0,0,1.36-.36,1.19,1.19,0,0,0,.48-1,1.15,1.15,0,0,0-.44-1A5.08,5.08,0,0,0,110.6,69.67Z"/><path class="a" d="M120,73.47h-1.13V64.94H120Z"/><path class="a" d="M130.49,71.24h-3.58l-.8,2.23H125l3.26-8.53h1l3.27,8.53H131.3Zm-3.24-.92h2.9l-1.45-4Z"/></svg>