<?xml version="1.0" encoding="utf-8"?>
<!-- Generator: Adobe Illustrator 25.2.1, SVG Export Plug-In . SVG Version: 6.00 Build 0)  -->
<svg version="1.1" id="Layer_1" xmlns="http://www.w3.org/2000/svg" xmlns:xlink="http://www.w3.org/1999/xlink" x="0px" y="0px"
	 viewBox="0 0 50 50" style="enable-background:new 0 0 50 50;" xml:space="preserve">
<style type="text/css">
	.st0{fill:#EA501F;}
	.st1{fill:#FFFFFF;}
</style>
<g>
	<path class="st0" d="M5.8,14.4h9.7c0.2-3,1.1-5.9,2.5-8.5C19.7,2.9,22.2,1,25,1s5.3,1.9,7,4.9c1.4,2.6,2.3,5.6,2.5,8.6h9.7
		c1.1,0,2.1,0.9,2.1,2c0,0,0,0.1,0,0.1l-1.9,27.2C44.1,47.1,42,49,38.9,49H11.1c-3.5,0-5.3-2.4-5.5-5.3l-2-27.2
		C3.7,15.4,4.6,14.4,5.8,14.4C5.7,14.4,5.8,14.4,5.8,14.4z M17.9,14.4h14.2c-0.2-2.6-1-5.1-2.2-7.3c-1.3-2.3-3-3.7-4.9-3.7
		s-3.6,1.4-4.9,3.7C18.9,9.4,18.1,11.9,17.9,14.4z"/>
	<path class="st1" d="M18,39.5c-0.5-0.3-0.6-0.9-0.3-1.4c0.3-0.5,0.9-0.6,1.4-0.3c0.3,0.2,0.6,0.4,0.9,0.6c1.8,1.2,3.9,1.9,6.1,2.1
		c1.5,0.1,2.8-0.6,3.7-1.8l0,0c0-0.1,0.1-0.1,0.1-0.2c0.2-0.4,0.4-0.8,0.5-1.2c0.2-0.8,0.2-1.6-0.1-2.4c-0.4-0.9-1.2-1.7-2.1-2.2
		l0,0c-0.8-0.5-1.7-0.8-2.6-1.1c-2.7-0.7-4.6-1.8-5.7-3.2c-1.2-1.6-1.2-3.4,0-5.8c1-1.6,2.8-2.5,4.6-2.5c2.2-0.1,4.4,0.4,6.3,1.4
		c0.5,0.2,0.7,0.8,0.5,1.3c0,0,0,0,0,0c-0.2,0.5-0.8,0.7-1.3,0.5c0,0,0,0-0.1,0c-1.6-0.9-3.4-1.3-5.3-1.3c-1.2,0-2.4,0.6-3.1,1.6
		c-0.8,1.5-0.8,2.7-0.1,3.6c0.8,1,2.4,1.9,4.6,2.5c1.1,0.3,2.1,0.7,3.1,1.3l0,0c1.3,0.7,2.3,1.8,2.9,3.1c0.5,1.2,0.6,2.5,0.2,3.7
		c-0.2,0.6-0.5,1.1-0.8,1.7c-0.1,0.1-0.1,0.2-0.2,0.3l0,0c-1.2,1.7-3.2,2.7-5.3,2.7c-2.5-0.1-5-0.9-7.1-2.4
		C18.6,39.9,18.3,39.7,18,39.5z"/>
</g>
</svg>
