<?xml version="1.0" encoding="utf-8"?>
<!-- Generator: Adobe Illustrator 25.2.1, SVG Export Plug-In . SVG Version: 6.00 Build 0)  -->
<svg version="1.1" id="Layer_1" xmlns="http://www.w3.org/2000/svg" xmlns:xlink="http://www.w3.org/1999/xlink" x="0px" y="0px"
	 viewBox="0 0 200 200" style="enable-background:new 0 0 200 200;" xml:space="preserve">
<g>
	<path d="M155.2,119.2c-0.4-1.9-1.6-3.4-3.7-4.8l-0.6-0.4l0.5-0.4c0.3-0.2,0.6-0.5,0.9-0.7c2.2-1.8,4.3-3.4,4.6-6.4
		c0.3-3.2-1-5.7-4-7.5l-0.4-0.2l0.2-0.4c2.2-3.9,2.1-7-0.3-9.4c-3.2-3.2-6.7-3.3-10.8-0.2l-0.5,0.4l-0.2-0.6c-0.9-2.5-2.8-4.4-5.2-5
		c-2.4-0.6-5,0.1-7.2,1.9c-1.7,1.5-3.6,3-5.4,4.4c-0.8,0.6-1.5,1.2-2.3,1.8c-0.6,0.5-1.2,1-1.9,1.5l-1.7,1.3l-0.1-0.9
		c0-0.2-0.1-0.4-0.1-0.6c-0.1-0.3-0.1-0.6-0.1-0.8c-0.1-2.5-1-4.8-2.6-7.1c-1.5-2.1-3.8-2.4-5.9-1c-0.4,0.3-0.8,0.6-1.2,1
		c-0.4,0.3-0.7,0.6-1.1,0.9c-0.3,0.2-0.6,0.3-0.8,0.4c-0.1,0-0.2,0.1-0.2,0.1l-1.2,0.6l0.5-1.2c0.3-0.7,0.6-1.3,0.9-2
		c0.7-1.4,1.3-2.8,1.7-4.2c0.5-2.1,0.4-3.8-0.5-4.9c-0.9-1.1-2.4-1.7-4.5-1.6c-10.3,0.1-20.7,0.1-30.9,0.1l-5.4,0
		c-7,0-12.2,2.6-16.1,8.1c-0.5,0.7-1.5,1-2.2,1.1c-1.6,0.1-3.2,0.1-4.8,0.1c-2,0-4.1,0.1-6.1,0.2c-5.3,0.3-10.5,5.6-10.7,10.8
		c-0.2,5.5-0.2,11.2-0.2,16.6c0,1.5,0,2.9,0,4.4c0,1.1,0.1,2.1,0.4,3.1c1.6,6,6.1,9.5,12.4,9.6c2.2,0,4.4,0,6.7,0c0.7,0,1.5,0,2.2,0
		c1.2,0,2.4,0,3.6,0c0.6,0,1.4,0.1,1.9,0.6c2.5,2.5,5.6,4.3,9.4,5.5l0.6,0.2l-0.5,0.8c-0.1,0.2-0.2,0.4-0.4,0.6
		c-3.6,5.2-3.5,10.8,0.4,15.7c4.1,5.2,8.2,10.2,12.2,15c4.6,5.4,11.6,6.3,17.3,2.2c2.3-1.6,4.5-3.4,6.6-5.2c1.3-1,2.5-2.1,3.8-3.1
		c0.5-0.4,1.3-0.8,2.1-0.8c5.6,0.3,10.6-1.5,15.3-5.4c4.7-3.9,9.4-7.8,14.1-11.5c3.1-2.5,6.1-5,9.1-7.5l1.8-1.5
		c2.9-2.4,6-4.9,8.8-7.4C155.2,124,155.8,121.9,155.2,119.2z M51.1,118.6c-0.9-2.8-1.8-2.7-2.7-2.4c-0.8,0.3-1.5,0.8-0.6,3.5
		c0.2,0.8,0.6,1.5,0.9,2.2c0.1,0.3,0.3,0.7,0.4,1l0.3,0.7h-0.7c-1.3,0-2.5,0-3.8,0.1c-2.8,0.1-5.8,0.1-8.6-0.1
		c-3.9-0.4-6.9-4.1-7-8.5c-0.1-7.2-0.1-13.6,0-19.7c0.1-5.4,4-9.2,9.5-9.2c1.8,0,3.6,0,5.5,0l3.2,0l-0.1,0.6
		c-1.1,5.2-0.5,9.9,1.7,14.1c1.2,2.2,2.8,4.2,4.4,6.1l0.8,0.9c0.4,0.4,0.8,0.7,1.3,0.7c0.5,0,0.9-0.2,1.3-0.5
		c0.4-0.3,0.5-0.7,0.5-1.2c0-0.5-0.3-1.1-0.8-1.5c-3.2-3.2-5.2-6.7-6-10.7C49,86.5,53.8,79,61.7,77.1c1-0.2,2.2-0.4,3.7-0.4
		c10,0,20,0,30,0l6.9,0c0.2,0,0.4,0,0.6,0l0.6,0l0.1,0.4c0.3,1.8-0.3,3.9-1.6,5.6c-1.5,2-3.6,3.3-5.9,3.6c-1.6,0.2-3.3,0.2-4.9,0.2
		l-0.6,0c-2.2,0-4.4,0-6.6,0c-1.5,0-3,0-4.5,0c-1.9,0-2.3,0.3-2.6,2.2l-0.1,0.4c-0.1,0.9-0.3,1.7-0.7,2.6c-1.2,2.7-3.5,4.4-6.7,4.8
		c-0.1,0-0.3,0-0.4,0c-0.1,0-0.2,0-0.3,0c-1.1,0.2-1.8,0.9-1.8,1.9c0.1,1,0.9,1.6,2,1.6c0,0,0,0,0,0c5,0,9.6-3.5,10.9-8.2
		c0.3-1.2,0.9-1.9,2.5-1.9c4,0.1,8,0.1,11.9,0.1c1.6,0,3.2,0,4.8,0c0.2,0,0.3,0,0.4,0.1c0.1,0,0.2,0.1,0.3,0.1l0.8,0.3L96,94.5
		c-0.1,0.1-0.3,0.2-0.4,0.3c-0.2,0.2-0.5,0.3-0.6,0.5c-1.7,1.9-3.8,2.7-6.3,2.3c-0.6-0.1-1.2-0.1-1.6,0c-0.5,0.2-1.5,0.7-1.9,1.3
		c-0.5,0.9,0.1,1.6,0.8,2c0.1,0.1,0.2,0.2,0.4,0.3l0.7,0.6l-2.8,2.3c-1.6,1.3-3.3,2.7-4.9,4c-5.6,4.5-8,10.1-7.3,17
		c0.1,0.7-0.4,1.4-0.8,1.8c-0.2,0.2-0.4,0.4-0.6,0.6c-1,0.9-2,1.9-3.2,2.5c-0.6,0.3-1.3,0.4-2,0.4c-0.7,0-1.3-0.1-1.8-0.2
		C57.4,128.4,53.1,124.6,51.1,118.6z M150.1,124.1c-9,7.3-17.9,14.6-26.9,21.9l-6.6,5.4c-3.7,3-7.9,4.2-12.6,3.8
		c-1.3-0.1-2.3,0.2-3.3,1.1c-2.3,2-4.8,4-7.1,5.9c-0.9,0.7-1.8,1.4-2.7,2.2c-2.1,1.7-4.4,2.6-6.6,2.6c-0.3,0-0.6,0-0.8,0
		c-2.5-0.3-4.8-1.7-6.8-4.1c-1.5-1.9-3.1-3.8-4.6-5.7c-2.3-2.8-4.6-5.7-6.9-8.5c-2.6-3.2-3-6.6-1.2-10c0.7-1.4,2-2.7,3.1-3.7
		c1.9-1.7,4-3.4,6-5.1c0.7-0.6,1.4-1.1,2-1.7c0.8-0.7,1.1-1.5,0.9-2.6c-1.1-5.7,0.7-10.6,5-14.2c7-5.8,14.2-11.6,21.1-17.3
		c2.8-2.2,5.5-4.5,8.3-6.7c0.1-0.1,0.2-0.1,0.3-0.2l0.6-0.4l0.3,0.4c3.3,4.5,2.7,9.7-1.5,13.4c-1.8,1.5-3.7,3.1-5.5,4.5
		c-1.3,1-2.5,2.1-3.8,3.1c-0.7,0.6-1,0.9-1,1.1c0,0.7,0.2,1.6,0.7,2.1c0.8,0.8,1.8,0.1,2.2-0.2c2.2-1.8,4.4-3.6,6.6-5.3l6.4-5.3
		c5.1-4.2,10.4-8.5,15.7-12.7c0.9-0.7,2.3-1.1,3.4-1.1c1.5,0.1,2.6,1.2,2.9,2.9c0.3,1.4-0.3,2.7-1.6,3.7l-12,9.8
		c-4.2,3.4-8.3,6.8-12.5,10.2c-1.2,1-1.1,1.6-0.9,2c0.3,0.6,1.1,1.1,1.7,1.3c0.3,0.1,1-0.2,1.6-0.8c3.8-3,7.5-6.1,11.3-9.2l7.9-6.5
		c3.7-3,7.4-6.1,11.2-9.1c1.2-1,2.7-1.4,3.9-1c1.1,0.3,1.9,1.2,2.3,2.4c0.6,2.1-0.7,3.5-1.7,4.3c-3.7,3-7.3,6-11,9l-19.2,15.7
		c-0.2,0.1-0.3,0.3-0.5,0.4c-0.9,0.9-1,1.7-0.4,2.5c0.3,0.4,0.7,0.6,1.1,0.7c0.5,0.1,1-0.1,1.5-0.5c2.3-1.8,4.6-3.7,6.8-5.5l7.8-6.3
		c4-3.2,7.9-6.5,11.9-9.7c1.6-1.3,3.4-1.6,4.7-0.7c1.5,0.9,2.1,2.4,1.6,3.9c-0.3,0.9-1,1.9-1.8,2.6c-5.6,4.6-11.3,9.2-16.8,13.7
		l-5,4.1c-0.1,0.1-0.2,0.2-0.4,0.3c-0.9,0.8-1,1.9-0.4,2.6c0.7,0.8,1.7,0.8,2.6,0.1c2.1-1.7,4.2-3.4,6.2-5.1l4.1-3.4
		c1.2-1,2.4-1.9,3.6-2.9c1.1-0.9,2.3-1.3,3.3-1.1c0.9,0.1,1.7,0.6,2.3,1.4C152.5,120.3,152.1,122.5,150.1,124.1z"/>
	<path d="M114.7,65.2c0,0.3,0.1,0.5,0.1,0.8c0.1,0.5,0.1,1.1,0.3,1.6c0.9,4.5,4.4,8,8.8,8.7c5,0.9,8.9-0.7,11.7-4.8
		c2.7-4,2.7-8.1,0.2-12.2c-2.1-3.4-4.2-6.8-6.3-10.1l-1.3-2.1c-0.4-0.7-1.1-1.5-1.9-1.5c-0.8,0-1.5,0.9-2,1.6c-0.7,1-1.3,2.1-2,3.1
		c-1.9,2.9-3.8,6-5.6,9.1c-0.7,1.2-1.2,2.6-1.6,4c-0.2,0.5-0.3,1-0.5,1.5l0.2,0.1L114.7,65.2z M119.4,61.4c1.4-2.3,2.8-4.5,4.3-6.9
		c0.7-1,1.3-2.1,2-3.2l0.4-0.7l0.4,0.7c0.7,1.2,1.4,2.3,2.2,3.4c1.7,2.6,3.2,5.1,4.6,7.7c1.6,3,0.4,7.1-2.8,9.3
		c-1.3,0.9-2.9,1.4-4.4,1.4c-2,0-3.9-0.7-5.4-2.2C118.2,68.5,117.6,64.4,119.4,61.4z"/>
	<path d="M67.4,56l0.2,0c0.2,0,0.3,0.1,0.5,0.1c3.5,0.7,5.9,2.8,7.1,6.3c0.1,0.3,0.2,0.7,0.2,1c0,0.3,0.1,0.7,0.2,0.9
		c0.5,0.7,1.2,1.2,1.5,1.2c0,0,0,0,0,0c0.3,0,1.1-0.7,1.4-1.1l0.1-0.1c0-0.1,0.1-0.4,0.1-0.5c0-0.1,0-0.3,0.1-0.4
		c0.4-2.4,1.6-4.3,3.5-5.5c1.2-0.8,2.6-1.2,4-1.6c1.3-0.4,1.9-0.7,2-1.7c-0.1-0.8-0.6-1.3-1.4-1.4c-4.6-0.8-7.4-3.5-8.2-8.1l0-0.1
		c-0.2-0.9-0.7-1.3-1.5-1.3c0,0,0,0,0,0c-0.5,0-1.1,0.2-1.5,1.3L75.5,45c-0.4,1.3-0.7,2.6-1.4,3.8c-1.3,2.3-3.6,3.7-6.7,4.2
		c-1.2,0.2-1.4,0.9-1.4,1.5C66,55,66.2,55.7,67.4,56z M77.4,50.7l3.2,3.9l-3.5,3.8l-3.8-4.1L77.4,50.7z"/>
	<path d="M163,142.9c-4.3-0.8-6.9-3.4-7.7-7.6c-0.3-1.6-0.9-1.9-1.6-1.9c0,0,0,0-0.1,0c-0.6,0-1.3,0.3-1.6,1.9
		c-0.8,4.2-3.3,6.7-7.6,7.6c-1.4,0.3-1.8,0.7-1.9,1.6c0,0.6,0.1,1.1,2,1.7c1.8,0.6,3.3,1.3,4.5,2.1c1.6,1.1,2.6,2.9,2.9,5.3
		c0.2,1.4,0.7,1.9,1.7,1.9c0.7,0,1.2-0.4,1.5-1.8c0.8-4.3,3.4-6.9,7.7-7.6c1.6-0.3,1.8-1,1.8-1.6C164.7,143.8,164.5,143.2,163,142.9
		z M153.6,148.3l-3.7-4.1l4-3.4l3.6,3.6L153.6,148.3z"/>
	<path d="M172.7,79.5c-4.4-0.8-7.1-3.4-7.8-7.9c-0.3-1.5-1-1.6-1.6-1.6c0,0,0,0,0,0c-0.3,0-1.3,0-1.6,1.7c-0.7,4.3-3.3,7-7.7,7.8
		c-1.5,0.3-1.7,0.8-1.7,1.6c0,0.7,0.3,1.2,1.7,1.5c4.4,0.9,6.9,3.4,7.7,7.6c0.3,1.5,0.8,1.8,1.6,1.8c0.8,0,1.4-0.3,1.6-1.8
		c0.4-2.6,1.6-4.6,3.4-5.8c1.3-0.9,2.9-1.4,4.3-1.9c1.2-0.4,1.8-0.7,1.9-1.7C174.2,80.1,173.7,79.7,172.7,79.5z M163.1,84.9
		l-3.7-3.9l4.1-3.5l3.5,3.7L163.1,84.9z"/>
	<path d="M155.2,58c3.2-1.1,5.4-4,5.8-7.6c-0.1-0.4-0.3-0.9-0.4-1.3c-0.3-1.1-0.6-2-1.1-2.9c-1.3-2.2-2.7-4.4-4-6.6l-1-1.5
		c-0.4-0.7-1.1-1.5-1.9-1.5h0c-0.8,0-1.5,0.8-1.9,1.4c-1.9,2.9-3.5,5.6-5.1,8.2c-1.8,2.9-1.5,6.6,0.7,9.3
		C148.4,58,152.1,59.1,155.2,58z M148.4,48.4c0.8-1.4,1.6-2.8,2.5-4.2c0.4-0.6,0.8-1.2,1.2-1.9l0.4-0.7l0.4,0.7
		c0.4,0.6,0.8,1.3,1.2,1.9c0.9,1.4,1.7,2.6,2.5,4c1.1,1.9,0.6,4.2-1.2,5.7c-0.8,0.6-1.8,1-2.9,1c-0.9,0-1.9-0.3-2.6-0.8
		C148.1,52.8,147.4,50.2,148.4,48.4z"/>
	<path d="M100.9,50.9c3.3,1.1,6.8,0.2,9-2.5c2.2-2.7,2.4-6.4,0.7-9.3c-1.5-2.5-3.2-5.1-5.1-8c-0.4-0.7-1.1-1.5-1.9-1.5
		c-0.8,0-1.4,0.8-1.9,1.4l-1,1.6c-1.4,2.1-2.8,4.2-4,6.4c-0.5,0.9-0.8,1.9-1.1,2.9c-0.1,0.4-0.3,0.9-0.4,1.3
		C95.5,46.8,97.7,49.8,100.9,50.9z M99.5,41.1c0.6-1.1,1.3-2.2,2-3.2c0.3-0.4,0.5-0.8,0.8-1.3c0.2-0.3,0.3-0.5,0.5-0.8l0.8-1.1
		l0.4,0.7c0.4,0.6,0.8,1.2,1.2,1.8c0.9,1.4,1.7,2.7,2.5,4.1c1,1.8,0.4,4.3-1.3,5.6c-0.8,0.6-1.8,0.9-2.8,0.9c-1.1,0-2.1-0.3-2.9-1
		C99,45.4,98.5,43,99.5,41.1z"/>
</g>
</svg>
