<?xml version="1.0" encoding="utf-8"?>
<!-- Generator: Adobe Illustrator 25.2.1, SVG Export Plug-In . SVG Version: 6.00 Build 0)  -->
<svg version="1.1" id="Layer_1" xmlns="http://www.w3.org/2000/svg" xmlns:xlink="http://www.w3.org/1999/xlink" x="0px" y="0px"
	 viewBox="0 0 200 200" style="enable-background:new 0 0 200 200;" xml:space="preserve">
<g>
	<path d="M163,133.7c-4.4-19.6-16-34.5-34.4-44.1c-1.3-0.7-1.8-1.5-1.8-2.9c0-5.9,0-11.8,0-17.7l0-7.2h-12.5l0-5.9
		c0-3.8,0-7.5,0-11.3c0-4.3-2.9-7.2-7.3-7.2c-4.7,0-9.5,0-14.3,0c-4.5,0-7.3,2.9-7.3,7.4c0,3.3,0,6.6,0,10l0,7.1H73l0,7.2
		c0,5.6,0,11.4,0,17.2c0,0.9,0,2.8-2.2,3.2c-0.2,0-0.4,0.1-0.6,0.3C70.1,89.9,70,90,69.9,90c-10.7,5.1-19.2,13.3-26.1,25
		c-5,8.6-7.5,16.5-7.5,24.3c0,5.9,0.7,11.8,1.4,16.3c1,6.6,4.6,11.9,10.6,15.3c1.8,1,3.9,1.7,5.9,2.3c0.9,0.3,1.8,0.6,2.8,0.9h85.8
		c0,0,0.1,0,0.1,0c0.2-0.1,0.4-0.2,0.7-0.2c5.1-0.8,9.6-3.2,13.2-7.1c3.2-3.5,5-7.8,5.8-13.6C163.4,147.1,164.4,140.3,163,133.7z
		 M89.2,44.6c0-2,1.3-3.3,3.3-3.3c4.7,0,9.5,0,14.8,0c2,0,3.3,1.3,3.3,3.2c0,4,0,8.1,0,12l0,5.3H89.1l0-5.4
		C89.1,52.4,89.1,48.5,89.2,44.6z M76.8,65.8H123v22.3H76.8V65.8z M157.9,157.2c-2.1,7.9-9.5,13.2-18.2,13.2c-5.4,0-10.8,0-16.1,0
		c-3.9,0-7.9,0-11.8,0l-11.8,0l-11.8,0c-9.3,0-18.6,0-27.9,0c-9.3,0-16.6-5.7-18.7-14.5c-3.3-14.3-1.6-26.9,5.2-38.5
		c6.7-11.3,14.7-19.1,24.4-23.9c2.3-1.1,4.6-1.7,7.2-1.7c0,0,0.1,0,0.1,0c8.6,0,17.3,0,25.7,0c6.2,0,12.4,0,18.6,0
		c1,0,2.4,0.1,3.6,0.8c17.9,9.1,29,23.2,33,41.9C160.7,141.2,160.2,148.6,157.9,157.2z"/>
	<rect x="50.5" y="43.3" width="16.1" height="3.4"/>
	<polygon points="70.3,35.3 60.9,25.9 58.7,27.9 68.1,37.3 	"/>
	<polygon points="61,64.1 70.4,54.8 68.1,52.5 58.7,61.9 	"/>
	<path d="M128,104.7c-0.3-0.1-0.6-0.2-0.8-0.2c-4.2-0.6-8.2-1-12.1-1c-5.1,0-9.9,0.5-14.6,1.6c-13,3-21.7,10.8-26,23
		c-3,8.7-4,18.1-2.9,28.8c0.1,0.8,0.2,0.9,1,1c8.8,1.4,17,1.3,25-0.4c14.3-2.9,23.8-11.2,28-24.7C128.3,124.4,129.1,115.2,128,104.7
		C128.1,104.7,128,104.7,128,104.7z M88.5,114.5l0.2-0.2c4.8-3.4,10.3-5.5,16.6-6.3c3.1-0.4,6.3-0.5,9.3-0.6c1.3,0,2.6-0.1,3.9-0.2
		c0.3,0,0.6,0,1,0c0.2,0,0.5,0,0.8,0.1l1.7,0.1l-31,29.3l-1.2-6.2c-0.9-4.6-1.8-9-2.7-13.4C86.7,115.7,87.8,115,88.5,114.5z
		 M75,151.9l0-1.8c0.1-9.2,1.2-19.9,7.6-29.7l1-1.5l2.9,14.5c0,0.1,0,0.2,0,0.3c1.8,4.2,0.7,7.6-3.5,10.7c-1.6,1.1-3,2.6-4.5,4.1
		c-0.7,0.7-1.5,1.5-2.3,2.3L75,151.9z M120.1,137.4c-0.5,0.7-1,1.4-1.4,2.1c-1,1.5-1.9,3-3.1,4.3c-3.9,4.7-9.2,7.8-16.8,9.7
		c-4.2,1.1-8.7,1.6-14.1,1.6c-1.8,0-3.6-0.1-5.6-0.2l-1.8-0.1l3.1-2.9c3-2.8,5.8-5.5,8.7-8.2l3-2.8c2.8-2.7,5.8-5.4,8.7-8.1
		c0.6-0.5,1.6-1,2.4-0.8c4.2,1,8.3,2.1,12.7,3.3l4.8,1.3L120.1,137.4z M121.9,132.2l-0.2,0.7l-16.6-4.3l19.6-18.5l0,1.7
		C124.9,119.2,124,125.6,121.9,132.2z"/>
</g>
</svg>
