<?xml version="1.0" encoding="utf-8"?>
<!-- Generator: Adobe Illustrator 25.2.1, SVG Export Plug-In . SVG Version: 6.00 Build 0)  -->
<svg version="1.1" id="Layer_1" xmlns="http://www.w3.org/2000/svg" xmlns:xlink="http://www.w3.org/1999/xlink" x="0px" y="0px"
	 viewBox="0 0 200 200" style="enable-background:new 0 0 200 200;" xml:space="preserve">
<style type="text/css">
	.st0{fill:#231F20;}
</style>
<g>
	<path class="st0" d="M54,169.5c0-1-0.6-1.7-1.5-1.7c-1,0-1.6,0.6-1.6,1.7c0,0.5,0,1,0,1.5c0,0.6,0,1.1,0,1.7
		c-0.1,1.2,0.3,1.9,1.1,2.5h1.1c0.1-0.2,0.2-0.3,0.3-0.5c0.3-0.5,0.7-0.9,0.7-1.3c0.2-1,0.1-2.2,0.1-3.3L54,169.5z"/>
	<path class="st0" d="M153,137.7l0.1-0.4h1.1c4.1,0,7.4-2.4,8.6-6.1c1.3-3.8,0-7.6-3.2-10c-0.9-0.7-0.8-1.5-0.7-2.1
		c0.4-1.8,0-3.7-1.1-5.2c-1-1.5-2.6-2.5-4.3-2.8c-2-0.3-3.9,0.1-5.4,1.3c-1.5,1.1-2.4,2.7-2.6,4.6c-0.2,1.9,0.3,3.7,1.6,5.4l0.2,0.2
		l-1.8,3.8l-2.1-0.2c-1.8-0.1-3.5-0.3-5.2-0.5c-0.3,0-0.6-0.1-0.8-0.2c-0.1,0-0.2-0.1-0.3-0.1l-0.6-0.1l0.3-0.6
		c0-0.1,0.1-0.2,0.1-0.3c0.1-0.3,0.2-0.6,0.5-0.8c2.3-2,3.9-4.4,4.9-7.2c1.7-4.9,2-10.2,0.8-15.7c-0.7-3.3-2.4-5.1-5.1-5.7l-0.7-0.2
		l0.7-1.1c0.2-0.3,0.3-0.6,0.5-0.9c7.5-12.9,9.9-26.5,7-40.6c-0.2-1.1-0.4-1.6-0.7-1.9l-0.1-0.1c-2.3-3.3-5.1-6.5-8.8-9.8
		c-6.8-6.2-14.3-10.7-22.4-13.6c-6-2.1-12.5-3.1-18.9-3.1c-4.8,0-9.6,0.6-14.2,1.7c-8.7,2.2-17.3,6.7-24.8,12.9
		c-4.6,3.9-8.4,8-11.2,12.2c-0.2,0.3-0.3,0.5-0.3,0.8c-0.3,1.3-0.6,2.5-0.8,3.7c-1.5,9.8-0.5,19.4,3.1,28.5c1,2.5,2.2,5,3.4,7.4
		c0.6,1.1,1.1,2.2,1.7,3.4l0.3,0.6l-0.6,0.1c-2.4,0.6-4,2.4-4.8,5.7c-0.8,3.3-1,6.7-0.5,10.6c1.1,8.3,5.2,13.5,12.5,15.6
		c0.5,0.2,1,0.8,1.2,1.3c0.6,1.5,1.2,3,1.9,4.5c0.8,2.1,1.7,4.2,2.6,6.2c0.4,0.9,0.2,1.5-0.4,2.1c-2.3,2.3-5.1,3.4-8.3,3.5
		c-0.9,0-2,0.3-2,1.6c0,1.4,1.2,1.6,2,1.6c5.5,0.2,9.3,2.9,11.2,7.9c0.6,1.8,1,3.6,1.3,5.5c0.1,0.6,0.2,1.3,0.3,1.9
		c0.2,1,0.6,1.4,1.5,1.5c0.8,0.1,1.5-0.4,1.7-1.3c0.1-0.3,0.1-0.6,0.1-0.9c0-0.2,0-0.4,0-0.5c0.3-3.3,1.2-6.1,2.8-8.7l0.3-0.5
		l1.1,0.9c9,7,19.2,8.7,30.2,5c5.8-1.9,10.8-5.8,15.4-11.9c0.6-0.8,1.2-1.1,2.3-1c1.3,0.1,2.5,0,3.6-0.2c1-0.2,1.7-0.1,2.4,0.9
		c3.2,4.3,7.3,6.2,12.5,5.5c5.5-0.8,9.2-3.9,10.9-9.3c0.3-1,0.4-2.1,0.6-3.2C152.9,138.8,152.9,138.3,153,137.7z M152.4,114.2
		c2,0,3.6,1.7,3.5,3.7c0,2-1.7,3.6-3.6,3.6c0,0,0,0,0,0c-1,0-1.9-0.4-2.6-1.1c-0.7-0.7-1-1.7-1-2.6
		C148.7,115.7,150.3,114.2,152.4,114.2z M139.1,99.6c0.5,1.4,1.1,2.9,1.2,4.5c0.4,4.6,0.1,8.3-1.1,11.5c-1,2.6-2.5,4.7-4.4,6
		l-0.2,0.2l-0.3-0.1c-2.3-1-2.1-2.7-1.9-4.4c0.6-5.4,1-10.9,1.3-16.3c0.1-1.7,1.1-2.2,2.1-2.5C137.4,97.9,138.6,98.4,139.1,99.6z
		 M142.3,53.7c2.7,15-0.2,28.4-9,41.1l-0.4,0.6l-0.4-0.7c-10.6-17.9-23.3-31.2-38.9-40.5L92,53.3h50.2L142.3,53.7z M113.1,73.8
		l-1.3-0.1c-0.5,0-0.9-0.1-1.3-0.1c-0.8-0.1-1.5-0.1-2.2-0.2c-4.5-0.1-8.9-0.2-13.4-0.2c-5.5-0.1-9.6-0.9-13.2-2.8l-0.1-0.1
		c-0.2-0.1-0.4-0.2-0.6-0.3c-0.1-0.1-0.2-0.2-0.3-0.3c0-0.1-0.1-0.1-0.1-0.2l-0.2-0.4l0.3-0.3c0.6-0.5,1.3-1.1,1.9-1.6
		c1.5-1.2,3-2.5,4.5-3.7c1.8-1.3,3.7-2.6,5.5-3.8l1-0.7c0.4-0.2,1.1-0.4,1.6-0.1c6.2,3.9,11.8,8.4,17,13.9L113.1,73.8z M49.9,49.2
		c1.8-2.1,3.7-4.1,5.8-6c6.4-5.9,13.8-10.3,21.5-12.9c10.2-3.3,21.4-3.6,31.6-0.8c7.9,2.2,15.9,6.5,22.4,12.1
		c2.6,2.2,5.1,4.6,7.2,7.2l1.1,1.3l-90.4,0L49.9,49.2z M57.1,123.2c-1.7-0.7-3.2-1.7-4.6-3.2l0,0c-2.1-2.3-3.3-5.2-3.8-8.9
		c-0.5-4-0.4-7.3,0.5-10.2c0.4-1.4,1-2.2,1.8-2.6c0.8-0.4,1.8-0.3,3.2,0.4c1,0.5,1.2,1.2,1.2,1.9c0.3,4.5,0.8,10.4,1.4,16.4
		c0.1,1.2,0.3,2.4,0.6,3.7c0.1,0.6,0.2,1.2,0.3,1.9l0.1,0.9L57.1,123.2z M56.5,94.8l-0.4,0.7l-0.4-0.6c-8.8-12.6-11.7-26-9-41.1
		l0.1-0.4h30.4l-1.6,1.2c-0.2,0.2-0.4,0.3-0.6,0.5c-4.1,2.9-7.7,6.2-10.7,9.9c-0.5,0.6-0.7,1.2-0.7,1.7c0,0.4,0.2,0.7,0.6,1
		c0.8,0.7,1.7,0.4,2.6-0.6c4.6-5.5,10.1-9.9,16.3-13c0.6-0.3,1.5-0.3,2.2-0.1c1.3,0.5,2.5,1.1,3.8,1.7c0.5,0.2,1,0.5,1.6,0.7
		l0.8,0.4l-0.8,0.5C77.1,66,65.9,78.4,56.5,94.8z M69.8,153.5l-0.4,0.8l-0.5-0.7c-0.3-0.4-0.6-0.8-0.9-1.3c-0.6-0.9-1.2-1.8-1.9-2.6
		c-0.7-0.8-1.5-1.5-2.3-2.2c-0.4-0.3-0.8-0.7-1.2-1l-0.5-0.4l0.5-0.4c2.6-1.7,4.5-3.9,6-6.9l0.5-0.9l0.4,0.9c1.4,3,3.4,5.2,6.1,7
		l0.6,0.4l-0.6,0.4C73.1,148.5,71.1,150.7,69.8,153.5z M117.9,145.1c-5,6.5-10.7,10.2-17.5,11.6c-2,0.4-4,0.6-5.9,0.6
		c-6.4,0-12.3-2.1-17.7-6.4l-0.5-0.4l0.5-0.4c1.7-1.3,3.7-2,6.2-2.2c0.2,0,0.4,0,0.5,0c0.2,0,0.3,0,0.5,0c0.9-0.1,1.5-0.7,1.5-1.6
		c0-0.9-0.6-1.5-1.5-1.6c-0.3,0-0.7-0.1-1-0.1c-0.8-0.1-1.6-0.1-2.3-0.3c-4.3-1-7.2-3.9-8.7-8.6c-0.6-1.8-0.8-3.7-1-5.5l0-0.3
		c-0.2-1.8-1-2-1.7-2.1c-0.7,0-1.4,0.2-1.6,1.9c-0.2,1.3-0.4,2.5-0.6,3.8l-0.3,2l-1,0.2l-0.3-0.6c-0.1-0.2-0.3-0.4-0.4-0.7
		c-2.8-6.3-4.6-13.3-5.4-20.8c-0.4-3.9-0.6-7.8-0.8-11.7c-0.1-1.1-0.1-2.2-0.2-3.3c0-0.7,0.2-1.5,0.5-2.1
		c4.8-8.5,10.6-16.5,17.4-23.6c0.6-0.7,1.3-1,2.3-0.4c4.5,2.5,9.5,3.7,15.1,3.8c4.4,0.1,8.9,0.3,13.3,0.4c1.8,0.1,3.6,0.2,5.4,0.2
		c2.6,0.1,4.6,1.2,6.2,3.4c3.3,4.4,7.6,10.3,11.1,16.8c0.3,0.5,0.6,1.2,0.5,1.9c-0.4,5.2-0.8,10.4-1.2,15.5l-0.2,2.4
		c0,0.2-0.1,0.3-0.1,0.5c0,0.1,0,0.1-0.1,0.2l-0.2,0.5l-0.5-0.1c-8.5-2.5-15.4,2.2-17.8,8.2c-2.8,7,0.2,14.6,7.1,18.2l0.5,0.3
		L117.9,145.1z M123.9,142.5C123.9,142.5,123.9,142.5,123.9,142.5c-6.1,0-11-4.9-11-11c0-6.1,4.9-11,11-11c3,0,5.7,1.1,7.8,3.3
		c2.1,2.1,3.3,4.9,3.2,7.8C134.9,137.6,129.9,142.5,123.9,142.5z M144.2,147.7c-1.5,0.7-3,1.1-4.5,1.1c-3.3,0-6.4-1.6-8.3-4.6
		l-0.3-0.4l0.4-0.3c4.8-3.4,7-8,6.5-13.9l0-0.4l0.4-0.1c3.8-1.1,8.8,1.7,10.5,5.9C150.8,139.9,148.8,145.4,144.2,147.7z M151,132.3
		c-0.4-0.8-0.9-1.5-1.5-2.1c-1.2-1.5-1-4.2,0.4-5.4c0.4-0.3,0.9-0.3,1.3-0.2c1.7,0.2,3.3-0.1,4.8-0.9c0.5-0.3,1.3-0.2,1.8,0.1
		c1.6,1.1,2.4,2.7,2.4,4.7c0,1.7-0.8,3.3-2.1,4.4c-1,0.8-2.3,1.3-3.6,1.3c-0.4,0-0.8,0-1.2-0.1C152.2,133.8,151.5,133.2,151,132.3z"
		/>
	<path class="st0" d="M162.6,154c-1.9-1.9-4.4-3-7.1-3c0,0-0.1,0-0.1,0c-5.5,0-9.9,4.3-10,9.9c-0.1,2.6,0.9,5.1,2.8,7
		c1.9,2,4.4,3.1,7,3.1c2.6,0,5.2-1,7.1-2.9c1.9-1.9,3-4.4,3-7.1C165.5,158.4,164.5,155.9,162.6,154z M160.2,165.8
		c-1.3,1.3-3,2-4.8,2c0,0,0,0-0.1,0c-3.7,0-6.7-3.1-6.7-6.8c0-1.8,0.7-3.5,2-4.8c1.3-1.3,3-2,4.9-2c3.7,0,6.8,3.1,6.8,6.8
		C162.2,162.8,161.5,164.5,160.2,165.8z"/>
	<path class="st0" d="M132.2,155.2c-3.2,0-5.7,2.6-5.7,5.8c0,3.2,2.6,5.8,5.7,5.8c0,0,0,0,0,0c1.5,0,3-0.6,4.1-1.7
		c1.1-1.1,1.7-2.6,1.7-4.1c0-1.5-0.6-3-1.7-4.1C135.3,155.8,133.8,155.2,132.2,155.2z M132.3,163.6
		C132.3,163.6,132.3,163.6,132.3,163.6c-0.7,0-1.3-0.3-1.8-0.7c-0.5-0.5-0.8-1.2-0.8-1.9c0-0.7,0.3-1.4,0.8-1.8
		c0.5-0.5,1.2-0.7,1.9-0.7c0.7,0,1.4,0.3,1.9,0.8c0.5,0.5,0.7,1.2,0.7,1.8C134.8,162.4,133.7,163.5,132.3,163.6z"/>
	<path class="st0" d="M48.2,163.6c-0.5,0-1,0-1.4,0l-0.6,0c-0.2,0-0.5,0-0.7,0c-0.2,0-0.4,0-0.6,0c-0.3,0-0.5,0-0.8,0
		c-0.9,0.1-1.5,0.7-1.5,1.5c0,0.4,0.1,0.8,0.4,1.1c0.3,0.3,0.6,0.5,1,0.5c1.4,0.1,2.9,0.1,4.5,0c0.9,0,1.5-0.7,1.5-1.6
		C49.7,164.2,49.2,163.6,48.2,163.6z"/>
	<path class="st0" d="M54,159.5L54,159.5l0-0.5c0-0.3,0-0.5,0-0.8c0-0.6,0-1.1,0-1.6c-0.1-0.8-0.7-1.3-1.5-1.4c0,0,0,0,0,0
		c-0.5,0-1.5,0.2-1.5,1.2c-0.1,1.5-0.1,3.1,0,4.8c0.1,1.1,1,1.3,1.5,1.3c0.8,0,1.4-0.6,1.5-1.4c0-0.5,0-1,0-1.5
		C54,159.6,54,159.5,54,159.5z"/>
	<path class="st0" d="M60.8,163.6c-0.5,0-1,0-1.4,0l-0.6,0c-0.2,0-0.5,0-0.7,0c-0.2,0-0.4,0-0.7,0c-0.3,0-0.5,0-0.8,0
		c-0.9,0.1-1.5,0.6-1.5,1.5c-0.1,0.9,0.5,1.6,1.4,1.7c1.4,0.1,2.9,0.1,4.5,0c0.9,0,1.5-0.7,1.5-1.6
		C62.4,164.3,61.7,163.6,60.8,163.6z"/>
	<path class="st0" d="M104.8,133.3l-0.5-0.1c-1.3-0.3-2.6-0.6-3.8-1.3c-2-1.2-4-1.8-6-1.8c-2,0-3.9,0.6-5.9,1.7
		c-1.3,0.7-2.8,1.1-4.2,1.4c-0.9,0.2-1.6,0.7-1.8,1.3c-0.2,0.6-0.2,1.2,0.2,1.9c0.5,0.8,1.2,1.5,2,2.1c2.6,1.9,5.8,2.9,9.7,2.9
		c4.1-0.1,7.4-1.1,10-3.2c0.8-0.6,1.5-1.4,1.9-2.2c0.3-0.7,0.2-1.2,0-1.6C106.1,133.9,105.5,133.5,104.8,133.3z M101.2,136.5
		c-1.7,1.2-4.2,1.8-6.6,1.8c-2.5,0-5-0.6-6.9-1.8l-0.9-0.5l1-0.4c0.6-0.2,1.2-0.4,1.8-0.7c1.6-0.6,3.1-1.2,4.7-1.7
		c0.5-0.2,1.1,0.1,1.6,0.3l0.2,0.1c1.2,0.5,2.4,0.9,3.7,1.4l2.3,0.9L101.2,136.5z"/>
	<path class="st0" d="M118.7,102.9c-3.6,2.5-7.8,3.2-12.9,2c-0.7-0.2-2-0.3-2.4,1c-0.3,1,0.3,1.7,1.5,2.1c2.8,0.8,5.5,1,8.2,0.5
		c0.2,0,0.4-0.1,0.6-0.1c0.8,0,1.3,0.3,1.8,1c1.1,1.5,2.3,2.4,3.7,2.6c1,0.2,1.8-0.4,2-1.3c0.2-1.1-0.8-1.7-1.3-1.9
		c-0.4-0.2-0.8-0.4-1.1-0.6c-0.1-0.1-0.3-0.2-0.5-0.3l-0.3-0.2l0.4-1.4l0.4,0.1c0.1,0,0.3,0,0.4,0c0.3,0,0.7,0.1,1,0.2
		c0.4,0.1,0.9,0.3,1.3,0.5c0.7,0.3,1.4,0.5,2.1,0.7c0.4,0.1,0.7,0,1-0.2c0.3-0.2,0.6-0.7,0.7-1.1c0.2-1.2-0.9-1.7-1.3-1.8
		c-1.1-0.4-2.2-1-3.2-1.6C120,102.5,119.4,102.5,118.7,102.9z"/>
	<path class="st0" d="M85.2,105.3c-0.4-0.5-1.1-0.6-1.8-0.5c-5.2,1.3-9.5,0.7-13.2-1.9c-0.6-0.4-1.3-0.4-2.2,0.2
		c-0.9,0.6-2,1.2-3.1,1.6c-1.1,0.4-1.5,1-1.4,1.9c0.1,0.4,0.3,0.8,0.6,1.1c0.2,0.2,0.6,0.3,1.1,0.2c0.7-0.1,1.4-0.4,2.1-0.7
		c0.5-0.2,0.9-0.3,1.4-0.5c0.3-0.1,0.7-0.1,1-0.1c0.1,0,0.3,0,0.4,0l0.5,0l0.2,1.3l-0.3,0.2c-0.1,0.1-0.3,0.2-0.4,0.3
		c-0.3,0.2-0.6,0.5-1,0.6c-1.2,0.5-1.7,1.2-1.4,2.2c0.1,0.4,0.5,0.8,0.9,1c0.4,0.2,0.9,0.2,1.3-0.1c1.2-0.6,2.3-1.5,3.4-2.6
		c0.7-0.7,1.3-1.1,2.4-0.9c2.8,0.5,5.6,0.3,8.3-0.6c0.6-0.2,1.2-0.7,1.4-1.2C85.6,106.2,85.5,105.6,85.2,105.3z"/>
	<path class="st0" d="M103.3,97L103.3,97l0.4-0.1c2-0.6,4.1-1.3,6.1-2c3.5-1.3,6.5-1.3,9.3,0c0.5,0.2,1,0.2,1.4-0.1
		c0.5-0.3,0.8-1,0.8-1.7c-0.1-0.1-0.1-0.1-0.2-0.2c-0.2-0.3-0.6-0.7-0.9-0.9c-1.6-0.9-3.3-1.3-5.2-1.3c-0.3,0-0.6,0-0.9,0
		c-3,0.2-5.9,1.3-8.7,2.4c-1.1,0.4-2.2,0.8-3.2,1.2c-0.4,0.1-0.6,0.4-0.7,0.6c-0.2,0.4-0.2,0.9,0,1.3
		C101.7,96.8,102.5,97.2,103.3,97z"/>
	<path class="st0" d="M68.5,94.8c0.5,0.2,1,0.1,1.7-0.1c1.3-0.6,2.7-0.9,4.1-0.9c1.1,0,2.3,0.2,3.5,0.6c2.4,0.8,4.9,1.6,7.3,2.4
		c0.7,0.2,2,0.4,2.5-0.9c0.3-0.9-0.2-1.7-1.4-2.1l-0.4-0.1c-1.3-0.4-2.6-0.9-3.9-1.3c-1.7-0.5-3.4-1-5.1-1.5l-2.1-0.6
		c-0.6,0.1-1.1,0.3-1.7,0.4c-1.4,0.3-2.7,0.7-4,1.1c-0.6,0.2-1,0.5-1.2,1c-0.2,0.4-0.2,0.8,0,1.3C67.9,94.4,68.2,94.7,68.5,94.8z"/>
	<path class="st0" d="M87.5,122.5c2.2,1.4,4.5,2,7,2c0,0,0,0,0.1,0c2.4,0,4.7-0.7,6.7-2c1-0.6,1.3-1.5,0.8-2.3
		c-0.2-0.4-0.5-0.6-0.9-0.7c-0.5-0.1-1,0-1.5,0.3c-3.5,2-7,2-10.5,0c-0.5-0.3-1.1-0.4-1.5-0.3c-0.4,0.1-0.7,0.4-0.9,0.7
		C86.3,121,86.6,121.9,87.5,122.5z"/>
</g>
</svg>
