<svg xmlns="http://www.w3.org/2000/svg" viewBox="0 0 210 45.18"><defs><style>.a{fill:#42b549;}</style></defs><path class="a" d="M175.23,10.77h5v24h-.34a4.6,4.6,0,0,1-4.61-4.6Zm-41.76,24.4a13,13,0,0,1-9.3-1.54,12.22,12.22,0,0,1-5.92-7.34A12.68,12.68,0,0,1,127,10.65a12.18,12.18,0,0,1,9.4,1.19c5,2.77,6.76,7.05,6.45,12.57l-20,0a6.87,6.87,0,0,0,3.65,5.11,6.86,6.86,0,0,0,5.52.85,11,11,0,0,0,4.65-3.56l4.07,3A10.27,10.27,0,0,1,133.47,35.17Zm3.78-15.28A6,6,0,0,0,134,16c-4.29-2.39-8.51-.35-10.48,3.88Zm67.8,1.4a5.63,5.63,0,0,0-2.23-4.67,7.91,7.91,0,0,0-5-1.59c-4.48,0-7.35,3.51-7.35,7.83a7.36,7.36,0,0,0,7.31,7.63c3,0,4.55-1.74,6.24-3.89v6.22a13.56,13.56,0,0,1-2.87,1.76,9.73,9.73,0,0,1-3.81.66c-7.13,0-11.83-5.9-11.83-12.72a11.93,11.93,0,0,1,3.28-8.66,12.12,12.12,0,0,1,9.11-3.58c7.08,0,12.14,4.06,12.14,11.4V34.75h-.35a4.6,4.6,0,0,1-4.6-4.6ZM179.88,7.92a2.78,2.78,0,0,1-2.17.85,2.84,2.84,0,0,1-2.92-2.94,2.76,2.76,0,0,1,2.92-2.89,2.83,2.83,0,0,1,2.91,2.89A3,3,0,0,1,179.88,7.92Zm-14,23.67a11.44,11.44,0,0,1-8.75,3.65A11.69,11.69,0,0,1,148,31.36a13.34,13.34,0,0,1-3.27-9.19,11.68,11.68,0,0,1,11.59-11.89,13.91,13.91,0,0,1,7,1.75V17.4A11.84,11.84,0,0,0,157.08,15c-4.61,0-7.36,3.18-7.36,7.68s2.9,7.78,7.45,7.78a6.52,6.52,0,0,0,5.12-2.33c1.35-1.55,2.05-3.82,2.05-6.87V4.61A4.6,4.6,0,0,1,168.94,0h.35V22.07A13.45,13.45,0,0,1,165.9,31.59Zm-53.63.17a11.07,11.07,0,0,1-8.18,3.48,13.16,13.16,0,0,1-7-1.81V28.12a11.84,11.84,0,0,0,6.24,2.37c4.62,0,7.37-3.18,7.37-7.68S107.9,15,103.29,15a6.36,6.36,0,0,0-5,2.23c-1.4,1.61-2.13,3.91-2.13,7v21h-.34a4.6,4.6,0,0,1-4.61-4.61V23.43c0-7.28,4.45-13.15,12.1-13.15a11.74,11.74,0,0,1,9.16,3.88,13.22,13.22,0,0,1,3.27,9.19A11.51,11.51,0,0,1,112.27,31.76Z"/><path class="a" d="M32.44,17.18A6.91,6.91,0,0,0,27.21,15c-4.56,0-7.29,3.33-7.29,7.73s2.79,7.73,7.29,7.73,7.28-3.39,7.28-7.73A7.72,7.72,0,0,0,32.44,17.18Zm48.72,0A6.91,6.91,0,0,0,75.93,15c-4.56,0-7.29,3.33-7.29,7.73s2.8,7.73,7.29,7.73,7.28-3.39,7.28-7.73A7.72,7.72,0,0,0,81.16,17.18Zm3.57,14.54a12.71,12.71,0,0,1-17.56,0,11.9,11.9,0,0,1-3.68-9,12.5,12.5,0,0,1,21.22-8.94,11.88,11.88,0,0,1,3.7,8.94A11.87,11.87,0,0,1,84.73,31.72ZM59.17,16.54c-.73,1.22-1.29,2.09-1.69,2.62a7.33,7.33,0,0,1-1.29,1.35c3.44,1.11,4.72,3.49,4.72,7v7.19h-.35A4.61,4.61,0,0,1,56,30.15V28c0-2.29-1-3.86-3.46-3.86H48V34.75h-.35a4.6,4.6,0,0,1-4.6-4.6V4.61A4.6,4.6,0,0,1,47.64,0H48V19.38h1.46a3.43,3.43,0,0,0,3.27-1.59l4.17-7h5.64ZM36,31.72a12.27,12.27,0,0,1-8.8,3.52,12.21,12.21,0,0,1-8.76-3.52,11.9,11.9,0,0,1-3.68-9A12.25,12.25,0,0,1,27.21,10.28,12.29,12.29,0,0,1,36,13.82a11.88,11.88,0,0,1,3.7,8.94A11.87,11.87,0,0,1,36,31.72Zm-28.76,3C2.4,34.75,0,31.46,0,26.86V9.4A4.6,4.6,0,0,1,4.61,4.8H5v6h8.37v4.75H5V27.41c0,2,.91,2.59,2.84,2.59h5.53v4.75Z"/></svg>