<?xml version="1.0" encoding="utf-8"?>
<!-- Generator: Adobe Illustrator 25.2.1, SVG Export Plug-In . SVG Version: 6.00 Build 0)  -->
<svg version="1.1" id="Layer_1" xmlns="http://www.w3.org/2000/svg" xmlns:xlink="http://www.w3.org/1999/xlink" x="0px" y="0px"
	 viewBox="0 0 50 50" style="enable-background:new 0 0 50 50;" xml:space="preserve">
<style type="text/css">
	.st0{fill-rule:evenodd;clip-rule:evenodd;fill:#414242;}
	.st1{fill-rule:evenodd;clip-rule:evenodd;fill:#60BB55;}
	.st2{fill-rule:evenodd;clip-rule:evenodd;fill:url(#SVGID_1_);}
	.st3{fill-rule:evenodd;clip-rule:evenodd;fill:#84C468;}
	.st4{fill-rule:evenodd;clip-rule:evenodd;fill:url(#SVGID_2_);}
	.st5{fill-rule:evenodd;clip-rule:evenodd;fill:#4F9D4D;}
	.st6{fill-rule:evenodd;clip-rule:evenodd;fill:url(#SVGID_3_);}
	.st7{opacity:0.7;fill-rule:evenodd;clip-rule:evenodd;fill:url(#SVGID_4_);enable-background:new    ;}
	.st8{fill-rule:evenodd;clip-rule:evenodd;fill:#FFFFFF;}
	.st9{fill-rule:evenodd;clip-rule:evenodd;fill:url(#SVGID_5_);}
	.st10{fill-rule:evenodd;clip-rule:evenodd;fill:#303030;}
	.st11{fill-rule:evenodd;clip-rule:evenodd;fill:url(#SVGID_6_);}
	.st12{opacity:0.5;fill:url(#SVGID_7_);enable-background:new    ;}
	.st13{opacity:0.7;fill-rule:evenodd;clip-rule:evenodd;fill:url(#SVGID_8_);enable-background:new    ;}
	.st14{fill-rule:evenodd;clip-rule:evenodd;fill:url(#SVGID_9_);}
	.st15{fill-rule:evenodd;clip-rule:evenodd;fill:url(#SVGID_10_);}
	.st16{fill:url(#SVGID_11_);}
	.st17{opacity:0.5;fill:url(#SVGID_12_);enable-background:new    ;}
	.st18{opacity:0.8;fill-rule:evenodd;clip-rule:evenodd;fill:url(#SVGID_13_);enable-background:new    ;}
	.st19{opacity:0.8;fill-rule:evenodd;clip-rule:evenodd;fill:url(#SVGID_14_);enable-background:new    ;}
	.st20{fill:url(#SVGID_15_);}
	.st21{opacity:0.9;fill-rule:evenodd;clip-rule:evenodd;fill:url(#SVGID_16_);enable-background:new    ;}
	.st22{fill-rule:evenodd;clip-rule:evenodd;fill:url(#SVGID_17_);}
</style>
<g>
	<path class="st0" d="M35.9,10.7c-0.7-6-6.1-10.3-12.1-9.7c-5.1,0.6-9.1,4.6-9.7,9.7L14,12l3.4,0.2l0.1-1.3C18,7,20.9,4.3,25,4.3
		S32.1,7,32.5,11l0.2,1.7l3.3-0.2L35.9,10.7z"/>
	<path class="st1" d="M5.1,10.2c-0.7,0-1.3,0.6-1.3,1.3l0,19.6v3.5v0.9l0,12.1c0,0.7,0.6,1.3,1.3,1.3c0,0,0,0,0,0l12.1,0h2.1l13.4,0
		c7.4,0,13.4-6,13.4-13.5v-0.9l0-22c0-1.3-1.1-2.4-2.4-2.4c-2.5,0-5,0-7.4,0.1l-3,0.3c-2.7,0.3-5.5,0.9-7.7,2.1
		c-0.4,0.2-0.8,0.2-1.2,0c-2.3-1.2-4.8-1.8-7.7-2.1l-3-0.2C10.8,10.1,7.9,10.2,5.1,10.2z"/>
	
		<linearGradient id="SVGID_1_" gradientUnits="userSpaceOnUse" x1="29.0423" y1="30.8143" x2="7.2151" y2="-9.3373" gradientTransform="matrix(1 0 0 -1 0 48.9523)">
		<stop  offset="0" style="stop-color:#519B4C;stop-opacity:0"/>
		<stop  offset="1" style="stop-color:#519B4C"/>
	</linearGradient>
	<path class="st2" d="M6.5,10.2c-1.5,0-2.7,1.2-2.7,2.7l0,18.2v3.5v0.9l0,12.1c0,0.8,0.6,1.4,1.4,1.4c0,0,0,0,0,0l12.1,0h2.1l13.4,0
		c7.4,0,13.4-6,13.4-13.5v-0.9l0-21.9c0-1.4-1.1-2.5-2.5-2.5c-2.5,0-5,0-7.4,0.1l-3,0.3c-2.7,0.3-5.5,0.9-7.6,2.1
		c-0.4,0.2-0.9,0.2-1.3,0c-2.3-1.2-4.8-1.8-7.6-2.1l-3-0.2C11.3,10.1,8.8,10.2,6.5,10.2z"/>
	<path class="st3" d="M7.7,49l9.6,0h2.1l13.4,0c3.2,0,6.2-1.1,8.6-3.2c-3.9-9-14.4-13.2-23.4-9.3C12.7,38.8,8.9,43.4,7.7,49"/>
	
		<linearGradient id="SVGID_2_" gradientUnits="userSpaceOnUse" x1="24.4974" y1="6.4924" x2="24.5882" y2="-4.8397" gradientTransform="matrix(1 0 0 -1 0 48.9523)">
		<stop  offset="0" style="stop-color:#519B4C;stop-opacity:0"/>
		<stop  offset="1" style="stop-color:#519B4C"/>
	</linearGradient>
	<path class="st4" d="M7.7,49l9.6,0h2.1l13.4,0c3.2,0,6.2-1.1,8.6-3.2c-3.9-9-14.4-13.2-23.4-9.3C12.7,38.8,8.9,43.4,7.7,49"/>
	<path class="st5" d="M25,49l7.9-0.1c7.3,0,13.2-5.9,13.2-13.3c0,0,0-0.1,0-0.1v-0.9l0-23.3c0-0.6-0.5-1.1-1.1-1.1
		c-2.9,0-5.9,0-8.7,0.1l-3,0.3c-3,0.4-6,1.1-8.3,2.4L25,49z"/>
	
		<linearGradient id="SVGID_3_" gradientUnits="userSpaceOnUse" x1="35.1915" y1="22.2036" x2="39.8894" y2="-15.9358" gradientTransform="matrix(1 0 0 -1 0 48.9523)">
		<stop  offset="0" style="stop-color:#519B4C;stop-opacity:0"/>
		<stop  offset="1" style="stop-color:#519B4C"/>
	</linearGradient>
	<path class="st6" d="M25,49l7.9-0.1c7.3,0,13.2-5.9,13.2-13.3c0,0,0-0.1,0-0.1v-0.9l0-23.3c0-0.6-0.5-1.1-1.1-1.1
		c-2.9,0-5.9,0-8.7,0.1l-3,0.3c-3,0.4-6,1.1-8.3,2.4L25,49z"/>
	
		<linearGradient id="SVGID_4_" gradientUnits="userSpaceOnUse" x1="45.5618" y1="32.1673" x2="20.803" y2="10.7049" gradientTransform="matrix(1 0 0 -1 0 48.9523)">
		<stop  offset="0" style="stop-color:#3F843F"/>
		<stop  offset="1" style="stop-color:#519B4C"/>
	</linearGradient>
	<path class="st7" d="M34.6,16.6c5.3,0,9.7,4.3,9.7,9.6c0,5.3-4.3,9.7-9.6,9.7c-5.3,0-9.7-4.3-9.7-9.6C25,21,29.3,16.6,34.6,16.6
		C34.6,16.6,34.6,16.6,34.6,16.6"/>
	<path class="st8" d="M34.6,17.9c4.6,0,8.4,3.7,8.4,8.4c0,4.6-3.7,8.4-8.4,8.4c-4.6,0-8.4-3.7-8.4-8.4c0,0,0,0,0,0
		C26.2,21.7,30,17.9,34.6,17.9"/>
	
		<linearGradient id="SVGID_5_" gradientUnits="userSpaceOnUse" x1="34.6262" y1="14.3216" x2="34.6262" y2="24.4487" gradientTransform="matrix(1 0 0 -1 0 48.9523)">
		<stop  offset="0" style="stop-color:#E5E3E3"/>
		<stop  offset="1" style="stop-color:#E5E3E3;stop-opacity:0"/>
	</linearGradient>
	<path class="st9" d="M42.7,24c-1.3,4.5-6,7.1-10.4,5.8c-2.8-0.8-5-3-5.8-5.7c-1.3,4.5,1.3,9.1,5.8,10.4c4.5,1.3,9.1-1.3,10.4-5.8
		C43.2,27.1,43.2,25.5,42.7,24z"/>
	<path class="st10" d="M33.7,20.8c3-0.3,5.8,1.9,6.1,5c0.3,3-1.9,5.8-5,6.1c-3,0.3-5.8-1.9-6.1-5c-0.1-1,0.1-2,0.5-2.9
		c0.7,1.3,2.3,1.8,3.6,1.1c1.3-0.7,1.8-2.3,1.1-3.6c-0.1-0.3-0.3-0.5-0.5-0.7C33.5,20.9,33.6,20.8,33.7,20.8"/>
	<path class="st1" d="M25,49l7.8,0c3.1,0,6.2-1.1,8.6-3.2C38.7,39.5,32.3,35.1,25,35L25,49z"/>
	
		<linearGradient id="SVGID_6_" gradientUnits="userSpaceOnUse" x1="33.0501" y1="5.5977" x2="32.4971" y2="-4.3527" gradientTransform="matrix(1 0 0 -1 0 48.9523)">
		<stop  offset="0" style="stop-color:#519B4C;stop-opacity:0"/>
		<stop  offset="1" style="stop-color:#519B4C"/>
	</linearGradient>
	<path class="st11" d="M25,49l7.8,0c3.1,0,6.2-1.1,8.6-3.2C38.7,39.5,32.3,35.1,25,35L25,49z"/>
	
		<linearGradient id="SVGID_7_" gradientUnits="userSpaceOnUse" x1="25.0861" y1="16.8092" x2="24.8533" y2="5.388" gradientTransform="matrix(1 0 0 -1 0 48.9523)">
		<stop  offset="0" style="stop-color:#3F843F"/>
		<stop  offset="1" style="stop-color:#519B4C"/>
	</linearGradient>
	<path class="st12" d="M30.1,34.6c-0.9-3.3-4.2-3.6-5-3.7c-0.1,0-0.1,0-0.2,0c-0.9,0.1-4.1,0.4-4.9,3.8c0,0.2,0,0.4,0,0.5v0
		c0,0,0.3,0.2,0.7,0.5c0.6,1.6,3.3,4.5,4.4,4.5h0.1c0.9,0,3.4-2.7,4.1-4.4c0.4-0.3,0.8-0.5,0.8-0.6C30.1,35.1,30.1,34.8,30.1,34.6z"
		/>
	
		<linearGradient id="SVGID_8_" gradientUnits="userSpaceOnUse" x1="5.6859" y1="22.6874" x2="24.9792" y2="22.6874" gradientTransform="matrix(1 0 0 -1 0 48.9523)">
		<stop  offset="0" style="stop-color:#3F843F"/>
		<stop  offset="1" style="stop-color:#519B4C"/>
	</linearGradient>
	<path class="st13" d="M15.3,16.6c5.3,0,9.7,4.3,9.7,9.6c0,5.3-4.3,9.7-9.6,9.7c-5.3,0-9.7-4.3-9.7-9.6C5.7,21,10,16.6,15.3,16.6
		C15.3,16.6,15.3,16.6,15.3,16.6"/>
	<path class="st8" d="M15.3,17.9c4.6,0,8.4,3.7,8.4,8.4c0,4.6-3.7,8.4-8.4,8.4S7,30.9,7,26.3c0,0,0,0,0,0
		C6.9,21.7,10.7,17.9,15.3,17.9"/>
	
		<linearGradient id="SVGID_9_" gradientUnits="userSpaceOnUse" x1="15.332" y1="14.3216" x2="15.332" y2="24.4487" gradientTransform="matrix(1 0 0 -1 0 48.9523)">
		<stop  offset="0" style="stop-color:#E5E3E3"/>
		<stop  offset="1" style="stop-color:#E5E3E3;stop-opacity:0"/>
	</linearGradient>
	<path class="st14" d="M23.4,24c-1.3,4.5-6,7.1-10.4,5.8c-2.8-0.8-5-3-5.8-5.7c-1.3,4.5,1.3,9.1,5.8,10.4c4.5,1.3,9.1-1.3,10.4-5.8
		C23.9,27.1,23.9,25.5,23.4,24z"/>
	<path class="st10" d="M16.2,20.8c3.1,0,5.5,2.5,5.5,5.5c0,3.1-2.5,5.5-5.5,5.5c-3.1,0-5.5-2.5-5.5-5.5c0-1,0.3-1.9,0.8-2.8
		c0.6,1.4,2.1,2,3.5,1.5c1.4-0.6,2-2.1,1.5-3.5c-0.1-0.3-0.3-0.5-0.5-0.7C16,20.8,16.1,20.8,16.2,20.8"/>
	
		<linearGradient id="SVGID_10_" gradientUnits="userSpaceOnUse" x1="25.2068" y1="42.7061" x2="25.2068" y2="35.8194" gradientTransform="matrix(1.01 0 0 -1.07 -0.4457 77.7462)">
		<stop  offset="0" style="stop-color:#F9EC31"/>
		<stop  offset="0.21" style="stop-color:#F9DE2E"/>
		<stop  offset="0.61" style="stop-color:#F7BB27"/>
		<stop  offset="1" style="stop-color:#F6921E"/>
	</linearGradient>
	<path class="st15" d="M25.1,39.5c1.1,0,4.5-3.8,4.3-5.1c-0.8-3-3.6-3.3-4.4-3.4c-0.1,0-0.1,0-0.2,0c-0.8,0.1-3.6,0.6-4.3,3.6
		c-0.2,1.1,3.2,4.9,4.5,4.9L25.1,39.5z"/>
	
		<linearGradient id="SVGID_11_" gradientUnits="userSpaceOnUse" x1="30.3613" y1="10.2103" x2="24.5459" y2="14.9049" gradientTransform="matrix(1 0 0 -1 0 48.9523)">
		<stop  offset="0" style="stop-color:#F9EC31"/>
		<stop  offset="0.21" style="stop-color:#F9DE2E"/>
		<stop  offset="0.61" style="stop-color:#F7BB27"/>
		<stop  offset="1" style="stop-color:#F6921E"/>
	</linearGradient>
	<path class="st16" d="M28.8,36.2c0.5-0.7,0.8-1.4,0.7-1.8c-0.2-1-0.8-1.9-1.7-2.5c-0.8-0.4-1.8-0.7-2.7-0.7c-0.1,0-0.1,0-0.2,0
		c-1,0.1-1.9,0.4-2.7,0.9c-0.8,0.6-1.4,1.5-1.6,2.5c-0.1,0.3,0.2,0.9,0.6,1.5c1.3,0.8,3.2,1.9,3.9,1.9
		C25.7,37.9,27.5,36.9,28.8,36.2z"/>
	
		<linearGradient id="SVGID_12_" gradientUnits="userSpaceOnUse" x1="30.3613" y1="10.2103" x2="24.5459" y2="14.9049" gradientTransform="matrix(1 0 0 -1 0 48.9523)">
		<stop  offset="0" style="stop-color:#F9EC31"/>
		<stop  offset="0.21" style="stop-color:#F9DE2E"/>
		<stop  offset="0.61" style="stop-color:#F7BB27"/>
		<stop  offset="1" style="stop-color:#F6921E"/>
	</linearGradient>
	<path class="st17" d="M28.8,36.2c0.5-0.7,0.8-1.4,0.7-1.8c-0.2-1-0.8-1.9-1.7-2.5c-0.8-0.4-1.8-0.7-2.7-0.7c-0.1,0-0.1,0-0.2,0
		c-1,0.1-1.9,0.4-2.7,0.9c-0.8,0.6-1.4,1.5-1.6,2.5c-0.1,0.3,0.2,0.9,0.6,1.5c1.3,0.8,3.2,1.9,3.9,1.9
		C25.7,37.9,27.5,36.9,28.8,36.2z"/>
	
		<linearGradient id="SVGID_13_" gradientUnits="userSpaceOnUse" x1="14.2076" y1="34.4948" x2="14.2076" y2="41.5928" gradientTransform="matrix(1 0 0 -1 0 48.9523)">
		<stop  offset="0.2" style="stop-color:#FFFFFF;stop-opacity:0"/>
		<stop  offset="0.97" style="stop-color:#FFFFFF"/>
	</linearGradient>
	<path class="st18" d="M24.1,13.4c-2.3-1.3-4.8-2-7.7-2.3l-2.8-0.2c-2.7-0.1-5.4,0-8,0c-0.7,0-1.2,0.6-1.2,1.3
		C13.3,10.6,24.1,13.4,24.1,13.4z"/>
	
		<linearGradient id="SVGID_14_" gradientUnits="userSpaceOnUse" x1="337.6616" y1="34.3116" x2="337.6616" y2="41.4096" gradientTransform="matrix(-1 0 0 -1 373.24 48.9523)">
		<stop  offset="0.2" style="stop-color:#FFFFFF;stop-opacity:0"/>
		<stop  offset="0.97" style="stop-color:#FFFFFF"/>
	</linearGradient>
	<path class="st19" d="M25.7,13.4c2.3-1.3,4.8-2,7.7-2.3l2.8-0.2c2.7-0.1,5.4,0,8,0c0.7,0,1.2,0.6,1.2,1.3
		C36.5,10.6,25.7,13.4,25.7,13.4z"/>
	
		<linearGradient id="SVGID_15_" gradientUnits="userSpaceOnUse" x1="25.0857" y1="17.5108" x2="24.919" y2="9.2887" gradientTransform="matrix(1 0 0 -1 0 48.9523)">
		<stop  offset="0" style="stop-color:#F9EC31"/>
		<stop  offset="0.21" style="stop-color:#F9DE2E"/>
		<stop  offset="0.61" style="stop-color:#F7BB27"/>
		<stop  offset="1" style="stop-color:#F6921E"/>
	</linearGradient>
	<path class="st20" d="M30.1,34.2c-0.9-3.2-4.1-3.6-5-3.6c-0.1,0-0.1,0-0.2,0c-0.9,0.1-4.1,0.6-4.9,3.8c0,0.1,0,0.2,0,0.3v0
		c0,0,4.1,2.6,5.1,2.6c1.1,0,4.8-2.3,5.1-2.6C30.1,34.6,30.1,34.4,30.1,34.2z"/>
	
		<linearGradient id="SVGID_16_" gradientUnits="userSpaceOnUse" x1="29.1088" y1="16.5749" x2="21.92" y2="14.0725" gradientTransform="matrix(1 0 0 -1 0 48.9523)">
		<stop  offset="0" style="stop-color:#F9EC31;stop-opacity:0"/>
		<stop  offset="9.000000e-02" style="stop-color:#F9E730;stop-opacity:6.000000e-02"/>
		<stop  offset="0.27" style="stop-color:#F8DA2D;stop-opacity:0.2"/>
		<stop  offset="0.51" style="stop-color:#F8C529;stop-opacity:0.44"/>
		<stop  offset="0.8" style="stop-color:#F7A823;stop-opacity:0.76"/>
		<stop  offset="1" style="stop-color:#F6921E"/>
	</linearGradient>
	<path class="st21" d="M20,34.4c0,0.1,0,0.2,0,0.3v0c0,0,3.9,2.5,5,2.6c0.3-6.2-0.1-6.7-0.1-6.7C24,30.7,20.7,31.2,20,34.4z"/>
	
		<linearGradient id="SVGID_17_" gradientUnits="userSpaceOnUse" x1="26.1669" y1="10.3082" x2="24.7786" y2="20.4237" gradientTransform="matrix(1 0 0 -1 0 48.9523)">
		<stop  offset="0.2" style="stop-color:#FFFFFF;stop-opacity:0"/>
		<stop  offset="0.97" style="stop-color:#FFFFFF"/>
	</linearGradient>
	<path class="st22" d="M26.1,30.7c-0.3-0.1-0.7-0.1-1-0.1c-0.1,0-0.1,0-0.2,0c0,0,0.4,0.5,0.1,6.7C25.5,35.9,25.9,32.5,26.1,30.7z"
		/>
	<path class="st8" d="M24.7,30.6L24.7,30.6L24.7,30.6z"/>
</g>
</svg>
