<?xml version="1.0" encoding="utf-8"?>
<!-- Generator: Adobe Illustrator 25.2.1, SVG Export Plug-In . SVG Version: 6.00 Build 0)  -->
<svg version="1.1" id="Layer_1" xmlns="http://www.w3.org/2000/svg" xmlns:xlink="http://www.w3.org/1999/xlink" x="0px" y="0px"
	 viewBox="0 0 125 50" style="enable-background:new 0 0 125 50;" xml:space="preserve">
<style type="text/css">
	.st0{fill:#E5E5E5;}
	.st1{fill:#FFFFFF;}
	.st2{fill:#64B161;}
	.st3{fill-rule:evenodd;clip-rule:evenodd;fill:#FFFFFF;}
</style>
<g>
	<path d="M40.6,10.3c-0.7,0-1.3-0.2-1.8-0.5s-0.9-0.7-1.2-1.3c-0.3-0.5-0.4-1.2-0.4-1.9s0.1-1.3,0.4-1.9c0.3-0.5,0.7-1,1.2-1.3
		S39.9,3,40.6,3s1.3,0.2,1.8,0.5c0.5,0.3,0.9,0.7,1.2,1.3c0.3,0.5,0.4,1.2,0.4,1.9S43.9,8,43.7,8.5c-0.3,0.5-0.7,1-1.2,1.3
		C41.9,10.1,41.3,10.3,40.6,10.3z M40.6,9.3c0.5,0,0.9-0.1,1.3-0.3c0.4-0.2,0.6-0.5,0.8-0.9C42.9,7.7,43,7.2,43,6.7s-0.1-1-0.3-1.4
		c-0.2-0.4-0.5-0.7-0.8-0.9C41.5,4.1,41.1,4,40.6,4s-0.9,0.1-1.3,0.3c-0.4,0.2-0.6,0.5-0.8,0.9c-0.2,0.4-0.3,0.9-0.3,1.4
		s0.1,1,0.3,1.4C38.7,8.5,39,8.8,39.4,9C39.7,9.2,40.1,9.3,40.6,9.3z"/>
	<path d="M45.3,10.2v-7h2.4c0.6,0,1,0.1,1.4,0.3c0.4,0.2,0.6,0.4,0.8,0.8c0.2,0.3,0.3,0.7,0.3,1.1c0,0.4-0.1,0.8-0.3,1.2
		S49.2,7,48.7,7.2l1.5,3h-1.2l-1.4-2.8h-1.2v2.8H45.3z M46.3,6.5h1.3c0.5,0,0.8-0.1,1.1-0.4C48.9,6,49,5.7,49,5.3s-0.1-0.7-0.3-0.9
		C48.5,4.2,48.1,4,47.6,4h-1.3V6.5z"/>
	<path d="M51.4,10.2v-7h2.3c0.8,0,1.5,0.1,2,0.4c0.5,0.3,0.9,0.7,1.2,1.2c0.3,0.5,0.4,1.1,0.4,1.9c0,0.7-0.1,1.3-0.4,1.9
		c-0.3,0.5-0.6,0.9-1.2,1.2c-0.5,0.3-1.2,0.4-2,0.4H51.4z M52.4,9.3h1.2c0.6,0,1.1-0.1,1.5-0.3c0.4-0.2,0.6-0.5,0.8-0.9
		c0.2-0.4,0.2-0.9,0.2-1.4c0-0.5-0.1-1-0.2-1.4c-0.2-0.4-0.4-0.7-0.8-0.9C54.7,4.2,54.2,4,53.6,4h-1.2V9.3z"/>
	<path d="M58.4,10.2v-7h4.5V4h-3.4v2.2h3.1V7h-3.1v2.3h3.4v0.9H58.4z"/>
	<path d="M64.1,10.2v-7h2.4c0.6,0,1,0.1,1.4,0.3c0.4,0.2,0.6,0.4,0.8,0.8c0.2,0.3,0.3,0.7,0.3,1.1c0,0.4-0.1,0.8-0.3,1.2
		C68.3,6.8,68,7,67.5,7.2l1.5,3h-1.2l-1.4-2.8h-1.3v2.8H64.1z M65.2,6.5h1.3c0.5,0,0.8-0.1,1.1-0.4c0.2-0.2,0.3-0.5,0.3-0.9
		s-0.1-0.7-0.3-0.9S66.9,4,66.4,4h-1.3V6.5z"/>
	<path d="M74.8,10.2l-2.6-7h1.1l2.1,5.9l2.1-5.9h1.1l-2.6,7H74.8z"/>
	<path d="M79.5,10.2v-7h1.1v7H79.5z"/>
	<path d="M81.6,10.2l2.6-7h1.2l2.6,7h-1.1l-0.6-1.7h-2.9l-0.6,1.7H81.6z M83.6,7.6h2.3l-1.1-3.2L83.6,7.6z"/>
</g>
<g>
	<g>
		<path class="st0" d="M1,43.7c-0.1,0-0.3-0.1-0.4-0.1c-0.1-0.1-0.2-0.3-0.1-0.5L2,37.6c-0.9-1.7-1.4-3.6-1.4-5.6
			c0-6.4,5.2-11.6,11.6-11.6c3.1,0,6,1.2,8.2,3.4c2.2,2.2,3.4,5.1,3.4,8.2c0,6.4-5.2,11.6-11.6,11.6c0,0,0,0,0,0
			c-1.9,0-3.7-0.5-5.3-1.3l-5.7,1.5C1.1,43.7,1,43.7,1,43.7z"/>
		<path class="st1" d="M1,43.2l1.6-5.7c-1-1.7-1.5-3.6-1.5-5.5c0-6.1,5-11.1,11.1-11.1c3,0,5.7,1.2,7.8,3.2c2.1,2.1,3.2,4.9,3.2,7.8
			c0,6.1-5,11.1-11.1,11.1c0,0,0,0,0,0h0c-1.9,0-3.7-0.5-5.3-1.3L1,43.2z M7.1,39.7l0.3,0.2c1.4,0.8,3,1.3,4.7,1.3h0
			c5.1,0,9.2-4.1,9.2-9.2c0-2.5-1-4.8-2.7-6.5c-1.7-1.7-4-2.7-6.5-2.7C7.1,22.8,3,26.9,3,32c0,1.7,0.5,3.4,1.4,4.9l0.2,0.3l-0.9,3.4
			L7.1,39.7z"/>
		<path class="st2" d="M1.4,42.8l1.5-5.5C2,35.7,1.5,33.9,1.5,32c0-5.9,4.8-10.7,10.7-10.7c2.9,0,5.5,1.1,7.6,3.1
			c2,2,3.1,4.7,3.1,7.6c0,5.9-4.8,10.7-10.7,10.7c0,0,0,0,0,0h0c-1.8,0-3.5-0.4-5.1-1.3L1.4,42.8z"/>
		<g>
			<path class="st1" d="M1,43.2l1.6-5.7c-1-1.7-1.5-3.6-1.5-5.5c0-6.1,5-11.1,11.1-11.1c3,0,5.7,1.2,7.8,3.2
				c2.1,2.1,3.2,4.9,3.2,7.8c0,6.1-5,11.1-11.1,11.1c0,0,0,0,0,0h0c-1.9,0-3.7-0.5-5.3-1.3L1,43.2z M7.1,39.7l0.3,0.2
				c1.4,0.8,3,1.3,4.7,1.3h0c5.1,0,9.2-4.1,9.2-9.2c0-2.5-1-4.8-2.7-6.5c-1.7-1.7-4-2.7-6.5-2.7C7.1,22.8,3,26.9,3,32
				c0,1.7,0.5,3.4,1.4,4.9l0.2,0.3l-0.9,3.4L7.1,39.7z"/>
			<path class="st3" d="M9.4,27.3c-0.2-0.5-0.4-0.5-0.6-0.5c-0.2,0-0.3,0-0.5,0c-0.2,0-0.5,0.1-0.7,0.3c-0.3,0.3-1,0.9-1,2.3
				c0,1.4,1,2.7,1.1,2.9c0.1,0.2,1.9,3.1,4.7,4.2c2.3,0.9,2.8,0.7,3.3,0.7c0.5,0,1.6-0.7,1.9-1.3c0.2-0.6,0.2-1.2,0.2-1.3
				c-0.1-0.1-0.3-0.2-0.5-0.3s-1.6-0.8-1.9-0.9c-0.3-0.1-0.4-0.1-0.6,0.1c-0.2,0.3-0.7,0.9-0.9,1.1c-0.2,0.2-0.3,0.2-0.6,0.1
				c-0.3-0.1-1.2-0.4-2.2-1.4c-0.8-0.7-1.4-1.6-1.5-1.9c-0.2-0.3,0-0.4,0.1-0.6c0.2-0.3,0.6-0.8,0.7-0.9c0.1-0.2,0-0.3,0-0.5
				C10.2,29.3,9.6,27.9,9.4,27.3z"/>
		</g>
	</g>
	<g>
		<path class="st2" d="M31.2,39.9l-4-14.7h2.4l2.9,12.2l3.4-12.2h2.5l3.3,12.2l2.9-12.2h2.4l-4,14.7h-2.6l-3.2-11.5l-3.3,11.5
			L31.2,39.9z"/>
		<path class="st2" d="M48.3,39.9V24.7h2.2v6.4c0.3-0.6,0.8-1.1,1.5-1.4c0.6-0.3,1.3-0.5,2.1-0.5c1.2,0,2.2,0.4,2.9,1.2
			c0.7,0.8,1.1,2,1.1,3.5v6h-2.2v-5.7c0-2-0.8-3-2.4-3c-0.8,0-1.5,0.3-2.1,0.9c-0.6,0.6-0.8,1.4-0.8,2.5v5.4H48.3z"/>
		<path class="st2" d="M63.7,40.1c-0.9,0-1.6-0.1-2.2-0.4c-0.6-0.3-1-0.7-1.3-1.2c-0.3-0.5-0.4-1-0.4-1.6c0-1,0.4-1.8,1.2-2.4
			c0.8-0.6,1.9-0.9,3.4-0.9h2.7v-0.2c0-0.8-0.2-1.4-0.7-1.8c-0.4-0.4-1-0.6-1.7-0.6c-0.6,0-1.2,0.2-1.6,0.5
			c-0.5,0.3-0.7,0.7-0.8,1.3h-2.2c0.1-0.8,0.3-1.4,0.8-1.9s1-1,1.7-1.2c0.7-0.3,1.4-0.4,2.2-0.4c1.5,0,2.6,0.4,3.4,1.1
			c0.8,0.8,1.2,1.8,1.2,3.1v6.4h-1.9l-0.2-1.8c-0.3,0.6-0.7,1.1-1.3,1.4C65.4,39.9,64.6,40.1,63.7,40.1z M64.2,38.3
			c0.6,0,1.1-0.1,1.5-0.4c0.4-0.3,0.7-0.7,1-1.1c0.2-0.5,0.4-1,0.4-1.6h-2.5c-0.9,0-1.5,0.2-1.9,0.5c-0.4,0.3-0.6,0.7-0.6,1.2
			c0,0.5,0.2,0.9,0.5,1.1C63.1,38.2,63.6,38.3,64.2,38.3z"/>
		<path class="st2" d="M75.6,39.9c-1,0-1.8-0.2-2.4-0.7c-0.6-0.5-0.9-1.4-0.9-2.7v-5.1h-1.8v-1.9h1.8l0.3-2.6h2v2.6h2.9v1.9h-2.9
			v5.1c0,0.6,0.1,1,0.4,1.2c0.2,0.2,0.7,0.3,1.3,0.3h1.2v1.9H75.6z"/>
		<path class="st2" d="M83.3,40.1c-1.3,0-2.4-0.3-3.3-1c-0.9-0.6-1.3-1.5-1.5-2.6h2.2c0.1,0.5,0.4,0.9,0.8,1.2
			c0.4,0.3,1,0.5,1.7,0.5c0.7,0,1.2-0.1,1.5-0.4c0.3-0.3,0.5-0.6,0.5-1c0-0.5-0.2-0.9-0.6-1.1c-0.4-0.2-1-0.4-1.8-0.5
			c-0.6-0.1-1.2-0.3-1.8-0.5c-0.6-0.2-1.1-0.5-1.4-0.9C79.2,33.6,79,33,79,32.4c0-0.9,0.3-1.7,1-2.3c0.7-0.6,1.7-0.9,2.9-0.9
			c1.2,0,2.1,0.3,2.8,0.8c0.7,0.6,1.1,1.4,1.3,2.4H85c-0.1-0.4-0.3-0.8-0.6-1C84,31.1,83.5,31,83,31c-0.6,0-1,0.1-1.3,0.3
			c-0.3,0.2-0.5,0.5-0.5,0.9c0,0.4,0.2,0.7,0.6,0.9c0.4,0.2,1,0.4,1.7,0.6c0.7,0.2,1.3,0.3,1.9,0.5c0.6,0.2,1.1,0.5,1.4,0.9
			c0.4,0.4,0.5,1,0.5,1.7c0,1-0.4,1.7-1.1,2.4C85.6,39.8,84.6,40.1,83.3,40.1z"/>
		<path class="st2" d="M92.9,40.1c-0.9,0-1.6-0.1-2.2-0.4c-0.6-0.3-1-0.7-1.3-1.2c-0.3-0.5-0.4-1-0.4-1.6c0-1,0.4-1.8,1.2-2.4
			c0.8-0.6,1.9-0.9,3.4-0.9h2.7v-0.2c0-0.8-0.2-1.4-0.7-1.8c-0.4-0.4-1-0.6-1.7-0.6c-0.6,0-1.2,0.2-1.6,0.5
			c-0.5,0.3-0.7,0.7-0.8,1.3h-2.2c0.1-0.8,0.3-1.4,0.8-1.9c0.4-0.5,1-1,1.7-1.2c0.7-0.3,1.4-0.4,2.2-0.4c1.5,0,2.6,0.4,3.4,1.1
			c0.8,0.8,1.2,1.8,1.2,3.1v6.4h-1.9l-0.2-1.8c-0.3,0.6-0.7,1.1-1.3,1.4C94.5,39.9,93.8,40.1,92.9,40.1z M93.3,38.3
			c0.6,0,1.1-0.1,1.5-0.4c0.4-0.3,0.7-0.7,1-1.1c0.2-0.5,0.4-1,0.4-1.6h-2.5c-0.9,0-1.5,0.2-1.9,0.5c-0.4,0.3-0.6,0.7-0.6,1.2
			c0,0.5,0.2,0.9,0.5,1.1C92.2,38.2,92.7,38.3,93.3,38.3z"/>
		<path class="st2" d="M100.6,44.5v-15h2l0.2,1.6c0.3-0.5,0.8-0.9,1.4-1.3c0.6-0.4,1.3-0.6,2.3-0.6c1,0,1.9,0.2,2.7,0.7
			c0.8,0.5,1.4,1.1,1.8,2c0.4,0.8,0.7,1.8,0.7,2.8c0,1-0.2,2-0.7,2.8c-0.4,0.8-1,1.5-1.8,1.9c-0.8,0.5-1.7,0.7-2.7,0.7
			c-0.8,0-1.5-0.2-2.2-0.5c-0.6-0.3-1.1-0.8-1.5-1.4v6.2H100.6z M106.1,38.2c1,0,1.7-0.3,2.3-1c0.6-0.7,0.9-1.5,0.9-2.5
			c0-0.7-0.1-1.3-0.4-1.8c-0.3-0.5-0.7-0.9-1.2-1.2c-0.5-0.3-1.1-0.5-1.7-0.5c-1,0-1.7,0.3-2.3,1c-0.6,0.7-0.9,1.5-0.9,2.5
			c0,1,0.3,1.9,0.9,2.5C104.3,37.8,105.1,38.2,106.1,38.2z"/>
		<path class="st2" d="M113.5,44.5v-15h2l0.2,1.6c0.3-0.5,0.8-0.9,1.4-1.3c0.6-0.4,1.3-0.6,2.3-0.6c1,0,1.9,0.2,2.7,0.7
			c0.8,0.5,1.4,1.1,1.8,2c0.4,0.8,0.7,1.8,0.7,2.8c0,1-0.2,2-0.7,2.8c-0.4,0.8-1,1.5-1.8,1.9c-0.8,0.5-1.7,0.7-2.7,0.7
			c-0.8,0-1.5-0.2-2.2-0.5c-0.6-0.3-1.1-0.8-1.5-1.4v6.2H113.5z M119,38.2c1,0,1.7-0.3,2.3-1c0.6-0.7,0.9-1.5,0.9-2.5
			c0-0.7-0.1-1.3-0.4-1.8c-0.3-0.5-0.7-0.9-1.2-1.2c-0.5-0.3-1.1-0.5-1.7-0.5c-1,0-1.7,0.3-2.3,1c-0.6,0.7-0.9,1.5-0.9,2.5
			c0,1,0.3,1.9,0.9,2.5C117.2,37.8,118,38.2,119,38.2z"/>
	</g>
</g>
</svg>
