<svg xmlns="http://www.w3.org/2000/svg" viewBox="0 0 50 50"><defs><style>.a{fill:#231f20;}.b{fill:none;stroke:#ed1c24;stroke-miterlimit:10;stroke-width:0.96px;}</style></defs><path class="a" d="M33.74,17.1a.54.54,0,0,0-.3-.1h-.07a.44.44,0,0,0-.33.19.47.47,0,0,0-.1.3V31a.5.5,0,0,0,.27.45.53.53,0,0,0,.53-.05l3-2.25a.51.51,0,0,0,.2-.4v-9a.51.51,0,0,0-.2-.4Zm2.2,11.4-2,1.5V18.5l2,1.5Z"/><path class="a" d="M10.47,16.5a2,2,0,1,0-2-2A2,2,0,0,0,10.47,16.5Zm0-3h0a1,1,0,1,1-1,1A1,1,0,0,1,10.47,13.5Z"/><path class="a" d="M6,14.5l-.17.18A2.25,2.25,0,0,0,8,18.43l.24-.06.06.23a2.25,2.25,0,0,0,2.77,1.57,2.26,2.26,0,0,0,1.57-1.57l.06-.23.24.06a2.25,2.25,0,0,0,2.17-3.75l-.17-.18.17-.17a2.23,2.23,0,0,0,.64-1.6,2.25,2.25,0,0,0-2.81-2.16l-.24.06-.06-.23a2.25,2.25,0,0,0-4.34,0l-.06.23L8,10.57a2.24,2.24,0,0,0-2.74,1.62,2.25,2.25,0,0,0,.57,2.14Zm.35-2.37h0a1.25,1.25,0,0,1,1.7-.46l.41.23a.49.49,0,0,0,.68-.18.45.45,0,0,0,.07-.25V11a1.21,1.21,0,0,1,.36-.88,1.25,1.25,0,0,1,.88-.38A1.26,1.26,0,0,1,11.72,11v.49a.51.51,0,0,0,.75.43l.41-.23a1.25,1.25,0,1,1,1.24,2.16l-.4.24a.44.44,0,0,0-.23.3.46.46,0,0,0,0,.38.39.39,0,0,0,.18.18l.4.24a1.24,1.24,0,0,1,.49,1.69,1.2,1.2,0,0,1-.74.6,1.26,1.26,0,0,1-.95-.1l-.45-.26a.51.51,0,0,0-.38-.05.47.47,0,0,0-.3.23.45.45,0,0,0-.07.25V18a1.25,1.25,0,0,1-1.24,1.26h0a1.27,1.27,0,0,1-.88-.36A1.24,1.24,0,0,1,9.22,18v-.49a.52.52,0,0,0-.75-.43l-.41.23a1.22,1.22,0,0,1-1,.12,1.23,1.23,0,0,1-.75-.59,1.25,1.25,0,0,1,.45-1.69l.41-.24a.5.5,0,0,0,.18-.68.45.45,0,0,0-.18-.18l-.41-.24A1.25,1.25,0,0,1,6.35,12.13Z"/><path class="a" d="M41.22,6.5a2,2,0,1,0,2,2A2,2,0,0,0,41.22,6.5Zm0,3h0a1,1,0,1,1,1-1A1,1,0,0,1,41.22,9.5Z"/><path class="a" d="M45.69,8.5l.17-.17a2.26,2.26,0,0,0,0-3.19,2.28,2.28,0,0,0-2.13-.57l-.24.06-.06-.23a2.25,2.25,0,0,0-4.34,0L39,4.63l-.23-.06A2.27,2.27,0,0,0,37,4.81a2.26,2.26,0,0,0-.46,3.52l.17.17-.17.18a2.26,2.26,0,0,0,0,3.18,2.28,2.28,0,0,0,2.14.57l.23-.06.07.24a2.25,2.25,0,0,0,2.77,1.56,2.26,2.26,0,0,0,1.57-1.56l.06-.24.24.06a2.26,2.26,0,0,0,2.74-1.62,2.28,2.28,0,0,0-.57-2.13Zm-.35,2.37a1.25,1.25,0,0,1-1.7.47l-.42-.24a.5.5,0,0,0-.68.18.45.45,0,0,0-.07.25V12a1.25,1.25,0,0,1-1.24,1.26h0A1.25,1.25,0,0,1,40,12v-.49a.52.52,0,0,0-.75-.43l-.41.23a1.25,1.25,0,0,1-1.25-2.16L38,8.93a.49.49,0,0,0,.18-.68A.45.45,0,0,0,38,8.07l-.41-.24A1.23,1.23,0,0,1,37,7.06a1.27,1.27,0,0,1,.15-.95,1.25,1.25,0,0,1,1.67-.44l.41.23a.5.5,0,0,0,.68-.18A.45.45,0,0,0,40,5.47V5a1.25,1.25,0,0,1,1.24-1.26h0A1.25,1.25,0,0,1,42.47,5v.49a.51.51,0,0,0,.75.43l.4-.23a1.26,1.26,0,0,1,1-.13,1.23,1.23,0,0,1,.76.59,1.26,1.26,0,0,1,.13,1,1.23,1.23,0,0,1-.59.75l-.4.24a.49.49,0,0,0-.18.68.39.39,0,0,0,.18.18h0l.4.24a1.23,1.23,0,0,1,.59.75A1.26,1.26,0,0,1,45.34,10.87Z"/><path class="a" d="M19.66,37.5a2,2,0,1,0-2-2A2,2,0,0,0,19.66,37.5Zm0-3h0a1,1,0,1,1-1,1A1,1,0,0,1,19.66,34.5Z"/><path class="a" d="M31.69,11.26V7.75a.51.51,0,0,0-.5-.5h-.25V4.19A1.45,1.45,0,0,0,29.5,2.75H23.88a1.44,1.44,0,0,0-1.44,1.44V7.25h-.25a.5.5,0,0,0-.5.5v3.62l-6,10.6a6,6,0,0,0-.62,1.59l0,.19H7.75A4.25,4.25,0,0,0,5.4,31.54l.32.21L5.4,32a3.66,3.66,0,0,0-.65.54,4.25,4.25,0,0,0,0,6A4.86,4.86,0,0,0,5.4,39l.32.21-.32.21a3.66,3.66,0,0,0-.65.54A4.23,4.23,0,0,0,3.5,43h0a4.26,4.26,0,0,0,4.25,4.25H37.56a2.38,2.38,0,0,0,2.38-2.37V37.43A4,4,0,0,0,39.09,35l-1.94-2.42,1.16-.87a4.11,4.11,0,0,0,1.63-3.25V19.94a4,4,0,0,0-1.49-3.14Zm-1-3V11H29.44V8.25ZM23.44,4.19a.44.44,0,0,1,.44-.44H29.5a.44.44,0,0,1,.44.44V7.25h-6.5Zm5,4.06V11H27.19V8.25Zm-2.25,0V11H24.94V8.25Zm-3.5,0h1.25V11H22.69ZM4.5,28a3.26,3.26,0,0,1,3.25-3.25h7.19V27.5H7.75a.5.5,0,0,0,0,1h7.19v2.75H7.75A3.26,3.26,0,0,1,4.5,28Zm0,7.5a3.26,3.26,0,0,1,3.25-3.25h7.14l-.21.37a2.24,2.24,0,0,0-.11,2l.15.35h-7a.5.5,0,0,0,0,1h7l-.15.35a2.24,2.24,0,0,0,.11,2l.21.37H7.75A3.26,3.26,0,0,1,4.5,35.5ZM7.75,46.25a3.25,3.25,0,0,1,0-6.5h7.2V42.5H7.75a.5.5,0,0,0,0,1h7.19v1.38a2.23,2.23,0,0,0,.23,1l.17.36Zm7.79-8.39A1.25,1.25,0,0,1,16,36.17l.41-.24a.5.5,0,0,0,.18-.68.45.45,0,0,0-.18-.18L16,34.83a1.19,1.19,0,0,1-.59-.74,1.21,1.21,0,0,1,.1-1,1.25,1.25,0,0,1,1.69-.5l.46.26a.5.5,0,0,0,.5,0h0a.5.5,0,0,0,.25-.43V32a1.2,1.2,0,0,1,.35-.88,1.24,1.24,0,0,1,.88-.38,1.21,1.21,0,0,1,.89.36,1.25,1.25,0,0,1,.38.88v.49a.51.51,0,0,0,.75.43l.4-.23a1.26,1.26,0,0,1,1-.13,1.28,1.28,0,0,1,.76.59,1.19,1.19,0,0,1,.12.94,1.18,1.18,0,0,1-.58.76l-.4.24a.51.51,0,0,0-.19.68.47.47,0,0,0,.19.18l.4.24a1.25,1.25,0,0,1-1.21,2.19l-.44-.26a.51.51,0,0,0-.38-.05.52.52,0,0,0-.31.23.54.54,0,0,0-.06.25V39a1.26,1.26,0,0,1-1.24,1.26h0A1.24,1.24,0,0,1,18.41,39v-.49a.51.51,0,0,0-.5-.5.43.43,0,0,0-.25.07l-.41.23A1.26,1.26,0,0,1,15.54,37.86Zm8.75-2.19-.17-.17.17-.17a2.25,2.25,0,0,0-2.16-3.76l-.24.06-.07-.23A2.17,2.17,0,0,0,21,30.19l-.49-.36.6-.09a4.53,4.53,0,0,1,2.71.43A5.52,5.52,0,0,0,29.13,30l.81-.48V31.8a2.14,2.14,0,0,0,.64,1.55l3.86,3.86v4.85a1.19,1.19,0,0,1-1.19,1.19H20.12a1.18,1.18,0,0,1-1.18-1.19v-.91l.3.06a2.24,2.24,0,0,0,2.58-1.6l.07-.24.24.06a2.25,2.25,0,0,0,2.74-1.62A2.28,2.28,0,0,0,24.29,35.67Zm5.65-13.32-1.33.8a4.52,4.52,0,0,1-4.36.17A5.48,5.48,0,0,0,20.18,23l-.58.17,4-7.51a1.19,1.19,0,0,1,1-.63h4.06a1.19,1.19,0,0,1,1.19,1.19Zm-9.86,1.71a4.51,4.51,0,0,1,3.72.15,5.55,5.55,0,0,0,5.33-.2l.81-.49v1.79l-1.32.79a4.47,4.47,0,0,1-2.34.65,4.55,4.55,0,0,1-2-.48,5.57,5.57,0,0,0-4.54-.19l-.77.31V24.51Zm0,3a4.55,4.55,0,0,1,3.72.16A5.52,5.52,0,0,0,29.13,27l.81-.48v1.83l-1.32.79a4.47,4.47,0,0,1-2.34.65,4.55,4.55,0,0,1-2-.48,5.53,5.53,0,0,0-4.54-.19h0l-.77.31V27.47Zm18.86,1.46a3.08,3.08,0,0,1-1.23,2.45L36.14,32.1a.49.49,0,0,0-.1.7l2.27,2.84a2.91,2.91,0,0,1,.63,1.79v7.45a1.38,1.38,0,0,1-1.38,1.37H17.31a1.38,1.38,0,0,1-1.37-1.37V39.41l.29.05a2.22,2.22,0,0,0,1,0l.23-.06.07.23a2.2,2.2,0,0,0,.39.78l.06.07v1.61a2.19,2.19,0,0,0,2.18,2.19H33.25a2.2,2.2,0,0,0,2.19-2.19V37a.51.51,0,0,0-.15-.35l-4-4a1.2,1.2,0,0,1-.34-.84V16.19A2.2,2.2,0,0,0,28.75,14H24.69a2.18,2.18,0,0,0-1.92,1.15L18.2,23.64a2.52,2.52,0,0,0-.15.34,5.52,5.52,0,0,0-.11.71v5.86l-.06.07a2.2,2.2,0,0,0-.39.78l-.07.23-.23-.06a2.22,2.22,0,0,0-1,0l-.29.05V25a4.87,4.87,0,0,1,0-.66,4.94,4.94,0,0,1,.62-1.85L22.48,12H31l6.8,5.57a3,3,0,0,1,1.13,2.37Z"/><line class="b" x1="2.02" y1="47.98" x2="47.98" y2="2.02"/></svg>