<svg xmlns="http://www.w3.org/2000/svg" viewBox="0 0 50 50"><defs><style>.a{fill:#231f20;}.b{fill:none;stroke:#ed1c24;stroke-miterlimit:10;stroke-width:0.96px;}</style></defs><path class="a" d="M25,33.88A8.88,8.88,0,1,0,16.12,25,8.9,8.9,0,0,0,25,33.88Zm0-16.5A7.62,7.62,0,1,1,17.38,25,7.63,7.63,0,0,1,25,17.38Z"/><path class="a" d="M25,36.88A11.88,11.88,0,1,0,13.12,25,11.89,11.89,0,0,0,25,36.88Zm0-22.5A10.62,10.62,0,1,1,14.38,25,10.63,10.63,0,0,1,25,14.38Z"/><path class="a" d="M40.75,2.62H9.25a.64.64,0,0,0-.63.63v43.5a.64.64,0,0,0,.63.63h31.5a.64.64,0,0,0,.63-.63V3.25A.64.64,0,0,0,40.75,2.62ZM9.88,3.88h7.74v6.24H9.88ZM40.12,46.12H9.88V41.38H40.12Zm0-6H9.88V11.38H40.12Zm0-30H18.88V3.88H32.62V7.75a.64.64,0,0,0,.63.63h6.87Zm0-3H33.88V3.88h6.24Z"/><path class="a" d="M24.25,4.88A2.12,2.12,0,1,0,26.38,7,2.13,2.13,0,0,0,24.25,4.88Zm0,3A.88.88,0,1,1,25.12,7,.88.88,0,0,1,24.25,7.88Z"/><rect class="a" x="11.63" y="6.38" width="4.25" height="1.25"/><rect class="a" x="28.13" y="4.88" width="2.75" height="1.25"/><rect class="a" x="28.13" y="7.88" width="2.75" height="1.25"/><path class="a" d="M24.25,30.88a.64.64,0,0,0,.63-.63,1.83,1.83,0,0,1,.59-1.34,3,3,0,0,0,0-4.32,1.82,1.82,0,0,1,0-2.68,3,3,0,0,0,.91-2.16.63.63,0,0,0-1.26,0,1.83,1.83,0,0,1-.59,1.34,3,3,0,0,0,0,4.32,1.82,1.82,0,0,1,0,2.68,3,3,0,0,0-.91,2.16A.64.64,0,0,0,24.25,30.88Z"/><path class="a" d="M28.88,26.75a1.83,1.83,0,0,1-.6,1.34l-.23.27a.62.62,0,0,0-.12.46.61.61,0,0,0,.24.42.63.63,0,0,0,.86-.1l.19-.23a3,3,0,0,0,0-4.32,1.8,1.8,0,0,1,0-2.68l.23-.27a.62.62,0,0,0,.12-.46.57.57,0,0,0-.24-.41.6.6,0,0,0-.86.09l-.19.23a3,3,0,0,0,0,4.32A1.83,1.83,0,0,1,28.88,26.75Z"/><path class="a" d="M21.38,26.75a1.83,1.83,0,0,1-.6,1.34l-.23.27a.62.62,0,0,0-.12.46.61.61,0,0,0,.24.42.63.63,0,0,0,.86-.1l.19-.23a3,3,0,0,0,0-4.32,1.8,1.8,0,0,1,0-2.68l.23-.27a.63.63,0,0,0-1-.78l-.19.23a3,3,0,0,0,0,4.32A1.83,1.83,0,0,1,21.38,26.75Z"/><line class="b" x1="2.02" y1="47.98" x2="47.98" y2="2.02"/></svg>