<svg xmlns="http://www.w3.org/2000/svg" viewBox="0 0 50 50"><defs><style>.a{fill:#231f20;}.b{fill:none;stroke:#ed1c24;stroke-miterlimit:10;stroke-width:0.96px;}</style></defs><path class="a" d="M44.43,13.78a.82.82,0,0,0-1.12-.29l-4,2.3a.82.82,0,1,0,.82,1.41l4-2.3A.82.82,0,0,0,44.43,13.78Z"/><path class="a" d="M44.13,35.11l-4-2.31a.83.83,0,0,0-1.12.3.81.81,0,0,0,.3,1.11l4,2.31a.82.82,0,0,0,1.12-.3A.81.81,0,0,0,44.13,35.11Z"/><path class="a" d="M25.06,41.13a.83.83,0,0,0-.88.76v4.73a.82.82,0,1,0,1.64.12V42A.83.83,0,0,0,25.06,41.13Z"/><path class="a" d="M10.68,15.79l-4-2.3a.82.82,0,1,0-.82,1.41l4,2.3A.82.82,0,0,0,11,16.91.83.83,0,0,0,10.68,15.79Z"/><path class="a" d="M25.06,2.5a.83.83,0,0,0-.88.76V8a.82.82,0,0,0,1.64,0V3.38A.83.83,0,0,0,25.06,2.5Z"/><path class="a" d="M17.2,9.85l-2.3-4a.82.82,0,1,0-1.41.82l2.3,4A.81.81,0,0,0,16.9,11,.83.83,0,0,0,17.2,9.85Z"/><path class="a" d="M25.12,17.72H25A7.28,7.28,0,0,0,17.72,25a.82.82,0,1,0,1.63,0A5.65,5.65,0,0,1,25,19.35h0a.81.81,0,0,0,.88-.75A.82.82,0,0,0,25.12,17.72Z"/><path class="a" d="M47.38,24.94a.83.83,0,0,0-.76-.76H42a.82.82,0,0,0-.12,1.64h4.73A.83.83,0,0,0,47.38,24.94Z"/><path class="a" d="M8.11,24.18H3.38a.82.82,0,0,0,0,1.64H8a.82.82,0,1,0,.12-1.64Z"/><path class="a" d="M25,13A12.05,12.05,0,1,0,37.05,25,12.06,12.06,0,0,0,25,13Zm7.36,19.42A10.41,10.41,0,0,1,17.64,17.64h0A10.41,10.41,0,0,1,32.36,32.37Z"/><path class="a" d="M36.52,43.32h0l-2.3-4a.82.82,0,1,0-1.41.82l2.3,4a.82.82,0,0,0,1.42-.81Z"/><path class="a" d="M36.25,5.57a.82.82,0,0,0-1.12.3l-2.3,4A.82.82,0,0,0,33.12,11h0a.82.82,0,0,0,1.12-.29h0l2.3-4A.82.82,0,0,0,36.25,5.57Z"/><path class="a" d="M16.91,39a.82.82,0,0,0-1.12.3l-2.3,4a.82.82,0,1,0,1.41.82l2.3-4A.82.82,0,0,0,16.91,39Z"/><path class="a" d="M11,33.09a.82.82,0,0,0-1.12-.29l-4,2.3a.82.82,0,0,0-.3,1.12.83.83,0,0,0,1.12.3l4-2.31A.83.83,0,0,0,11,33.09Z"/><line class="b" x1="2.02" y1="47.98" x2="47.98" y2="2.02"/></svg>