<svg xmlns="http://www.w3.org/2000/svg" viewBox="0 0 50 50"><defs><style>.a{fill:#231f20;}</style></defs><path class="a" d="M46.65,42.51,42,37.85l-.2-.19a.57.57,0,0,0-.26-.16s-.06,0-.13-.07l-.09-.06.06-.1a12.51,12.51,0,0,0,1.55-8.09,12,12,0,0,0-11.68-10,.75.75,0,0,1-.75-.45A64.6,64.6,0,0,0,19.39,3.12a1.65,1.65,0,0,0-1.2-.62,1.55,1.55,0,0,0-1.1.62c-1.17,1.29-2.3,2.65-3.43,3.94-.46.56-.94,1.11-1.39,1.66l-.39.45L11.81,9A12.39,12.39,0,0,1,10.58,3.5a1.19,1.19,0,0,0-.22-.81.61.61,0,0,0-.43-.16h0c-.29,0-.61.1-.61.94a12.87,12.87,0,0,1-.87,4.79,6.22,6.22,0,0,1-5.12,4,1,1,0,0,0-.81.45v.39a.91.91,0,0,0,.81.45,6,6,0,0,1,3.76,1.91.61.61,0,0,1,.09.81,38.14,38.14,0,0,0-4,9.94c-.2.81-.29,1.65-.42,2.46-.07.39-.1.78-.16,1.17a.92.92,0,0,1-.07.26l0,.09v2.27c0,.26.1.52.13.81.1.58.19,1.2.32,1.78A15.88,15.88,0,0,0,16.35,47.4a2,2,0,0,0,.48.07l.23,0h2.3a.09.09,0,0,0,.06,0c.07,0,.16,0,.26-.07a15.58,15.58,0,0,0,9.19-4.14,1.19,1.19,0,0,1,1.07-.36,9,9,0,0,0,3.89-.26c.77-.22,1.58-.51,2.33-.81.32-.12.65-.25,1-.35v-.07l0-.26.16.23s.07.1.1.13.13.16.19.26L39.88,44l2.53,2.52a2.9,2.9,0,0,0,2.72.88,2.82,2.82,0,0,0,2.2-2A2.64,2.64,0,0,0,46.65,42.51ZM5.89,13.05,5.69,13l.2-.1a8.11,8.11,0,0,0,4-4.69l.09-.33.13.33A8.11,8.11,0,0,0,14,12.83l.2.09L14,13a8.14,8.14,0,0,0-3.95,4.7L10,18l-.13-.32A8.21,8.21,0,0,0,5.89,13.05ZM27.68,42.74a12.57,12.57,0,0,1-2.76,1.88,14.27,14.27,0,0,1-6.63,1.65,14.24,14.24,0,0,1-12.82-8,15.81,15.81,0,0,1-1.3-10.49A35.76,35.76,0,0,1,8,17.62s.06-.1.1-.13l.19-.26.1.19a12.37,12.37,0,0,1,1,4.8v.48a.63.63,0,1,0,1.26,0c0-.29,0-.55.07-.84a14.78,14.78,0,0,1,.16-1.75,8,8,0,0,1,2.72-5.31,5.69,5.69,0,0,1,3.17-1.26c.46,0,.72-.26.72-.62s-.26-.58-.72-.64a5.8,5.8,0,0,1-4-2.07l-.06-.07,5.53-6.51.1.1A63.27,63.27,0,0,1,29.33,19l.06.17-.16,0a12,12,0,0,0-1.59,23.31l.2.06Zm3.43-1h0a10.7,10.7,0,0,1,0-21.4h0A10.72,10.72,0,0,1,41.79,31.09a10.49,10.49,0,0,1-3.14,7.54A10.62,10.62,0,0,1,31.11,41.77Zm15.08,3.37a1.69,1.69,0,0,1-1.52,1.1,1.63,1.63,0,0,1-1.13-.46,7.48,7.48,0,0,1-.75-.74l-.32-.32-4-4,2.13-2.1-.51-.78.71.62c.06,0,.09.09.16.13l1.46,1.45c1.06,1.1,2.17,2.17,3.27,3.24A1.78,1.78,0,0,1,46.19,45.14Z"/><path class="a" d="M16.12,42.51l-.39-.09a9.59,9.59,0,0,1-6.22-4.34A13.41,13.41,0,0,1,7.6,32.67c0-.35-.19-.74-.71-.74s-.61.42-.68.74a9.37,9.37,0,0,1,.26,1c.2.74.39,1.52.65,2.26A11.16,11.16,0,0,0,13.46,43a15.35,15.35,0,0,0,2.37.71h.06a.79.79,0,0,0,.46-.06.67.67,0,0,0,.25-.42A.6.6,0,0,0,16.12,42.51Z"/><path class="a" d="M27,29.05a6.88,6.88,0,0,0-1.2,0h-.36a1,1,0,0,0-.64.17.85.85,0,0,0-.16.64V35.2a.91.91,0,0,0,.42.87h.35a.78.78,0,0,0,.46-.84v-2.1h.9a2.07,2.07,0,0,0,2-2A2,2,0,0,0,27,29.05Zm.45,2.39a1,1,0,0,1-1.07.46H25.9V30.15l.12,0h.39a1.13,1.13,0,0,1,1,.29A.89.89,0,0,1,27.48,31.44Z"/><path class="a" d="M37.55,26.91a2.13,2.13,0,0,0,0-.42.56.56,0,0,0-.55-.42.58.58,0,0,0-.59.42,2,2,0,0,0,0,.42v3.53H33.21V26.78A.83.83,0,0,0,33,26.2a.66.66,0,0,0-.36-.13.29.29,0,0,0-.16,0,.71.71,0,0,0-.49.75v7a.65.65,0,0,0,.62.72.61.61,0,0,0,.61-.68V31.73h3.14V34a.63.63,0,0,0,.62.68h0c.35,0,.58-.26.61-.68V32.41C37.55,30.57,37.55,28.72,37.55,26.91Z"/></svg>