<svg xmlns="http://www.w3.org/2000/svg" viewBox="0 0 50 50"><defs><style>.a{fill:#231f20;}</style></defs><path class="a" d="M32.34,47.3a.65.65,0,0,1,0-1.29c.58,0,1.18,0,1.84-.09a.65.65,0,0,1,.69.6.64.64,0,0,1-.6.68c-.68,0-1.3.08-1.9.1Z"/><path class="a" d="M44.7,47.5a2.39,2.39,0,0,1-.59-.08l-3.69-.92-1.63.24a.64.64,0,1,1-.17-1.27l1.74-.26a.6.6,0,0,1,.35,0l3.71.93a1.15,1.15,0,0,0,1.38-.83,1.28,1.28,0,0,0,0-.55L45,41.55a.62.62,0,0,1-.05-.38,35.37,35.37,0,0,0,.11-13.64,2.85,2.85,0,0,1,0-1.33l.7-2.8a1.09,1.09,0,0,0-.29-1.08,1.13,1.13,0,0,0-1.08-.3l-3.33.83a3.14,3.14,0,0,1-1.22,0,60.37,60.37,0,0,0-19,0,3.34,3.34,0,0,1-1.22-.05L16.31,22a1.12,1.12,0,0,0-1.37.82,1.06,1.06,0,0,0,0,.56l.71,2.78a3.14,3.14,0,0,1,0,1.33,32.17,32.17,0,0,0-.46,3.25,34.59,34.59,0,0,0,.44,9.9,3.26,3.26,0,0,1,0,1.32l-.71,2.81a1.13,1.13,0,0,0,1.37,1.38l3.33-.83a3,3,0,0,1,1.23-.05l.66.1a.65.65,0,0,1-.17,1.28h0l-.69-.11a1.66,1.66,0,0,0-.7,0l-3.34.83a2.42,2.42,0,0,1-2.93-1.77,2.36,2.36,0,0,1,0-1.18l.71-2.8a2,2,0,0,0,0-.77A36,36,0,0,1,14,30.65a31.6,31.6,0,0,1,.48-3.36,1.82,1.82,0,0,0,0-.77l-.7-2.79a2.41,2.41,0,0,1,2.93-2.94l3.31.83a1.88,1.88,0,0,0,.71,0,62,62,0,0,1,19.42,0,1.94,1.94,0,0,0,.72,0l3.32-.83A2.43,2.43,0,0,1,47,23.73l-.71,2.8a1.77,1.77,0,0,0,0,.76,36.68,36.68,0,0,1-.07,14l.81,3.23a2.44,2.44,0,0,1-1.78,2.94A2.78,2.78,0,0,1,44.7,47.5Z"/><path class="a" d="M27.84,47.28h0c-.64,0-1.29-.06-1.93-.11a.63.63,0,0,1-.59-.68.65.65,0,0,1,.68-.6c.63,0,1.26.08,1.89.11a.64.64,0,0,1,.63.65.65.65,0,0,1-.65.64Z"/><path class="a" d="M14.59,31.36a.59.59,0,0,1-.29-.07,58.5,58.5,0,0,1-5.34-3A1.88,1.88,0,0,0,8.3,28l-3.39-.56A2.43,2.43,0,0,1,3.38,23.6l1.76-2.29a2,2,0,0,0,.32-.71A36.66,36.66,0,0,1,10.87,8.1a1.76,1.76,0,0,0,.28-.71l.46-2.85a2.42,2.42,0,0,1,2.77-2A2.32,2.32,0,0,1,15.47,3l2.71,2.07a2.11,2.11,0,0,0,.64.31A61.43,61.43,0,0,1,36.65,13a2.1,2.1,0,0,0,.68.27l3.37.55a2.43,2.43,0,0,1,2,2.79,2.46,2.46,0,0,1-.47,1.07L40.47,20a1.6,1.6,0,0,0-.32.7c-.12.53-.25,1.06-.4,1.59a.63.63,0,0,1-.79.44.65.65,0,0,1-.45-.79c.14-.5.27-1,.38-1.52a3.17,3.17,0,0,1,.55-1.21l1.77-2.29A1.13,1.13,0,0,0,41,15.35a1,1,0,0,0-.5-.22l-3.38-.56A3.16,3.16,0,0,1,36,14.13,60.51,60.51,0,0,0,18.5,6.62a3.18,3.18,0,0,1-1.1-.52L14.68,4a1.14,1.14,0,0,0-1.81.72l-.45,2.85a3.08,3.08,0,0,1-.49,1.22A35.57,35.57,0,0,0,6.71,20.88a3,3,0,0,1-.55,1.21L4.4,24.38A1.15,1.15,0,0,0,4.62,26a1.12,1.12,0,0,0,.5.21l3.38.56a2.93,2.93,0,0,1,1.14.43c1.69,1.07,3.44,2.06,5.23,3a.64.64,0,0,1-.28,1.22Z"/></svg>