<svg xmlns="http://www.w3.org/2000/svg" viewBox="0 0 50 50"><defs><style>.a{fill:#231f20;stroke:#231f20;stroke-miterlimit:10;stroke-width:0.5px;}</style></defs><path class="a" d="M43.49,19.56c-.08-1-.14-1.78-.17-2.2,0-.65,0-3.51,0-4,0-.3.06-.8.08-1.1s0-.6.06-.69a2,2,0,0,1,.06-.38c0-.15,0-.33.06-.45a.69.69,0,0,0-.38-.75c-.51-.32-1.4,0-2.09.78a6.41,6.41,0,0,0-1,1.46,7.21,7.21,0,0,0-.45,1.49c-.06.33-.47,1.87-.62,2.26a6.86,6.86,0,0,1-.81,1.64c-.06.09-.09.09-.35.09a.94.94,0,0,1-.6-.18,5.17,5.17,0,0,1-1.55-1.34,1.35,1.35,0,0,0-.3-.3.23.23,0,0,0-.15-.21.6.6,0,0,1-.14-.21c-.21-.26-1.08-1.39-1.23-1.54l-.14-.15-.24-.33c-.15-.18-1.55-1.91-1.61-1.94l-.33-.38c-.15-.21-.36-.45-.42-.54s-.92-1.07-1.31-1.49C29,8,28.78,7.8,28.07,7.09c-.45-.42-1-1-1.19-1.19s-.6-.6-.87-.84l-.5-.45a2,2,0,0,0-1.76-.35,1.54,1.54,0,0,0-.83.62,1.94,1.94,0,0,0,0,1.73,4,4,0,0,0,.65,1,5.23,5.23,0,0,0,.6.87,1.31,1.31,0,0,1,.17.2c.27.36.78,1,1.08,1.29a5.54,5.54,0,0,1,.59.68c.18.21.57.63.9.95l.74.78a3.57,3.57,0,0,0,.39.38,1.14,1.14,0,0,0-.66.12c-.06,0-.09.06-.15.06-.15-.2-.5-.62-.59-.71s-.27-.33-.45-.51l-.42-.47c-.2-.21-.38-.42-.74-.87-.06-.09-.36-.44-.39-.47s-.92-1.05-1.25-1.46c-1.87-2.24-2.86-3.07-3.69-3.16a1.48,1.48,0,0,0-1.64,1.34,3.1,3.1,0,0,0,.66,1.85.72.72,0,0,1,.14.23s0,.12.18.3.42.48.72.87.8,1,1.07,1.34c.75.92.83,1,1.73,2.14l.68.86h-.06a1.3,1.3,0,0,0-.41.15.65.65,0,0,0-.12-.15,17,17,0,0,1-1.1-1.34l-.48-.59c-.15-.15-.51-.6-.78-.95A17.3,17.3,0,0,0,18.15,9,1.75,1.75,0,0,0,17,8.58a.87.87,0,0,0-.69.2,2.74,2.74,0,0,0-.38.45,1.21,1.21,0,0,0-.12.77A2.14,2.14,0,0,0,16,11a4,4,0,0,0,.38.71,13.39,13.39,0,0,0,.87,1.13c0,.06.15.18.21.27.23.33.92,1.25,1.13,1.49s.26.33.38.45a2.18,2.18,0,0,0,.24.27,2.37,2.37,0,0,0,.21.23c.24.33.75.9,1,1.2a.26.26,0,0,1,.09.14c-.06.09-.24.27-.44.54l-.36.42c-.09-.06-.39-.39-.84-.87a12.71,12.71,0,0,0-.92-.92,1.4,1.4,0,0,0-1-.3,1.14,1.14,0,0,0-.81.54A1,1,0,0,0,16,17a1.6,1.6,0,0,0,.17.84A9.44,9.44,0,0,0,17.7,20c.15.15.15.15-.23.63s-.51.65-1.34,1.75c-.45.57-.84,1.14-.9,1.23a3.47,3.47,0,0,1-.3.38c-.09.12-.47.66-.83,1.19-.74,1-1.22,1.79-1.4,2.09-.06.09-.15.27-.21.36a8,8,0,0,0-.44.77,2,2,0,0,1-.15.21,15,15,0,0,0-.81,1.82,4.57,4.57,0,0,0-.21,1,6.07,6.07,0,0,0-.09.68c-.06.39-.14,1.43-.26,2.89a6.52,6.52,0,0,1-.12,1.19c0,.09,0,.24-.06.33s0,.15,0,.18-.09.3-.18.57c-.21.59-.63,1.63-1,2.38-.84,1.7-.87,1.75-.84,2a.31.31,0,0,0,.33.27c.24,0,.33-.06.45-.3s.38-.71.56-1c1-1.82,1-1.94,1-2v0a8,8,0,0,0,.5-1.43,14.46,14.46,0,0,0,.39-3.46,13,13,0,0,1,.5-3.33,14.56,14.56,0,0,1,1.49-3c0-.06.21-.33.36-.54s.3-.44.33-.5.24-.36.51-.72.53-.74.59-.86a.75.75,0,0,1,.15-.21,1.76,1.76,0,0,0,.27-.33c.09-.15.44-.62.77-1s.75-1,1-1.28.53-.72.71-.95.6-.75.86-1.11a6.82,6.82,0,0,1,.57-.71,4.89,4.89,0,0,0,.51-.66.7.7,0,0,1,.17-.21,6.85,6.85,0,0,0,.57-.65l.24-.3s.3-.42.42-.56l.71-1a2.11,2.11,0,0,1,1.07-.83.48.48,0,0,1,.48.06.7.7,0,0,1,.36.36A1.54,1.54,0,0,1,24,16.53a2.31,2.31,0,0,1-.24.44c-.06.06-4.71,7-4.59,7.42,0,.06.06.24.24.27s.36-.15.92-1c.3-.44.69-1,.87-1.31a6.31,6.31,0,0,0,.36-.53l2.05-3.13,1.22-1.85a14.76,14.76,0,0,1,2-2.65c.74-.74,1.1-.8,1.55-.65.26.09.29.15.26.42-.06.53-.65,1.6-2.29,4.08-.92,1.4-1.46,2.29-2.89,4.73l-.42.69c0,.06-.29.47-.56.95a8.51,8.51,0,0,0-.57,1,.37.37,0,0,0,.15.36.26.26,0,0,0,.24.09c.15,0,.27-.18.54-.66s1.07-1.75,1.25-2.08c0-.06.38-.63.77-1.31C26,20,28.13,16.53,28.4,16.2c1.81-2.41,2.68-3.1,3.39-2.77a.62.62,0,0,1,.39.66,3.07,3.07,0,0,1-.3,1.1.56.56,0,0,0-.06.21,20.18,20.18,0,0,1-1.7,3,2,2,0,0,0-.27.45c0,.06-.32.54-.71,1.13-.12.18-.18.27-.18.33s-.06.09-.12.15a6.23,6.23,0,0,0-.59.92l-.72,1.19c-.39.66-.65,1.05-.83,1.37-.09.15-.33.54-.57.9-1,1.6-1.13,2-1,2.17a.3.3,0,0,0,.27.15c.15,0,.35-.12.83-.92.09-.18.24-.39.27-.45l.3-.45c.71-1.13.86-1.37.86-1.4s.15-.24.33-.5.39-.6.47-.75a2.16,2.16,0,0,1,.18-.3,5.25,5.25,0,0,0,.51-.83h0a2.14,2.14,0,0,1,.21-.33c.21-.3.83-1.28,1-1.58,0-.06.15-.23.27-.41s.39-.6.59-1c.54-.92,1.11-1.43,1.67-1.48a.62.62,0,0,1,.6.29c.27.3.3.57.15,1.13a30.85,30.85,0,0,1-2,4c-.18.32-.48.83-.59,1.1-.3.56-.57,1-.75,1.4l-.42.74a3.47,3.47,0,0,1-.35.63c-.09.12-.12.18-.12.24l-.39.71c-.24.39-.51.89-.63,1.13s-.2.39-.2.39a26.58,26.58,0,0,0-1.37,2.65h0l-.06.06c-.09.12-.51,1-.72,1.49s-.18.41-.27.62-.2.54,0,.69a.32.32,0,0,0,.24,0c.15-.06.27-.21.39-.51a3.12,3.12,0,0,0,.15-.36c.09-.06.42-.56.44-.56a13.88,13.88,0,0,1,2.24-2.35A12.82,12.82,0,0,1,32,28.29a2.88,2.88,0,0,1,.62-.27A1.27,1.27,0,0,0,33,27.9a1.87,1.87,0,0,1,1-.09c.33.12.27.3.27.36-.06.27-.27.54-.89,1.19a32.16,32.16,0,0,0-4.17,6A12.24,12.24,0,0,1,25.39,40a9.74,9.74,0,0,1-2.15,1,15.92,15.92,0,0,0-4.49,2.17,6.21,6.21,0,0,0-1.46,1.67,1.41,1.41,0,0,1-.18.27.6.6,0,0,0-.06.5.29.29,0,0,0,.24.21h.06a.66.66,0,0,0,.53-.41.46.46,0,0,1,.12-.18c.06-.09.18-.21.27-.33a5.81,5.81,0,0,1,.62-.66,8.16,8.16,0,0,1,3-1.81c.33-.12.66-.27.75-.3l.18-.06a.87.87,0,0,0,.23-.06,4.49,4.49,0,0,1,.48-.18,11,11,0,0,0,2.53-1.34,9.21,9.21,0,0,0,1.31-1.1,14.64,14.64,0,0,0,2.41-3.49c.3-.53.63-1.1.69-1.22a2.35,2.35,0,0,0,.15-.26c0-.06.18-.27.39-.6.09-.15.23-.36.29-.45a5.83,5.83,0,0,0,2,.72,6.46,6.46,0,0,1,2,.77c.42.24.48.24.51.24s.24-.18.27-.27a.28.28,0,0,0,0-.32,6.4,6.4,0,0,0-3.13-1.34,6,6,0,0,1-1.13-.42c.09-.15.3-.45.57-.87a17,17,0,0,1,1.93-2.32,5.4,5.4,0,0,0,.6-.68.83.83,0,0,0,.21-.66c0-.62-.15-.86-.63-1.07s-.71-.21-1.58.09c-1.67.53-2.62,1.19-4.49,3l-.39.38c.3-.56.68-1.28.86-1.58s.45-.83.6-1,.47-.86.65-1.16c0-.06.12-.24.21-.39s.15-.26.15-.26a2.78,2.78,0,0,0,.33-.57c.36-.68.62-1.16.77-1.4s.36-.63.63-1.13.53-1,.59-1.07a21,21,0,0,0,1.79-3.64,2,2,0,0,0-.48-1.87,1.34,1.34,0,0,0-1.55-.27,4.49,4.49,0,0,1,.27-.54l.42-.89v-.92c.36.44.71.89.92,1.16s.69.86.81,1,.32.42.47.6a10.87,10.87,0,0,0,.78.83,3.09,3.09,0,0,0,1.73,1c-.06.12-.18.27-.3.45a10.44,10.44,0,0,0-1.25,2.5c-.21.66-.27.75-.09.89a.3.3,0,0,0,.3.09c.17,0,.29-.23.41-.59a14.14,14.14,0,0,1,1.88-3.25c.27-.39.59-.92.74-1.19a17.35,17.35,0,0,0,1-2.71c.26-1,.29-1.16.47-1.7A5.89,5.89,0,0,1,42,11.29c.41-.48,1-.72,1.16-.6a3.14,3.14,0,0,1-.12.77c0,.15-.06.45-.18,1.46a34.74,34.74,0,0,0-.09,4.8c0,.83.15,2.17.18,2.38A30.79,30.79,0,0,1,43,24.24c0,.39-.18,1.49-.24,1.76-.09.5-.21,1-.33,1.49-.09.29-.15.56-.18.62s-.12.42-.23.84a5.74,5.74,0,0,0-.24.92.29.29,0,0,0,.06.21.43.43,0,0,0,.26.06c.27,0,.3-.09.57-.9l.27-.83.06-.12A.4.4,0,0,0,43,28a.64.64,0,0,0,.09-.21c0-.06,0-.11,0-.17a9.42,9.42,0,0,0,.35-1.52c0-.12.06-.33.09-.45s.06-.39.09-.57a4.26,4.26,0,0,0,.06-.44,14.55,14.55,0,0,0,.09-2A23.2,23.2,0,0,1,43.49,19.56ZM31.05,12.74a3.33,3.33,0,0,0-1.37.84,2.45,2.45,0,0,1-.24-.27l-.09-.09c-.15-.18-.66-.71-1.13-1.22s-1-1-1.11-1.19a11.47,11.47,0,0,0-.86-1c-.21-.24-.57-.63-.77-.9L25,8.43c-.06-.06-.45-.63-.77-1.11-.57-.83-.78-1.42-.69-1.78a.52.52,0,0,1,.36-.39A1.14,1.14,0,0,1,24.32,5a2.44,2.44,0,0,1,1.19.63c.44.41,2.77,2.74,3.21,3.24a6,6,0,0,0,.57.6c.09.09.21.24.33.39s.29.35.41.47a1.33,1.33,0,0,1,.24.27c.06.09.33.39.45.54s.5.56.65.77.42.51.75.89A2.52,2.52,0,0,0,31.05,12.74ZM19.25,6.25a.48.48,0,0,1,.27-.09,1.73,1.73,0,0,1,.51.15,3.11,3.11,0,0,1,.86.63,2.44,2.44,0,0,0,.3.27,5.7,5.7,0,0,1,.59.65c.12.12.39.45.63.72.65.74.89,1,1.34,1.54.24.27.57.66.74.87l1,1.13c.35.42.77.89.92,1.07l.18.21,0,0a8.68,8.68,0,0,0-1.34,1.64c-.06.06-.12.18-.21.3a1.65,1.65,0,0,0-.48-.75c-.18-.21-.41-.48-.5-.56s-.78-1-1.55-1.94c-2.86-3.57-3-3.78-3.28-4.32a3.92,3.92,0,0,1-.3-1A.74.74,0,0,1,19.25,6.25Zm.69,8.85a5.21,5.21,0,0,0-.39-.45c-.12-.12-.42-.51-.66-.83A9.2,9.2,0,0,0,18.3,13a.41.41,0,0,0-.09-.12.4.4,0,0,0-.15-.23,7.77,7.77,0,0,1-.51-.63.63.63,0,0,0-.14-.21.46.46,0,0,1-.12-.18c0-.09-.21-.38-.36-.68a1.26,1.26,0,0,1-.27-.87c0-.35,0-.38.09-.5s.18-.18.66,0c.26.09.35.15.83.62a5.6,5.6,0,0,1,.83.93c0,.06,0,.12.21.23l.06.06c0,.06.06.15.27.39a7.59,7.59,0,0,1,.57.66,5,5,0,0,0,.38.44.41.41,0,0,1,.09.12c.06.09.24.27.36.45s.33.39.39.48.29.35.5.59.21.24.24.27a2,2,0,0,0-.33.42,4.18,4.18,0,0,0-.32.44s-.18.24-.36.45l-.21.27-.09-.18a3.29,3.29,0,0,1-.24-.3,3.34,3.34,0,0,0-.24-.36Zm-.63,3.33-.27.36c-.2.24-.41.54-.5.63a1.28,1.28,0,0,1-.24.26,11.7,11.7,0,0,1-1-1.34,2.69,2.69,0,0,1-.45-1.16.5.5,0,0,1,.24-.44.43.43,0,0,1,.18-.06.5.5,0,0,1,.32.14,12.07,12.07,0,0,1,1,.93Z"/><path class="a" d="M42.27,30.55c-.12,0-.18,0-.26.09-.24.18-.18.63.11,1.11s.36.38.42.38.27-.21.3-.24c.12-.2.06-.29-.12-.68S42.39,30.58,42.27,30.55Z"/><path class="a" d="M37,35.8c-.44-.45-.59-.57-.86-.48a.3.3,0,0,0-.15.3c0,.24.51.74.77,1a.89.89,0,0,0,.42.15c.06,0,.09,0,.12,0a.26.26,0,0,0,.18-.21C37.57,36.36,37.48,36.21,37,35.8Z"/><path class="a" d="M8.23,42.32a.23.23,0,0,0-.24.06H8a1,1,0,0,0-.23.38,1,1,0,0,0-.09.69.23.23,0,0,0,.21.15h0a.53.53,0,0,0,.38-.27c.12-.18.33-.6.18-.8S8.32,42.32,8.23,42.32Zm-.15.15Z"/><path class="a" d="M16.69,46.16c-.09,0-.21,0-.36.21h0c-.2.33-.44.74-.32,1a.29.29,0,0,0,.23.15c.3,0,.6-.66.63-.92S16.78,46.19,16.69,46.16Z"/><path class="a" d="M38.31,5.42l-.44-.09h0a2.9,2.9,0,0,1-2.15-2.15l-.09-.44a.31.31,0,0,0-.59,0l-.15.56A2.83,2.83,0,0,1,33,5.21l-.56.15a.31.31,0,0,0,0,.59l.44.09A2.94,2.94,0,0,1,35,8.19l.09.45a.28.28,0,0,0,.29.23h0a.33.33,0,0,0,.3-.21l.15-.56a2.83,2.83,0,0,1,1.94-1.94L38.34,6a.29.29,0,0,0,.21-.29A.29.29,0,0,0,38.31,5.42Z"/><path class="a" d="M32.33,43.18l-.3-.06h0a1.9,1.9,0,0,1-1.4-1.4l-.06-.3a.25.25,0,0,0-.48,0l-.12.36A1.87,1.87,0,0,1,28.72,43l-.35.12a.23.23,0,0,0-.18.24.26.26,0,0,0,.18.24l.29.06a1.9,1.9,0,0,1,1.4,1.4l.06.3a.23.23,0,0,0,.24.17h0a.23.23,0,0,0,.24-.17l.12-.36A1.87,1.87,0,0,1,32,43.78l.36-.12a.25.25,0,0,0,0-.48Z"/><path class="a" d="M10.62,20l-.3-.06a2,2,0,0,1-1.49-1.49l-.06-.29A.25.25,0,0,0,8.53,18a.29.29,0,0,0-.27.18l-.15.38a1.87,1.87,0,0,1-1.34,1.34L6.36,20a.26.26,0,0,0-.18.27.25.25,0,0,0,.21.24l.29.06a2,2,0,0,1,1.49,1.49l.06.29a.25.25,0,0,0,.24.21h0a.23.23,0,0,0,.24-.18L8.83,22a1.89,1.89,0,0,1,1.34-1.34l.39-.12a.25.25,0,0,0,.17-.27A.19.19,0,0,0,10.62,20Z"/></svg>