<svg xmlns="http://www.w3.org/2000/svg" viewBox="0 0 50 50"><defs><style>.a{fill:#231f20;}</style></defs><path class="a" d="M35.45,41.59a.67.67,0,0,0,.3-.08.65.65,0,0,0,.28-.88l-2-4a.66.66,0,0,0-1.17.6l2,4A.68.68,0,0,0,35.45,41.59Z"/><path class="a" d="M31.73,39a.68.68,0,0,0-.29.89l1.22,2.39a.68.68,0,0,0,.89.29.66.66,0,0,0,.29-.88l-1.22-2.4A.67.67,0,0,0,31.73,39Z"/><path class="a" d="M24,46.19H20a.24.24,0,0,1-.18-.09.25.25,0,0,1,0-.2l.26-.78a6,6,0,0,0,.28-1.79V41.84a5.84,5.84,0,0,0-.61-2.6l-.89-1.77a18.31,18.31,0,0,1-1-14.16.66.66,0,0,0-1.25-.42,19.63,19.63,0,0,0,1,15.17l.89,1.77.09.21a2.3,2.3,0,0,0-1.14.43H13.76a1,1,0,0,1-.35-.06L12.2,40a1.54,1.54,0,0,0-2,1.46v.39a8.18,8.18,0,0,0-2.76.76,9,9,0,0,0-3.28,2.89.71.71,0,0,0,.06,1,.7.7,0,0,0,1-.22A7.73,7.73,0,0,1,8,43.8a6.4,6.4,0,0,1,2.16-.61v.23a1.55,1.55,0,0,0,.64,1.25,1.53,1.53,0,0,0,.9.29,9.7,9.7,0,0,0,1.7-.48,1,1,0,0,1,.35-.06h3.75a2.48,2.48,0,0,0,1.25.44l-.2.63a1.54,1.54,0,0,0,.21,1.38,1.55,1.55,0,0,0,1.25.64h4a.66.66,0,0,0,0-1.32Zm-5-2.65h-.1a1.1,1.1,0,1,1,0-2.19H19Zm-4.87-1.76h2.44a2.44,2.44,0,0,0-.09.66,2.39,2.39,0,0,0,.09.66H14.13Zm-2.35,1.85a.21.21,0,0,1-.2,0,.22.22,0,0,1-.09-.18v-2a.22.22,0,0,1,.09-.18.21.21,0,0,1,.2,0l1,.34v1.69Z"/><path class="a" d="M30.8,36.93A6.37,6.37,0,0,0,31,30.77L25.79,20.36a1.54,1.54,0,0,0-2.62-.21,13.17,13.17,0,0,0-1.65,12.36L24,39a1.6,1.6,0,0,0,1.48,1A6.37,6.37,0,0,0,30.8,36.93Zm-1.73-7.11-1,.5a.18.18,0,0,1-.16,0,.19.19,0,0,1-.13-.11l-2.38-4.75a.21.21,0,0,1,.1-.29l1-.5Zm-3.64,8.9a.23.23,0,0,1-.21-.15l-2.46-6.52a11.82,11.82,0,0,1,1.48-11.13.21.21,0,0,1,.19-.09.19.19,0,0,1,.18.12L25.9,23.5l-1,.5a1.55,1.55,0,0,0-.68,2.06l2.38,4.75a1.55,1.55,0,0,0,2.07.69l1-.5.19.36a5.09,5.09,0,0,1-4.42,7.36Z"/><path class="a" d="M48.84,38.43,35,9.12a.67.67,0,0,0-.88-.32.66.66,0,0,0-.31.88L47.55,38.79l-1.2.56L29.88,4.44l1.2-.56,1.43,3a.66.66,0,0,0,.88.31.64.64,0,0,0,.31-.87L32.18,3.12a1.11,1.11,0,0,0-1.46-.53l-1.59.75A1.09,1.09,0,0,0,28.6,4.8l.38.82L26.92,8.05a2.47,2.47,0,0,0-.56,1.77c0,.5.1,1,.16,1.49A20.07,20.07,0,0,0,17.88,20a.65.65,0,0,0,.28.88.67.67,0,0,0,.3.08.66.66,0,0,0,.59-.36,18.81,18.81,0,0,1,7.66-7.87,40.54,40.54,0,0,0,3.43,11.09l3,6.37a.65.65,0,0,0,.59.38.68.68,0,0,0,.28-.07.67.67,0,0,0,.32-.88l-3-6.36A39.55,39.55,0,0,1,27.67,9.7a1.12,1.12,0,0,1,.26-.8l1.67-2L44.49,38.49H38.55l-2.9-6.13a.67.67,0,0,0-.88-.31.66.66,0,0,0-.31.88l2.95,6.25a1.12,1.12,0,0,0,1,.63h1.83v2.77a6.09,6.09,0,0,0,1,3.27.18.18,0,0,1,0,.22.2.2,0,0,1-.19.12h-14a.66.66,0,0,0,0,1.32H41a1.54,1.54,0,0,0,1.35-.81,1.64,1.64,0,0,0-.09-1.61,4.66,4.66,0,0,1-.74-2.51V39.81h3.55l.14.3a1.12,1.12,0,0,0,1,.63,1.07,1.07,0,0,0,.46-.11l1.6-.74a1.09,1.09,0,0,0,.53-1.46Z"/></svg>