<svg xmlns="http://www.w3.org/2000/svg" viewBox="0 0 50 50"><defs><style>.a{fill:#231f20;}.b{fill:none;stroke:#ed1c24;stroke-miterlimit:10;stroke-width:0.96px;}</style></defs><path class="a" d="M25.08,7.09a3.23,3.23,0,0,1,3.22,3.22.65.65,0,1,0,1.29,0,3.23,3.23,0,0,1,3.22-3.22.65.65,0,1,0,0-1.29,3.23,3.23,0,0,1-3.22-3.22.65.65,0,1,0-1.29,0A3.23,3.23,0,0,1,25.08,5.8a.65.65,0,1,0,0,1.29Zm2.49-.75a4.52,4.52,0,0,0,1.27-1.27L29,4.92l.1.15a4.52,4.52,0,0,0,1.27,1.27l.16.11-.16.1a4.52,4.52,0,0,0-1.27,1.27L29,8l-.11-.16a4.52,4.52,0,0,0-1.27-1.27l-.15-.1Z"/><path class="a" d="M29.84,18.81a.65.65,0,0,0,.65.65,3.22,3.22,0,0,1,3.22,3.22.65.65,0,0,0,1.3,0,3.22,3.22,0,0,1,3.21-3.22.65.65,0,1,0,0-1.29A3.22,3.22,0,0,1,35,15a.65.65,0,0,0-1.3,0,3.22,3.22,0,0,1-3.22,3.22A.65.65,0,0,0,29.84,18.81Zm3.14-.1a4.39,4.39,0,0,0,1.27-1.27l.11-.16.1.16a4.65,4.65,0,0,0,1.27,1.27l.16.1-.16.11a4.52,4.52,0,0,0-1.27,1.27l-.1.15-.11-.15A4.27,4.27,0,0,0,33,18.92l-.15-.11Z"/><path class="a" d="M46.73,22.81H46.6l-18.26,3.8,0,0-7.17-5.73v-.07L23.41,2.66a.64.64,0,0,0-.57-.72h-.08a5.63,5.63,0,0,0-3.88,1.69A4.49,4.49,0,0,1,15.8,5a3.22,3.22,0,0,1-2.63-1.36,4.49,4.49,0,0,0-3-1.69,4.42,4.42,0,0,0-3.31.91,4.22,4.22,0,0,0-.79.79A3.26,3.26,0,0,1,3.44,5H3.26a.61.61,0,0,0-.52.29.65.65,0,0,0-.06.63L7.92,17.57l-.12,0a3,3,0,0,0-1.74,3.78,2.87,2.87,0,0,0,.63,1c.06.07.13.13.19.19l.11.09-.1.09A3,3,0,0,0,6.62,27a2.82,2.82,0,0,0,1,.72l.1.05,0,.11a2.8,2.8,0,0,0-.22,1,2.2,2.2,0,0,0,2.2,2.19h.92v.12A3.33,3.33,0,0,0,12,33.83l.05,0v.06A15,15,0,0,1,8.51,44.67a.65.65,0,0,0,.07.92,7.6,7.6,0,0,1,.68.71,4.15,4.15,0,0,0,3.39,1.77h.06a5.76,5.76,0,0,0,3.89-1.69A4.5,4.5,0,0,1,19.67,45a3.31,3.31,0,0,1,2.64,1.36,4.46,4.46,0,0,0,3.54,1.74,4.11,4.11,0,0,0,2.68-.91.67.67,0,0,0,.25-.55,16.5,16.5,0,0,0-3.18-8.56l-.21-.29,21.17,5.65a.63.63,0,0,0,.56-.12.64.64,0,0,0,.26-.51V23.45a.65.65,0,0,0-.65-.64ZM4.25,6.26l.15,0A4.88,4.88,0,0,0,7,4.58a3.21,3.21,0,0,1,5.26,0A4.53,4.53,0,0,0,15.8,6.32a5.64,5.64,0,0,0,3.88-1.69,5.7,5.7,0,0,1,2.15-1.29L22,3.28l-2.12,17L16.38,19v-.08a15.45,15.45,0,0,1,.8-6.81A15.24,15.24,0,0,1,18.6,9.22l-1.09-.7A16.12,16.12,0,0,0,16,11.63,16.42,16.42,0,0,0,15,18.29v.19l-2.53-.92v-.07L11.05,8.78,9.78,9l1.39,8.4H9.26Zm23.2,40v.08l-.07,0a2.81,2.81,0,0,1-1.44.39h-.1a3.25,3.25,0,0,1-2.63-1.36,4.45,4.45,0,0,0-3.54-1.73,5.7,5.7,0,0,0-3.89,1.68,4.46,4.46,0,0,1-3.07,1.41h-.06a2.91,2.91,0,0,1-2.44-1.34c-.08-.09-.17-.2-.27-.3l-.07-.08L10,45a16.44,16.44,0,0,0,3.47-10.09v-.22l1.75,1v.08L14.41,41l1.28.18.69-4.85,1.33.77,3.7,4.44,1-.83-2.9-3.49h3.74l0,0A15.51,15.51,0,0,1,27.45,46.26Zm18.63-4.32L23.7,36l-.17,0H18.29l0,0-5.25-3a2.08,2.08,0,0,1-1.16-1.75v-.13h2.28v-1.3H9.62a.9.9,0,0,1-.9-.9A1.42,1.42,0,0,1,9,28l0-.05h3.53v-1.3H8.85a1.67,1.67,0,1,1,0-3.34h3V22h-3a1.67,1.67,0,0,1-1.67-1.67v-.09A1.77,1.77,0,0,1,9,18.69h2.86l8.29,3,7.63,6.11a.81.81,0,0,0,.3.13l18,3Zm0-12.29L32.35,27.36v-.25l13.74-2.86Z"/><line class="b" x1="2.02" y1="47.98" x2="47.98" y2="2.02"/></svg>