<svg xmlns="http://www.w3.org/2000/svg" viewBox="0 0 250 250"><defs><style>.a{fill:#231f20;}</style></defs><path class="a" d="M204.37,137.28l-.25-.2-.09-.3a9.63,9.63,0,0,0-6.23-6.52l-10.71-3.6a9.5,9.5,0,0,0-5.4-.21l-.23,0-.24,0c-5.14-1.28-31.29-8.48-41.67-24.31-5-7.54-7.18-17.13-9.5-27.29l-.16-.67c-3.41-14.4-6.94-29.29-18.79-40.71a13.57,13.57,0,0,0-9.45-3.87A13.38,13.38,0,0,0,95.84,31l-.55.27-.49-.37A23.73,23.73,0,0,0,80.37,26c-13.46,0-26.09,6.46-35.55,18.18a62,62,0,0,0-13.42,38,49.11,49.11,0,0,0,21,40.17l.43.3v15.07L28.13,148.59l2.12,4.72,15.7-7,.48.6a34.58,34.58,0,0,0,53.69,0l.49-.59,16.5,7.35a14.9,14.9,0,0,1,6.77,5.83l17.28,27.75,24.77-29.6L162,154.4l-20.32,24.29L128.19,157a20.26,20.26,0,0,0-9-7.91L93.56,137.71V124h1a13.79,13.79,0,0,0,13-9.45,102.44,102.44,0,0,0,4.1-28.83c0-14.26-2.7-27.94-7.23-36.59l-.1-.19v-.22a23.84,23.84,0,0,0-4.27-12.43l-1-1.37,1.65-.2a9.34,9.34,0,0,1,1-.08,8.09,8.09,0,0,1,5.83,2.48c11,10.57,14.32,24.91,17.51,38.78,2.15,9.56,4.58,20.38,10.23,29,.43.65.92,1.33,1.54,2.13l.52.68-.59.62a33.57,33.57,0,0,1-19.43,10.2l.55,5.1a39.18,39.18,0,0,0,22.25-11.41l.69-.7.71.67a55.09,55.09,0,0,0,5.42,4.47l.92.67-.78.83a47.55,47.55,0,0,1-33.57,15v5.1c20.72.06,41.29,2.07,56.58,5.54l.65.14.11.66a9.54,9.54,0,0,0,5.17,7l7.24,3.65,1.36.55-9.63,10a3.5,3.5,0,0,0-.7.85l-.05.09L147.77,208a8.13,8.13,0,0,1-12.46,1.47l-20.26-19.53V179.63H110V224h5.09V197l16.75,16.15a13.29,13.29,0,0,0,20.5-2.43l26.53-41.29,14.49-15.14.73-.53.6.66c5.42,6,8.16,11.72,8.16,17.12,0,6.32-2.59,13.7-7.69,21.94l4.31,2.75c5.62-9.06,8.48-17.37,8.48-24.69,0-8.44-5.22-15.9-9.6-20.68l-.64-.71,3.87-3.87a8.8,8.8,0,0,0,1.43-1.76l.67-1.06.88.88c7.88,7.83,12.59,18,12.59,27.2,0,8.57-2.61,17-4.41,21.8l4.78,1.88c3.13-8.72,4.72-16.69,4.72-23.68C222.2,156.68,212.59,143.8,204.37,137.28ZM100.67,53.23l.4.93c3.45,8.07,5.51,19.89,5.51,31.61a97.91,97.91,0,0,1-4,27.35v0A8.25,8.25,0,0,1,94.78,119a77.11,77.11,0,0,1-19.4-3.15l-1.5,5a108.18,108.18,0,0,0,13.71,2.8l.88.11V137a6,6,0,0,0,3.64,5.62l3.64,1.62-1,1a29.46,29.46,0,0,1-43,0l-1-1,3.4-1.5a6.16,6.16,0,0,0,3.66-5.63V104.67H52.79v11.47l-1.67-1.5a43.89,43.89,0,0,1-7.32-8.51l-.19-.28,0-.33c1-17.94,23.31-33.78,37.13-41.93l.83-.55a197.64,197.64,0,0,1,18.15-9.39Zm-1.52-5.66.1.75-.7.3A179.56,179.56,0,0,0,76.34,60.17l-.79.5C62.8,68.47,46.4,80.9,40.64,95.76l-1,2.62-.87-2.67A44,44,0,0,1,36.6,82.06c0-24.1,18-51,43.88-51A18.84,18.84,0,0,1,99.15,47.57ZM171.53,139l-.76-.17a244,244,0,0,0-33.37-4.64l-3.47-.25,3.08-1.63a52.9,52.9,0,0,0,14.72-11.46l.54-.6.7.41A105.92,105.92,0,0,0,174.79,130l1.15.35-.63,1.19Zm26.3,3.58-7.09,7.1-.2.17-.69.54,0,0a4.72,4.72,0,0,1-2.35.62,4.48,4.48,0,0,1-2-.47h0l-7.09-3.6a4.5,4.5,0,0,1-2.51-4.06,5,5,0,0,1,.4-2l3.63-7.17a4.5,4.5,0,0,1,4.06-2.51,4.9,4.9,0,0,1,1.24.19l.2.06L196.13,135a4.52,4.52,0,0,1,1.7,7.54Z"/><rect class="a" x="193.15" y="83.14" width="24.4" height="5.09" transform="translate(-0.44 170.3) rotate(-45)"/><rect class="a" x="159.93" y="54.7" width="5.09" height="22.99"/></svg>