<svg xmlns="http://www.w3.org/2000/svg" viewBox="0 0 250 250"><defs><style>.a{fill:#231f20;}</style></defs><path class="a" d="M154.74,183.39a3,3,0,0,0-.67.4c-.4.27-.94.54-1.34.81-2.82,1.47-5.77,2.82-8.73,4.43l-3.75,1.88V175.47a3.15,3.15,0,0,1,1.34-2c3.22-2.55,6.58-5.1,9.93-7.65l5.37-4c2.15-1.75,4.43-3.36,6.58-5.1.4-.4,1.74-1.61.94-3a4.16,4.16,0,0,0-2.69-1.47c-.4-.14-1.21.54-1.74.94l-.27.13c-3.76,3-7.65,5.77-11.41,8.73l-5.5,4.16c-.41.27-.67.53-1.08.8l-1.34.94-.13-.8a.78.78,0,0,0-.14-.54,5.69,5.69,0,0,0-.13-.67V137.21a3.42,3.42,0,0,1,1.34-2.41c2.15-1.61,4.3-3.36,6.31-4.83a28.22,28.22,0,0,1,2.55-1.88l3.22-2.42c3.22-2.41,6.58-5,9.67-7.52a3.82,3.82,0,0,0,1.07-2.81c0-.54-1.07-1.48-1.61-1.48a4.54,4.54,0,0,0-2.82.8c-4.16,3.09-8.32,6.31-12.35,9.4l-4.43,3.49c-.4.27-.8.54-1.34.94L140,129.7V82.32a2.41,2.41,0,0,0-2.42-2.42h0a2.4,2.4,0,0,0-2.41,2.42v45.36l-.14,2-11.81-9c-2.82-2.14-5.5-4.29-8.32-6.3a3.38,3.38,0,0,0-2.15-.68,2.27,2.27,0,0,0-1.48.94,2.39,2.39,0,0,0,.67,3.49,5.88,5.88,0,0,0,.94.68l5.24,4c5.1,3.89,10.33,7.92,15.57,11.81a3.74,3.74,0,0,1,1.61,3.36v27.11a5.23,5.23,0,0,1-.13,1.35l-.14,1.88-3.76-3c-2.28-1.74-4.43-3.35-6.71-5.1-1.07-.8-2-1.61-3.09-2.41-2.14-1.61-4.29-3.36-6.44-5a2.62,2.62,0,0,0-2.55-.54,2.69,2.69,0,0,0-1.48,1.48c-.53,1.48.14,2.28,1.48,3.22,7.12,5.37,14.23,10.74,21.21,16.24a2.73,2.73,0,0,1,1.48,2c.13,3.62.13,7.24,0,11.14v4.29l-.68-.27c-.8-.4-1.61-.67-2.28-1.07-1.74-.81-3.35-1.48-5-2.15a3,3,0,0,1-1.88-2.82c-1.21-15.84-14.5-29.12-30.34-30.2a2.86,2.86,0,0,1-2.82-2.15A50.35,50.35,0,0,1,89.78,129c1.07-9.67,4-19.73,9.12-31.68,8.06-18.79,19.06-38,34.63-60.27.81-1.07,1.62-2.28,2.42-3.36l1.61-2.14.4.53c.14.27.41.41.54.68s.54.67.81,1.07c5.5,8,10.87,16,16.37,24,1.88,2.68,3.36,1.74,3.9,1.47,1.61-1.07,1.07-2.68.26-4l-.4-.68a38.32,38.32,0,0,0-2.55-3.89l-2.28-3.22c-4.57-6.71-9.4-13.56-14.1-20.27-1.07-1.61-2-2.28-2.81-2.28s-1.75.81-3,2.42A379.23,379.23,0,0,0,107,70.1C97.43,87,91.39,100.84,87.76,114.53c-3.49,12.75-4,23.36-1.74,33.15a33.59,33.59,0,0,0,1.07,3.9l.4,1.61.14.4-.4.13c-.94.27-1.88.68-2.82.94A51.46,51.46,0,0,0,78.1,157a2.61,2.61,0,0,0-1.61,2.28,1.92,1.92,0,0,0,1.07,1.88,4.47,4.47,0,0,0,3.22,0A29.24,29.24,0,0,1,96.62,159a28.62,28.62,0,1,1-32.75,30.47A28.07,28.07,0,0,1,70.31,169c1.08-1.21,1.48-2.29.81-3.49a2.07,2.07,0,0,0-1.75-1.21,3.08,3.08,0,0,0-2.68,1.34A32.57,32.57,0,0,0,59,191.58a33.49,33.49,0,0,0,65.77,3.49l.81-3.36.53.27c.81.27,1.48.67,2.28.94a48.42,48.42,0,0,0,5,2c1.75.67,2,1.61,2,3.09V221a4.84,4.84,0,0,0,1.48,4h2c1.08-.81,1.48-2,1.48-4V197.75a2.63,2.63,0,0,1,1.88-2.82c1.48-.53,3-1.07,4.7-1.88,4-2,7.51-3.75,10.6-5.5a3.87,3.87,0,0,0,1.75-1.88,3.24,3.24,0,0,0-.27-1.88C157.83,182.45,156.49,182.32,154.74,183.39Z"/><path class="a" d="M167.09,66.88c-.4-.67-.94-1.21-1.21-1.21h-.26a4.33,4.33,0,0,0-2.55.67c-1.08.81-.68,2-.14,3,.67,1.2,1.34,2.41,1.88,3.62,1.74,3.36,3.62,6.71,5.37,10.07,7.92,15.57,12.48,28.05,14.76,40.4s1.08,23.49-3.89,33.42a57.69,57.69,0,0,1-15.17,18.79,2.78,2.78,0,0,0-1.2,2,2.38,2.38,0,0,0,.67,1.74,1.91,1.91,0,0,0,1.61.81,3.1,3.1,0,0,0,2.15-.94l.13-.14c2.15-2,4.43-4,6.44-6.17,10.07-10.87,15.3-23.62,15.57-38-.13-1.47-.4-3-.53-4.56-.41-3.22-.81-6.58-1.35-9.8C185.21,100.7,176.22,83,167.09,66.88Z"/><path class="a" d="M75.41,192.25c4.17,2.68,8.33,5.23,12.49,7.78,2.28,1.48,3.08,1.35,5-.67,3.49-4.16,7.12-8.19,10.61-12.35l3.22-3.75c1.21-1.35,2.42-2.82,3.49-4.17a2.49,2.49,0,0,0-.27-3.35,2.25,2.25,0,0,0-3.35.27c-.54.53-1.08,1.2-1.62,1.74l-.53.67L89.78,195.34l-4-2.55L78.1,188a4.34,4.34,0,0,0-2.28-.8h-.54a2.47,2.47,0,0,0-1.34,1.07C72.86,190.1,74.21,191.44,75.41,192.25Z"/></svg>