<svg xmlns="http://www.w3.org/2000/svg" viewBox="0 0 250 250"><defs><style>.a{fill:#231f20;}</style></defs><path class="a" d="M203.59,158.74a8.59,8.59,0,0,0-4.76-4.89,8.88,8.88,0,0,0-6.88-.14,9.33,9.33,0,0,0-5,5c-1.33,3-2.65,6.22-4,9.39-.66,1.46-1.32,3-1.85,4.5a4.56,4.56,0,0,1-.53,1.06l-.66,1.32-.66-.4a13.3,13.3,0,0,0-10.32-2l-1.06.26,1.06-3.17c.79-2.38,1.45-4.63,2.25-6.88a2.46,2.46,0,0,1,1.45-1.19c10.32-3,16.27-10.45,17.2-21.29a39,39,0,0,0-.67-13.36c-1-4.5-3.17-6.88-6.61-7.67l-.79-.13.39-.8c.53-1.05,1.2-2.25,1.72-3.3,1.19-2.38,2.52-4.76,3.57-7.14a73.93,73.93,0,0,0,5.43-41.14,23.89,23.89,0,0,0-1.06-4.76,2.93,2.93,0,0,0-.4-.66l-.13-.13V61a4,4,0,0,0-.26-1.19,74.3,74.3,0,0,0-11.64-13A85.57,85.57,0,0,0,149.63,29a78,78,0,0,0-43.38-1.72,83.53,83.53,0,0,0-32.8,17.19A81.5,81.5,0,0,0,58.77,60.34a1.83,1.83,0,0,0-.4,1.59v.27c0-.14,0,.13-.13.39-4.1,18.78-.92,36.9,9.26,54.23l.26.39.4.8a.48.48,0,0,1,.13.39l.14.8-.67.13c-3.7.92-5.81,3.57-6.74,8.33A37.77,37.77,0,0,0,62,147c2.51,7.41,7.67,12.3,15.34,14.55a2.51,2.51,0,0,1,2.11,2c.53,2,1.19,3.84,1.85,5.82l.8,2.38.4,1.06-1.06-.26a14,14,0,0,0-10.45,2.11l-.66.4L63.8,159.93a13.57,13.57,0,0,0-.93-2,8.92,8.92,0,0,0-11.5-4.1,9.27,9.27,0,0,0-4.77,4.76,8.26,8.26,0,0,0,0,6.61c4.77,10.71,9.13,20.37,13.63,29.49a27.45,27.45,0,0,0,5.15,7c4.77,4.9,9.53,9.66,14.29,14.42l7.67,7.67A3.61,3.61,0,0,0,90.12,225h28.56a3.64,3.64,0,0,0,2.38-.66,2.91,2.91,0,0,0,.53-2.12c-.13-3.57-.26-7.14-.53-10.58-.13-1.45-.13-2.91-.26-4.36l-.13-1.72h8.06l-.13,5.29c-.13,3.57-.26,7.27-.26,10.84a4.37,4.37,0,0,0,.53,2.65,3.71,3.71,0,0,0,2.64.66h28.3a3.9,3.9,0,0,0,2.91-1.19c8.2-8.33,15.21-15.21,21.83-21.82a31.23,31.23,0,0,0,6.61-9.79c3.57-7.93,7.8-17.06,11.9-26A9.79,9.79,0,0,0,203.59,158.74Zm-21.16-35.05c1.19.53,2,2,2.51,4.37,1.46,7,1.06,13.49-1.45,19.31-1.85,4.49-5.82,8.2-9.92,9.25l-.93.27.13-.93c.14-.79.27-1.45.4-2.25.27-1.58.53-3.17.66-4.76.66-7.8,1.19-14.68,1.59-21a3.46,3.46,0,0,1,1.85-3.05C179.65,123.43,181.24,123.16,182.43,123.69Zm5.42-59.11c5.29,11.9-1.45,44.17-11.11,53.16l-1.06.93-.13-1.32c-.13-1.06-.13-2.25-.26-3.31-.13-2.38-.4-4.89-.66-7.28-1.33-11.1-4.5-19.44-9.92-25.92a64.41,64.41,0,0,0-5.16-5.16l-.53-.39a1.71,1.71,0,0,0-1.59-.53,2.27,2.27,0,0,0-2,2.38,2,2,0,0,0,.93,1.45c7.67,6.09,11.9,14.68,13.88,27.51a16.59,16.59,0,0,1,.27,2.52v2l-1.19-1.72C155.45,89.17,141,75.29,123.84,65.37l-2-1.19h65.86ZM66.31,58.36A77.55,77.55,0,0,1,74.25,50a78.28,78.28,0,0,1,28.17-16.8,71.51,71.51,0,0,1,41.79-1.06,74.23,74.23,0,0,1,16.79,7A77.65,77.65,0,0,1,173.57,48a93.44,93.44,0,0,1,9.65,9.53A12.15,12.15,0,0,1,184.41,59l.93,1.06H65Zm10.45,98.26A17,17,0,0,1,66.44,146c-2-5.55-2.25-11.5-.92-18.25.26-1.45.79-3.7,2.91-4.23s4.1.66,5.82,1.85l.13.13a2.3,2.3,0,0,1,.66,1.59,160.55,160.55,0,0,0,2.64,27.78,1.87,1.87,0,0,0,.14.79l.13,1.45ZM75.17,118.8l-.53.93-.53-.8c-11.5-16.66-15.47-34.38-11.9-54.09l.13-.53H102l-1.85,1.59c-.27.26-.53.39-.66.53A70.37,70.37,0,0,0,85.35,79.52a3.17,3.17,0,0,0-1,2.51,1.62,1.62,0,0,0,.79,1.33c.79.66,1.85,1,3.44-.93a69.86,69.86,0,0,1,20.89-16.8,4.13,4.13,0,0,1,4-.13c1.46.66,2.91,1.32,4.37,2.12.66.26,1.32.66,2.11.92l1.06.53-.92.13C102.28,81,87.6,97.24,75.17,118.8ZM117.49,218v2.51l-1.06.14H92.1a3.52,3.52,0,0,1-2.38-.93l-4-3.84c-5.82-5.68-11.77-11.5-17.32-17.59A34.73,34.73,0,0,1,62.87,190c-3.17-6.48-6.08-13.22-9-19.57-.93-2-1.85-4-2.78-5.95a5.58,5.58,0,0,1-.26-4.1,4.65,4.65,0,0,1,2.51-2.52c2.51-1.05,5,.14,6.22,2.91,2.11,5,4.36,10.06,6.48,15.08a37.72,37.72,0,0,0,8.46,12.43l2.38,2.38c3.57,3.57,7.27,7.41,11.11,11a2.93,2.93,0,0,0,2.25.79,1.87,1.87,0,0,0,1.45-1.19,2.6,2.6,0,0,0-.53-2.38c-1-1.19-2.24-2.24-3.3-3.43l-2.25-2.25c-3.57-3.57-7-7.14-10.58-10.85a8.27,8.27,0,0,1-1.32-1.72,3.84,3.84,0,0,0-.66-.79l-.4-.53.4-.4c3.3-3,8.06-2.91,11.9.14,2.78,2.24,6.35,5,10.18,7.53a41.34,41.34,0,0,0,8.07,4.1c6.21,2.38,10.31,7,12.83,14.16C117.62,209.13,117.49,213.63,117.49,218Zm14.29-18.65a2.88,2.88,0,0,1-2.25,1.46c-1.32,0-2.78.13-4.23.13s-3,0-4.63-.13a2.66,2.66,0,0,1-2.12-1.46,25.91,25.91,0,0,0-13.36-12.56,86.82,86.82,0,0,1-7.67-4.1c-1.32-.79-2.51-1.46-3.83-2.12-3.84-2.11-5.43-5.82-7-9.52l-.27-.53a80.92,80.92,0,0,1-6.21-25.79c-.53-5.69-.66-11.5-.93-17.19-.13-1.85-.13-3.7-.26-5.56a5,5,0,0,1,.53-2.51c11.24-19.31,24.33-34,39.94-45,.39-.26.79-.66,1.19-.92,1.32-1.06,2.77-2.12,4.23-2.12s3,1.19,4.36,2.25c.4.27.8.66,1.19.93,15.61,11,28.7,25.65,39.94,45a3.6,3.6,0,0,1,.53,2.12v7.41c-.39,9.91-.92,20.5-4,30.81-1.33,4.37-3.05,8.6-4.77,12.83-.39.93-.79,1.85-1.05,2.64a7.88,7.88,0,0,1-2.65,3.18,53.12,53.12,0,0,1-13.75,8.07,26.22,26.22,0,0,0-13,12.69Zm67.58-35.18c-2.25,4.9-4.37,9.79-6.61,14.68L190,184.93c-.13.39-.4.79-.53,1.19a45.49,45.49,0,0,1-11,16c-3.83,3.57-7.67,7.41-11.37,11.24-2,2-4,4.1-6.09,6.09a4,4,0,0,1-2.38,1.19H134.29c-.27,0-.4,0-.53-.14l-.66-.13v-.53c-.66-7.27-.4-16.53,6.35-24.07a14.81,14.81,0,0,1,5.68-4.1A77.44,77.44,0,0,0,165.5,179c3.57-3,7.67-3.31,11.24-.93.13.13.27.13.4.4l.92.79-.39.53a17.12,17.12,0,0,0-1.46,1.72,42.18,42.18,0,0,1-3.17,3.57c-2.91,3-5.95,6.08-9,9l-4.1,4.1a3.65,3.65,0,0,0-.67.8,2,2,0,0,0,.14,2.64,2.41,2.41,0,0,0,1.58.66h0a1,1,0,0,0,.93-.39c2-2.12,4.23-4.1,6.35-6.09,5.55-5.16,11.24-10.58,14.81-17.59,2-4,3.7-8.07,5.42-12,.8-1.85,1.59-3.84,2.38-5.69,1.19-2.65,3.44-3.84,5.82-3a4.57,4.57,0,0,1,2.91,2.51A5.89,5.89,0,0,1,199.36,164.16Z"/><path class="a" d="M138.92,169.59l-.8-.14a17.08,17.08,0,0,1-5-1.72,16,16,0,0,0-8.07-2.24,16.46,16.46,0,0,0-7.93,2.24,17.32,17.32,0,0,1-5.43,1.86,3.28,3.28,0,0,0-2.51,1.71,2.28,2.28,0,0,0,.26,2.39,9.78,9.78,0,0,0,2.78,2.9c3.44,2.52,7.41,3.71,13.1,4a21.68,21.68,0,0,0,12.43-4,10.34,10.34,0,0,0,2.77-3.17,2.41,2.41,0,0,0,.14-2.12C140.64,170.38,139.84,169.85,138.92,169.59ZM133.76,174A19.54,19.54,0,0,1,125,176.2a20.5,20.5,0,0,1-8.2-1.85l-.26-.14-.4-1.45,2.38-.93c1.85-.66,3.84-1.45,5.69-2.11a2.53,2.53,0,0,1,1.72,0c2.11.79,5,1.85,7.8,3.17l1.19.53Z"/><path class="a" d="M160.48,140a2.28,2.28,0,0,0-1.59-2.51,14.76,14.76,0,0,1-1.46-.8c-.13-.13-.39-.26-.53-.39l-.52-.27.66-1.85.53.13c.13,0,.39.14.52.14.4.13.93.13,1.33.26s1.06.4,1.58.53a10.88,10.88,0,0,0,2.78.79,1.83,1.83,0,0,0,1.59-.39,1.8,1.8,0,0,0,.79-1.46c0-.4.27-1.72-2-2.38a20.83,20.83,0,0,1-3.84-1.85c-1.45-1.06-2-1.06-3.57-.13a27.44,27.44,0,0,1-5.55,2.51c-3.31,1.06-6.88.93-11.24-.26-1.46-.4-2.65.13-2.91,1.45s.39,2.25,1.85,2.65a25.43,25.43,0,0,0,11,.79h.8a2.85,2.85,0,0,1,2.51,1.32c1.19,1.59,2.65,3.31,5.16,3.44A2,2,0,0,0,160.48,140Z"/><path class="a" d="M113.39,133.48c-.39-1.32-1.45-1.72-3.3-1.32-6.62,1.58-12,.79-16.8-2.52a2.26,2.26,0,0,0-3,.27,14.9,14.9,0,0,1-3.84,2c-1.58.53-2.25,1.46-2,2.65a1.91,1.91,0,0,0,.92,1.32,2.26,2.26,0,0,0,1.86.27c.79-.14,1.58-.53,2.51-.8a7.61,7.61,0,0,1,1.59-.53,4.68,4.68,0,0,1,1.32-.26.81.81,0,0,0,.53-.13l.66-.14.4,1.59-.4.4a1.86,1.86,0,0,1-.53.39,4.28,4.28,0,0,1-1.32.8c-.93.39-2.38,1.19-1.85,2.78a1.91,1.91,0,0,0,1.32,1.32,2,2,0,0,0,1.72-.13,18.81,18.81,0,0,0,4.63-3.58,3,3,0,0,1,2.77-1.05,25.48,25.48,0,0,0,11-.66,3.28,3.28,0,0,0,2-1.33A5.06,5.06,0,0,0,113.39,133.48Z"/><path class="a" d="M91,118.93a3,3,0,0,0,2.12-.13,13,13,0,0,1,5.42-1.19,16.35,16.35,0,0,1,4.89.79c3.18,1.06,6.48,2.12,9.66,3.18a2.15,2.15,0,0,0,3-1.19c.4-1.33-.13-2.25-1.59-2.78l-.66-.13c-3.44-1.19-7-2.38-10.58-3.44-.92-.27-2-.4-3.31-.66-.52-.13-1.19-.13-1.85-.27-.53.14-1.05.27-1.72.4-1.58.4-3.3.93-5,1.45A2.32,2.32,0,0,0,90,116.15a1.72,1.72,0,0,0,0,1.59A1.92,1.92,0,0,0,91,118.93Z"/><path class="a" d="M135.21,121.58a3,3,0,0,0,2.12,0c1.46-.4,2.78-.93,4.23-1.33,1.85-.66,3.71-1.19,5.56-1.85l3.17-.79c.53-.13,1.06-.26,1.72-.4h.13l1.59.53c1.19.4,2.51.66,3.7,1.06,1.46.4,2.52,0,3-1.06a2,2,0,0,0-1.2-2.78,16.23,16.23,0,0,0-6.74-1.85,12,12,0,0,0-2.12.27c-3.83.92-7.67,2.11-11.5,3.3-1.06.27-2,.67-3,.93a2.51,2.51,0,0,0-1.59,1.19,2.15,2.15,0,0,0-.13,1.59A3.16,3.16,0,0,0,135.21,121.58Z"/><path class="a" d="M116.3,155.57a17.09,17.09,0,0,0,9,2.51,16.63,16.63,0,0,0,9-2.65,2.23,2.23,0,0,0,1.06-3.17c-.66-1.06-1.85-1.32-3.18-.53a12.88,12.88,0,0,1-13.75,0c-1.46-.79-2.65-.66-3.31.53C114.19,153.85,115.38,155,116.3,155.57Z"/></svg>